{
.formatVersion = 3;
axes = (
{
name = Weight;
tag = wght;
}
);
familyName = "Goingto Home VF";
customParameters = (
{
name = glyphOrder;
value = (
.notdef,
uni0000,
CR,
space,
exclam,
quotedbl,
numbersign,
dollar,
percent,
ampersand,
quotesingle,
parenleft,
parenright,
asterisk,
plus,
comma,
hyphen,
period,
slash,
zero,
one,
two,
three,
four,
five,
six,
seven,
eight,
nine,
colon,
semicolon,
less,
equal,
greater,
question,
at,
A,
B,
C,
D,
E,
F,
G,
H,
I,
J,
K,
L,
M,
N,
O,
P,
Q,
R,
S,
T,
U,
V,
W,
X,
Y,
Z,
bracketleft,
backslash,
bracketright,
asciicircum,
underscore,
grave,
a,
b,
c,
d,
e,
f,
g,
h,
i,
j,
k,
l,
m,
n,
o,
p,
q,
r,
s,
t,
u,
v,
w,
x,
y,
z,
braceleft,
bar,
braceright,
asciitilde,
nbspace,
exclamdown,
cent,
sterling,
currency,
yen,
brokenbar,
section,
dieresis,
copyright,
ordfeminine,
guillemotleft,
logicalnot,
softhyphen,
registered,
macron,
degree,
plusminus,
twosuperior,
threesuperior,
acute,
mu,
paragraph,
periodcentered,
cedilla,
onesuperior,
ordmasculine,
guillemotright,
onequarter,
onehalf,
threequarters,
questiondown,
Agrave,
Aacute,
Acircumflex,
Atilde,
Adieresis,
Aring,
AE,
Ccedilla,
Egrave,
Eacute,
Ecircumflex,
Edieresis,
Igrave,
Iacute,
Icircumflex,
Idieresis,
Eth,
Ntilde,
Ograve,
Oacute,
Ocircumflex,
Otilde,
Odieresis,
multiply,
Oslash,
Ugrave,
Uacute,
Ucircumflex,
Udieresis,
Yacute,
Thorn,
germandbls,
agrave,
aacute,
acircumflex,
atilde,
adieresis,
aring,
ae,
ccedilla,
egrave,
eacute,
ecircumflex,
edieresis,
igrave,
iacute,
icircumflex,
idieresis,
eth,
ntilde,
ograve,
oacute,
ocircumflex,
otilde,
odieresis,
divide,
oslash,
ugrave,
uacute,
ucircumflex,
udieresis,
yacute,
thorn,
ydieresis,
Amacron,
amacron,
Abreve,
abreve,
Aogonek,
aogonek,
Cacute,
cacute,
Ccircumflex,
ccircumflex,
Cdotaccent,
cdotaccent,
Ccaron,
ccaron,
Dcaron,
dcaron,
Dcroat,
dcroat,
Emacron,
emacron,
Ebreve,
ebreve,
Edotaccent,
edotaccent,
Eogonek,
eogonek,
Ecaron,
ecaron,
Gcircumflex,
gcircumflex,
Gbreve,
gbreve,
Gdotaccent,
gdotaccent,
Gcommaaccent,
gcommaaccent,

glyphs = (
{
glyphname = .notdef;
layers = (
{
layerId = "5E5F26D6-8E6E-4FD0-9F5C-925EECC75CBD";
shapes = (
{
closed = 1;
nodes = (
(159,0,l),
(1183,0,l),
(1183,1280,l),
(159,1280,l)
);
},
{
closed = 1;
nodes = (
(223,64,l),
(223,1216,l),
(1119,1216,l),
(1119,64,l)
);
}
);
width = 1565;
},
{
layerId = "802D032B-EE86-4213-9785-3BFE9E181E39";
shapes = (
{
closed = 1;
nodes = (
(155,0,l),
(1179,0,l),
(1179,1280,l),
(155,1280,l)
);
},
{
closed = 1;
nodes = (
(219,64,l),
(219,1216,l),
(1115,1216,l),
(1115,64,l)
);
}
);
width = 1558;
},
{
layerId = "01EADDEA-E3EA-45FB-B4A5-8F079D2A3A41";
shapes = (
{
closed = 1;
nodes = (
(140,0,l),
(1164,0,l),
(1164,1280,l),
(140,1280,l)
);
},
{
closed = 1;
nodes = (
(204,64,l),
(204,1216,l),
(1100,1216,l),
(1100,64,l)
);
}
);
width = 1529;
},
{
layerId = "ED340520-5A40-405B-AFF7-E5EF9D999D24";
shapes = (
{
closed = 1;
nodes = (
(144,0,l),
(1168,0,l),
(1168,1280,l),
(144,1280,l)
);
},
{
closed = 1;
nodes = (
(208,64,l),
(208,1216,l),
(1104,1216,l),
(1104,64,l)
);
}
);
width = 1536;
}
);
},
{
glyphname = exclam;
layers = (
{
layerId = "5E5F26D6-8E6E-4FD0-9F5C-925EECC75CBD";
shapes = (
{
closed = 1;
nodes = (
(102,0,l),
(286,0,l),
(323,190,l),
(139,190,l)
);
},
{
closed = 1;
nodes = (
(208,399,l),
(339,399,l),
(512,1184,l),
(571,1480,l),
(407,1480,l),
(348,1184,l)
);
}
);
width = 561;
},
{
layerId = "802D032B-EE86-4213-9785-3BFE9E181E39";
shapes = (
{
closed = 1;
nodes = (
(99,0,l),
(316,0,l),
(357,207,l),
(140,207,l)
);
},
{
closed = 1;
nodes = (
(215,407,l),
(363,407,l),
(542,1184,l),
(601,1480,l),
(404,1480,l),
(345,1184,l)
);
}
);
width = 591;
},
{
layerId = "01EADDEA-E3EA-45FB-B4A5-8F079D2A3A41";
shapes = (
{
closed = 1;
nodes = (
(88,0,l),
(437,0,l),
(492,274,l),
(143,274,l)
);
},
{
closed = 1;
nodes = (
(243,440,l),
(458,440,l),
(663,1184,l),
(722,1480,l),
(393,1480,l),
(334,1184,l)
);
}
);
width = 712;
},
{
layerId = "ED340520-5A40-405B-AFF7-E5EF9D999D24";
shapes = (
{
closed = 1;
nodes = (
(91,0,l),
(407,0,l),
(458,257,l),
(142,257,l)
);
},
{
closed = 1;
nodes = (
(236,432,l),
(434,432,l),
(633,1184,l),
(692,1480,l),
(396,1480,l),
(337,1184,l)
);
}
);
width = 682;
}
);
unicode = 33;
},
{
glyphname = quotedbl;
layers = (
{
layerId = "5E5F26D6-8E6E-4FD0-9F5C-925EECC75CBD";
shapes = (
{
closed = 1;
nodes = (
(222,1091,l),
(358,1091,l),
(466,1579,l),
(302,1579,l)
);
},
{
closed = 1;
nodes = (
(533,1091,l),
(669,1091,l),
(779,1579,l),
(613,1579,l)
);
}
);
width = 675;
},
{
layerId = "802D032B-EE86-4213-9785-3BFE9E181E39";
shapes = (
{
closed = 1;
nodes = (
(227,1056,l),
(375,1056,l),
(503,1579,l),
(306,1579,l)
);
},
{
closed = 1;
nodes = (
(572,1056,l),
(720,1056,l),
(849,1579,l),
(651,1579,l)
);
}
);
width = 749;
},
{
layerId = "01EADDEA-E3EA-45FB-B4A5-8F079D2A3A41";
shapes = (
{
closed = 1;
nodes = (
(246,917,l),
(443,917,l),
(650,1579,l),
(321,1579,l)
);
},
{
closed = 1;
nodes = (
(727,917,l),
(925,917,l),
(1130,1579,l),
(802,1579,l)
);
}
);
width = 1045;
},
{
layerId = "ED340520-5A40-405B-AFF7-E5EF9D999D24";
shapes = (
{
closed = 1;
nodes = (
(241,952,l),
(426,952,l),
(613,1579,l),
(317,1579,l)
);
},
{
closed = 1;
nodes = (
(688,952,l),
(874,952,l),
(1060,1579,l),
(764,1579,l)
);
}
);
width = 971;
}
);
unicode = 34;
},
{
glyphname = numbersign;
layers = (
{
layerId = "5E5F26D6-8E6E-4FD0-9F5C-925EECC75CBD";
shapes = (
{
closed = 1;
nodes = (
(28,0,l),
(147,0,l),
(349,450,l),
(629,450,l),
(427,0,l),
(547,0,l),
(748,450,l),
(991,450,l),
(1037,566,l),
(800,566,l),
(958,915,l),
(1177,915,l),
(1223,1030,l),
(1010,1030,l),
(1212,1480,l),
(1092,1480,l),
(891,1030,l),
(611,1030,l),
(812,1480,l),
(694,1480,l),
(491,1030,l),
(249,1030,l),
(202,915,l),
(440,915,l),
(282,566,l),
(63,566,l),
(17,450,l),
(229,450,l)
);
},
{
closed = 1;
nodes = (
(400,566,l),
(558,915,l),
(839,915,l),
(681,566,l)
);
}
);
width = 1168;
},
{
layerId = "802D032B-EE86-4213-9785-3BFE9E181E39";
shapes = (
{
closed = 1;
nodes = (
(24,0,l),
(152,0,l),
(351,444,l),
(614,444,l),
(415,0,l),
(543,0,l),
(742,444,l),
(984,444,l),
(1033,568,l),
(797,568,l),
(953,913,l),
(1171,913,l),
(1220,1036,l),
(1009,1036,l),
(1208,1480,l),
(1080,1480,l),
(881,1036,l),
(618,1036,l),
(817,1480,l),
(690,1480,l),
(490,1036,l),
(249,1036,l),
(199,913,l),
(435,913,l),
(279,568,l),
(61,568,l),
(12,444,l),
(223,444,l)
);
},
{
closed = 1;
nodes = (
(406,568,l),
(562,913,l),
(826,913,l),
(670,568,l)
);
}
);
width = 1161;
},
{
layerId = "01EADDEA-E3EA-45FB-B4A5-8F079D2A3A41";
shapes = (
{
closed = 1;
nodes = (
(9,0,l),
(171,0,l),
(359,420,l),
(555,420,l),
(367,0,l),
(527,0,l),
(717,420,l),
(955,420,l),
(1016,576,l),
(786,576,l),
(934,905,l),
(1147,905,l),
(1209,1061,l),
(1004,1061,l),
(1192,1480,l),
(1032,1480,l),
(842,1061,l),
(646,1061,l),
(836,1480,l),
(674,1480,l),
(486,1061,l),
(248,1061,l),
(186,905,l),
(416,905,l),
(267,576,l),
(54,576,l),
(-7,420,l),
(198,420,l)
);
},
{
closed = 1;
nodes = (
(429,576,l),
(577,905,l),
(773,905,l),
(625,576,l)
);
}
);
width = 1132;
},
{
layerId = "ED340520-5A40-405B-AFF7-E5EF9D999D24";
shapes = (
{
closed = 1;
nodes = (
(13,0,l),
(166,0,l),
(357,426,l),
(570,426,l),
(379,0,l),
(531,0,l),
(723,426,l),
(962,426,l),
(1020,574,l),
(789,574,l),
(939,907,l),
(1153,907,l),
(1212,1055,l),
(1005,1055,l),
(1196,1480,l),
(1044,1480,l),
(852,1055,l),
(639,1055,l),
(831,1480,l),
(678,1480,l),
(487,1055,l),
(248,1055,l),
(189,907,l),
(421,907,l),
(270,574,l),
(56,574,l),
(-2,426,l),
(204,426,l)
);
},
{
closed = 1;
nodes = (
(423,574,l),
(573,907,l),
(786,907,l),
(636,574,l)
);
}
);
width = 1139;
}
);
unicode = 35;
},
{
glyphname = dollar;
layers = (
{
layerId = "5E5F26D6-8E6E-4FD0-9F5C-925EECC75CBD";
shapes = (
{
closed = 1;
nodes = (
(424,-111,l),
(503,-111,l),
(525,-1,l),
(760,48,o),
(923,197,o),
(966,417,cs),
(996,566,o),
(973,624,o),
(763,753,cs),
(747,763,o),
(721,782,o),
(686,808,c),
(796,1358,l),
(896,1349,o),
(1004,1317,o),
(1121,1264,c),
(1151,1412,l),
(1033,1458,o),
(923,1482,o),
(820,1480,c),
(843,1592,l),
(764,1592,l),
(742,1480,l),
(523,1467,o),
(351,1317,o),
(313,1129,cs),
(278,958,o),
(336,856,o),
(582,682,c),
(473,136,l),
(357,133,o),
(226,168,o),
(81,239,c),
(50,85,l),
(177,26,o),
(314,-1,o),
(447,-1,c)
);
},
{
closed = 1;
nodes = (
(662,633,l),
(826,516,o),
(828,487,o),
(808,388,cs),
(780,257,o),
(702,177,o),
(564,148,c)
);
},
{
closed = 1;
nodes = (
(609,867,l),
(568,903,o),
(530,931,o),
(493,957,c),
(460,997,o),
(442,1042,o),
(443,1091,c),
(461,1230,o),
(549,1317,o),
(706,1353,c)
);
}
);
width = 1168;
},
{
layerId = "802D032B-EE86-4213-9785-3BFE9E181E39";
shapes = (
{
closed = 1;
nodes = (
(402,-123,l),
(501,-123,l),
(526,0,l),
(766,43,o),
(928,203,o),
(970,415,cs),
(1000,565,o),
(963,643,o),
(759,769,cs),
(743,779,o),
(719,796,o),
(689,818,c),
(794,1345,l),
(886,1338,o),
(990,1307,o),
(1107,1252,c),
(1139,1413,l),
(1029,1457,o),
(923,1480,o),
(821,1480,c),
(846,1604,l),
(747,1604,l),
(722,1480,l),
(495,1464,o),
(329,1319,o),
(290,1125,cs),
(254,948,o),
(310,841,o),
(562,679,c),
(456,148,l),
(336,148,o),
(208,183,o),
(72,253,c),
(38,83,l),
(169,27,o),
(302,0,o),
(427,0,c)
);
},
{
closed = 1;
nodes = (
(650,621,l),
(798,518,o),
(810,480,o),
(791,385,cs),
(766,263,o),
(689,188,o),
(557,160,c)
);
},
{
closed = 1;
nodes = (
(603,883,l),
(547,922,o),
(508,960,o),
(485,1001,cs),
(462,1042,o),
(454,1085,o),
(463,1129,cs),
(485,1240,o),
(562,1310,o),
(694,1339,c)
);
}
);
width = 1161;
},
{
layerId = "01EADDEA-E3EA-45FB-B4A5-8F079D2A3A41";
shapes = (
{
closed = 1;
nodes = (
(314,-172,l),
(494,-172,l),
(529,4,l),
(791,22,o),
(949,228,o),
(986,406,cs),
(1016,561,o),
(923,718,o),
(742,834,cs),
(726,844,o),
(711,852,o),
(700,858,c),
(786,1293,l),
(846,1295,o),
(934,1266,o),
(1050,1203,c),
(1092,1417,l),
(1014,1452,o),
(924,1472,o),
(824,1479,c),
(858,1653,l),
(678,1653,l),
(643,1479,l),
(384,1453,o),
(241,1327,o),
(198,1108,cs),
(157,909,o),
(207,782,o),
(481,666,c),
(387,197,l),
(252,207,o),
(136,244,o),
(37,310,c),
(-10,76,l),
(137,31,o),
(253,4,o),
(348,5,c)
);
},
{
closed = 1;
nodes = (
(601,572,l),
(685,527,o),
(738,451,o),
(724,373,cs),
(709,287,o),
(638,232,o),
(529,209,c)
);
},
{
closed = 1;
nodes = (
(578,948,l),
(463,997,o),
(420,1076,o),
(452,1177,c),
(471,1223,o),
(502,1257,o),
(543,1280,c),
(580,1279,o),
(613,1281,o),
(645,1284,c)
);
}
);
width = 1132;
},
{
layerId = "ED340520-5A40-405B-AFF7-E5EF9D999D24";
shapes = (
{
closed = 1;
nodes = (
(336,-160,l),
(496,-160,l),
(528,3,l),
(785,27,o),
(944,222,o),
(982,408,cs),
(1012,562,o),
(933,699,o),
(746,818,cs),
(730,828,o),
(713,838,o),
(697,848,c),
(788,1306,l),
(856,1306,o),
(948,1276,o),
(1064,1215,c),
(1104,1416,l),
(1018,1453,o),
(924,1474,o),
(823,1479,c),
(855,1641,l),
(695,1641,l),
(663,1479,l),
(412,1456,o),
(263,1325,o),
(221,1112,cs),
(181,919,o),
(233,797,o),
(501,669,c),
(404,185,l),
(273,192,o),
(154,229,o),
(46,296,c),
(2,78,l),
(145,30,o),
(265,3,o),
(368,4,c)
);
},
{
closed = 1;
nodes = (
(613,584,l),
(713,525,o),
(756,458,o),
(741,376,cs),
(723,281,o),
(651,221,o),
(536,197,c)
);
},
{
closed = 1;
nodes = (
(584,932,l),
(484,978,o),
(442,1047,o),
(460,1133,cs),
(469,1178,o),
(490,1214,o),
(523,1242,cs),
(556,1269,o),
(600,1288,o),
(657,1298,c)
);
}
);
width = 1139;
}
);
unicode = 36;
},
{
glyphname = percent;
layers = (
{
layerId = "5E5F26D6-8E6E-4FD0-9F5C-925EECC75CBD";
shapes = (
{
closed = 1;
nodes = (
(163,12,l),
(302,12,l),
(1739,1468,l),
(1600,1468,l)
);
},
{
closed = 1;
nodes = (
(245,1055,o),
(228,991,o),
(260,1160,c),
(191,899,o),
(279,740,o),
(503,740,cs),
(697,740,o),
(839,874,o),
(892,1088,cs),
(948,1327,o),
(864,1480,o),
(649,1480,cs),
(444,1480,o),
(300,1335,o),
(257,1118,cs)
);
},
{
closed = 1;
nodes = (
(428,1254,o),
(527,1385,o),
(630,1385,cs),
(680,1385,o),
(716,1360,o),
(739,1308,cs),
(762,1253,o),
(766,1188,o),
(750,1110,cs),
(720,961,o),
(623,836,o),
(521,836,cs),
(469,836,o),
(434,862,o),
(411,913,cs),
(388,967,o),
(385,1035,o),
(402,1117,cs)
);
},
{
closed = 1;
nodes = (
(1039,363,o),
(1022,299,o),
(1054,468,c),
(985,208,o),
(1072,49,o),
(1297,49,cs),
(1493,49,o),
(1634,184,o),
(1685,397,cs),
(1740,639,o),
(1637,789,o),
(1444,789,cs),
(1258,789,o),
(1094,646,o),
(1051,426,cs)
);
},
{
closed = 1;
nodes = (
(1225,570,o),
(1319,695,o),
(1424,695,cs),
(1472,695,o),
(1509,669,o),
(1531,617,cs),
(1555,563,o),
(1558,493,o),
(1541,406,cs),
(1515,277,o),
(1416,145,o),
(1316,145,cs),
(1265,145,o),
(1228,171,o),
(1205,222,c),
(1182,277,o),
(1179,340,o),
(1193,413,cs)
);
}
);
width = 1850;
},
{
layerId = "802D032B-EE86-4213-9785-3BFE9E181E39";
shapes = (
{
closed = 1;
nodes = (
(149,0,l),
(304,0,l),
(1750,1480,l),
(1596,1480,l)
);
},
{
closed = 1;
nodes = (
(230,1057,o),
(216,999,o),
(241,1116,c),
(191,881,o),
(284,740,o),
(494,740,cs),
(702,740,o),
(849,883,o),
(895,1110,cs),
(941,1337,o),
(851,1480,o),
(641,1480,cs),
(433,1480,o),
(284,1335,o),
(241,1116,cs)
);
},
{
closed = 1;
nodes = (
(432,1254,o),
(521,1372,o),
(620,1372,cs),
(669,1372,o),
(704,1347,o),
(724,1297,cs),
(744,1247,o),
(746,1185,o),
(731,1110,cs),
(701,962,o),
(614,849,o),
(515,849,cs),
(465,849,o),
(431,874,o),
(411,924,cs),
(391,974,o),
(389,1037,o),
(405,1115,cs)
);
},
{
closed = 1;
nodes = (
(1026,354,o),
(1012,296,o),
(1037,413,c),
(987,178,o),
(1080,37,o),
(1290,37,cs),
(1499,37,o),
(1646,180,o),
(1691,407,cs),
(1736,636,o),
(1631,777,o),
(1438,777,cs),
(1244,777,o),
(1080,633,o),
(1037,413,cs)
);
},
{
closed = 1;
nodes = (
(1230,556,o),
(1315,669,o),
(1416,669,cs),
(1464,669,o),
(1499,644,o),
(1519,594,cs),
(1539,544,o),
(1541,479,o),
(1525,397,cs),
(1498,264,o),
(1409,146,o),
(1312,146,cs),
(1262,146,o),
(1227,171,o),
(1207,221,cs),
(1187,271,o),
(1185,331,o),
(1199,402,cs)
);
}
);
width = 1843;
},
{
layerId = "01EADDEA-E3EA-45FB-B4A5-8F079D2A3A41";
shapes = (
{
closed = 1;
nodes = (
(94,-49,l),
(311,-49,l),
(1794,1529,l),
(1579,1529,l)
);
},
{
closed = 1;
nodes = (
(169,1066,o),
(169,1031,o),
(164,941,c),
(191,810,o),
(304,740,o),
(457,740,cs),
(721,740,o),
(890,920,o),
(908,1199,c),
(914,1378,o),
(798,1480,o),
(610,1480,cs),
(388,1480,o),
(220,1335,o),
(177,1108,cs)
);
},
{
closed = 1;
nodes = (
(448,1255,o),
(496,1319,o),
(579,1319,cs),
(626,1319,o),
(655,1296,o),
(665,1253,cs),
(672,1222,o),
(667,1173,o),
(655,1111,cs),
(626,966,o),
(579,901,o),
(492,901,cs),
(448,901,o),
(418,923,o),
(410,968,cs),
(404,1001,o),
(406,1046,o),
(418,1108,cs)
);
},
{
closed = 1;
nodes = (
(974,319,o),
(973,283,o),
(968,192,c),
(995,57,o),
(1112,-12,o),
(1262,-12,cs),
(1522,-12,o),
(1695,164,o),
(1714,447,c),
(1720,624,o),
(1607,728,o),
(1414,728,cs),
(1188,728,o),
(1025,582,o),
(982,362,cs)
);
},
{
closed = 1;
nodes = (
(1251,501,o),
(1300,566,o),
(1383,566,cs),
(1431,566,o),
(1459,544,o),
(1470,501,c),
(1476,469,o),
(1473,422,o),
(1461,362,cs),
(1431,211,o),
(1381,149,o),
(1296,149,cs),
(1251,149,o),
(1222,171,o),
(1214,216,cs),
(1208,248,o),
(1210,295,o),
(1223,359,cs)
);
}
);
width = 1814;
},
{
layerId = "ED340520-5A40-405B-AFF7-E5EF9D999D24";
shapes = (
{
closed = 1;
nodes = (
(108,-37,l),
(309,-37,l),
(1783,1517,l),
(1583,1517,l)
);
},
{
closed = 1;
nodes = (
(184,1064,o),
(181,1023,o),
(183,985,cs),
(191,828,o),
(299,740,o),
(466,740,cs),
(716,740,o),
(880,911,o),
(905,1177,cs),
(921,1368,o),
(811,1480,o),
(618,1480,cs),
(399,1480,o),
(236,1335,o),
(193,1110,cs)
);
},
{
closed = 1;
nodes = (
(444,1255,o),
(502,1332,o),
(589,1332,cs),
(637,1332,o),
(667,1309,o),
(680,1264,cs),
(690,1228,o),
(687,1176,o),
(674,1111,cs),
(645,965,o),
(588,888,o),
(498,888,cs),
(452,888,o),
(421,911,o),
(410,957,cs),
(401,994,o),
(402,1044,o),
(415,1110,cs)
);
},
{
closed = 1;
nodes = (
(987,328,o),
(983,286,o),
(985,247,cs),
(993,87,o),
(1104,0,o),
(1269,0,cs),
(1516,0,o),
(1683,168,o),
(1708,437,cs),
(1724,627,o),
(1613,740,o),
(1420,740,cs),
(1202,740,o),
(1039,595,o),
(996,375,cs)
);
},
{
closed = 1;
nodes = (
(1246,515,o),
(1304,592,o),
(1391,592,cs),
(1439,592,o),
(1469,569,o),
(1482,524,cs),
(1492,488,o),
(1490,436,o),
(1477,371,cs),
(1448,224,o),
(1388,148,o),
(1300,148,cs),
(1254,148,o),
(1223,171,o),
(1212,217,cs),
(1203,254,o),
(1204,304,o),
(1217,370,cs)
);
}
);
width = 1821;
}
);
unicode = 37;
},
{
glyphname = ampersand;
layers = (
{
layerId = "5E5F26D6-8E6E-4FD0-9F5C-925EECC75CBD";
shapes = (
{
closed = 1;
nodes = (
(921,0,l),
(1162,0,l),
(1094,70,o),
(1040,141,o),
(999,213,c),
(1158,351,o),
(1256,515,o),
(1294,703,c),
(1117,703,l),
(1097,605,ls),
(1073,486,o),
(1017,385,o),
(932,306,c),
(848,435,o),
(767,610,o),
(692,830,c),
(905,912,o),
(1037,1031,o),
(1088,1193,c),
(1141,1391,o),
(1047,1517,o),
(845,1517,cs),
(642,1517,o),
(499,1389,o),
(458,1178,cs),
(441,1097,o),
(450,1007,o),
(485,907,c),
(239,830,o),
(96,674,o),
(49,441,cs),
(-6,169,o),
(174,-37,o),
(463,-37,cs),
(579,-37,o),
(712,5,o),
(863,90,c)
);
},
{
closed = 1;
nodes = (
(684,129,o),
(586,97,o),
(514,97,cs),
(311,97,o),
(182,263,o),
(225,474,cs),
(255,625,o),
(354,736,o),
(524,806,c),
(605,547,o),
(704,338,o),
(809,195,c)
);
},
{
closed = 1;
nodes = (
(620,1051,o),
(610,1135,o),
(625,1206,cs),
(649,1322,o),
(710,1381,o),
(815,1381,cs),
(908,1381,o),
(945,1327,o),
(924,1218,cs),
(899,1094,o),
(808,1004,o),
(648,949,c)
);
}
);
width = 1358;
},
{
layerId = "802D032B-EE86-4213-9785-3BFE9E181E39";
shapes = (
{
closed = 1;
nodes = (
(924,0,l),
(1192,0,l),
(1127,72,o),
(1073,146,o),
(1030,221,c),
(1194,367,o),
(1293,528,o),
(1328,703,c),
(1133,703,l),
(1117,623,ls),
(1094,510,o),
(1041,412,o),
(959,328,c),
(874,460,o),
(796,628,o),
(726,832,c),
(957,924,o),
(1091,1052,o),
(1124,1217,cs),
(1161,1400,o),
(1057,1517,o),
(861,1517,cs),
(652,1517,o),
(492,1387,o),
(452,1183,cs),
(436,1103,o),
(446,1010,o),
(484,904,c),
(233,821,o),
(87,666,o),
(42,440,cs),
(-13,167,o),
(170,-37,o),
(466,-37,cs),
(588,-37,o),
(722,4,o),
(868,87,c)
);
},
{
closed = 1;
nodes = (
(693,141,o),
(601,111,o),
(527,111,cs),
(329,111,o),
(207,274,o),
(248,478,cs),
(276,620,o),
(370,724,o),
(531,790,c),
(610,549,o),
(703,349,o),
(805,202,c)
);
},
{
closed = 1;
nodes = (
(645,1056,o),
(634,1137,o),
(648,1205,cs),
(670,1314,o),
(730,1369,o),
(830,1369,cs),
(922,1369,o),
(958,1317,o),
(938,1213,cs),
(915,1098,o),
(828,1012,o),
(677,956,c)
);
}
);
width = 1388;
},
{
layerId = "01EADDEA-E3EA-45FB-B4A5-8F079D2A3A41";
shapes = (
{
closed = 1;
nodes = (
(937,0,l),
(1312,0,l),
(1258,81,o),
(1205,166,o),
(1155,254,c),
(1337,430,o),
(1441,579,o),
(1465,703,c),
(1198,703,l),
(1197,696,l),
(1177,606,o),
(1136,519,o),
(1066,417,c),
(978,559,o),
(911,700,o),
(862,841,c),
(1164,971,o),
(1307,1135,o),
(1269,1314,c),
(1240,1436,o),
(1097,1518,o),
(924,1518,cs),
(692,1518,o),
(464,1378,o),
(429,1204,c),
(415,1126,o),
(431,1022,o),
(480,892,c),
(208,785,o),
(52,633,o),
(13,436,cs),
(-41,159,o),
(154,-37,o),
(478,-37,cs),
(625,-37,o),
(762,1,o),
(888,76,c)
);
},
{
closed = 1;
nodes = (
(729,189,o),
(660,168,o),
(579,168,cs),
(401,168,o),
(306,319,o),
(341,495,cs),
(361,599,o),
(434,675,o),
(558,726,c),
(631,556,o),
(700,393,o),
(790,231,c)
);
},
{
closed = 1;
nodes = (
(746,1075,o),
(729,1145,o),
(740,1202,cs),
(755,1282,o),
(809,1320,o),
(890,1320,cs),
(977,1320,o),
(1011,1277,o),
(994,1193,c),
(980,1115,o),
(909,1045,o),
(792,984,c)
);
}
);
width = 1509;
},
{
layerId = "ED340520-5A40-405B-AFF7-E5EF9D999D24";
shapes = (
{
closed = 1;
nodes = (
(934,0,l),
(1282,0,l),
(1225,79,o),
(1172,161,o),
(1124,246,c),
(1301,414,o),
(1404,566,o),
(1431,703,c),
(1182,703,l),
(1177,678,ls),
(1156,582,o),
(1112,492,o),
(1039,395,c),
(952,534,o),
(882,682,o),
(828,839,c),
(1112,959,o),
(1253,1114,o),
(1233,1290,c),
(1220,1427,o),
(1087,1518,o),
(908,1518,cs),
(682,1518,o),
(471,1380,o),
(435,1199,cs),
(420,1120,o),
(435,1019,o),
(481,895,c),
(214,794,o),
(61,641,o),
(20,437,cs),
(-34,161,o),
(158,-37,o),
(475,-37,cs),
(616,-37,o),
(752,2,o),
(883,79,c)
);
},
{
closed = 1;
nodes = (
(720,177,o),
(645,154,o),
(566,154,cs),
(383,154,o),
(281,308,o),
(318,491,cs),
(340,604,o),
(418,687,o),
(551,742,c),
(626,554,o),
(701,382,o),
(794,224,c)
);
},
{
closed = 1;
nodes = (
(721,1070,o),
(705,1143,o),
(717,1203,cs),
(734,1290,o),
(789,1332,o),
(875,1332,cs),
(963,1332,o),
(998,1287,o),
(980,1198,c),
(964,1111,o),
(889,1037,o),
(763,977,c)
);
}
);
width = 1479;
}
);
unicode = 38;
},
{
glyphname = quotesingle;
layers = (
{
layerId = "5E5F26D6-8E6E-4FD0-9F5C-925EECC75CBD";
shapes = (
{
closed = 1;
nodes = (
(228,1064,l),
(364,1064,l),
(508,1579,l),
(286,1579,l)
);
}
);
width = 388;
},
{
layerId = "802D032B-EE86-4213-9785-3BFE9E181E39";
shapes = (
{
closed = 1;
nodes = (
(227,1036,l),
(375,1036,l),
(533,1579,l),
(286,1579,l)
);
}
);
width = 413;
},
{
layerId = "01EADDEA-E3EA-45FB-B4A5-8F079D2A3A41";
shapes = (
{
closed = 1;
nodes = (
(222,924,l),
(419,924,l),
(632,1579,l),
(286,1579,l)
);
}
);
width = 512;
},
{
layerId = "ED340520-5A40-405B-AFF7-E5EF9D999D24";
shapes = (
{
closed = 1;
nodes = (
(223,952,l),
(408,952,l),
(607,1579,l),
(286,1579,l)
);
}
);
width = 487;
}
);
unicode = 39;
},
{
glyphname = parenleft;
layers = (
{
layerId = "5E5F26D6-8E6E-4FD0-9F5C-925EECC75CBD";
shapes = (
{
closed = 1;
nodes = (
(461,-174,l),
(389,-72,o),
(345,29,o),
(321,132,c),
(298,264,o),
(308,433,o),
(350,642,cs),
(426,1023,o),
(531,1227,o),
(787,1457,c),
(810,1575,l),
(499,1377,o),
(251,1009,o),
(177,642,cs),
(102,267,o),
(204,-90,o),
(436,-292,c)
);
}
);
width = 711;
},
{
layerId = "802D032B-EE86-4213-9785-3BFE9E181E39";
shapes = (
{
closed = 1;
nodes = (
(467,-160,l),
(389,-53,o),
(344,61,o),
(326,184,cs),
(308,306,o),
(318,458,o),
(355,642,cs),
(428,1009,o),
(542,1225,o),
(787,1443,c),
(814,1579,l),
(490,1385,o),
(233,1016,o),
(158,642,cs),
(82,263,o),
(192,-101,o),
(439,-296,c)
);
}
);
width = 704;
},
{
layerId = "01EADDEA-E3EA-45FB-B4A5-8F079D2A3A41";
shapes = (
{
closed = 1;
nodes = (
(491,-103,l),
(390,23,o),
(341,188,o),
(345,391,c),
(349,473,o),
(359,557,o),
(376,641,cs),
(437,952,o),
(585,1217,o),
(788,1386,c),
(830,1595,l),
(455,1417,o),
(162,1045,o),
(81,642,cs),
(1,247,o),
(145,-145,o),
(450,-312,c)
);
}
);
width = 675;
},
{
layerId = "ED340520-5A40-405B-AFF7-E5EF9D999D24";
shapes = (
{
closed = 1;
nodes = (
(485,-117,l),
(390,4,o),
(342,156,o),
(340,339,cs),
(339,431,o),
(349,532,o),
(371,641,cs),
(435,966,o),
(574,1219,o),
(788,1400,c),
(826,1591,l),
(464,1409,o),
(180,1038,o),
(100,642,cs),
(21,251,o),
(157,-134,o),
(447,-308,c)
);
}
);
width = 682;
}
);
unicode = 40;
},
{
glyphname = parenright;
layers = (
{
layerId = "5E5F26D6-8E6E-4FD0-9F5C-925EECC75CBD";
shapes = (
{
closed = 1;
nodes = (
(283,1457,l),
(354,1351,o),
(404,1241,o),
(422,1133,c),
(441,1005,o),
(434,840,o),
(393,643,cs),
(316,259,o),
(207,55,o),
(-43,-174,c),
(-68,-292,l),
(228,-102,o),
(472,240,o),
(559,593,cs),
(652,983,o),
(552,1364,o),
(306,1575,c)
);
}
);
width = 711;
},
{
layerId = "802D032B-EE86-4213-9785-3BFE9E181E39";
shapes = (
{
closed = 1;
nodes = (
(269,1443,l),
(344,1336,o),
(393,1220,o),
(409,1099,cs),
(425,976,o),
(417,823,o),
(380,642,cs),
(306,273,o),
(190,57,o),
(-51,-160,c),
(-79,-296,l),
(246,-102,o),
(503,264,o),
(578,642,cs),
(653,1019,o),
(543,1383,o),
(296,1579,c)
);
}
);
width = 704;
},
{
layerId = "01EADDEA-E3EA-45FB-B4A5-8F079D2A3A41";
shapes = (
{
closed = 1;
nodes = (
(214,1386,l),
(303,1275,o),
(348,1137,o),
(357,963,cs),
(361,861,o),
(350,754,o),
(328,638,cs),
(266,330,o),
(122,65,o),
(-83,-103,c),
(-123,-312,l),
(318,-101,o),
(628,360,o),
(653,837,c),
(658,1164,o),
(507,1460,o),
(256,1595,c)
);
}
);
width = 675;
},
{
layerId = "ED340520-5A40-405B-AFF7-E5EF9D999D24";
shapes = (
{
closed = 1;
nodes = (
(228,1400,l),
(313,1290,o),
(359,1158,o),
(370,997,cs),
(377,890,o),
(367,771,o),
(341,639,cs),
(276,316,o),
(139,63,o),
(-75,-117,c),
(-112,-308,l),
(300,-101,o),
(597,336,o),
(634,788,cs),
(657,1128,o),
(516,1441,o),
(266,1591,c)
);
}
);
width = 682;
}
);
unicode = 41;
},
{
glyphname = asterisk;
layers = (
{
layerId = "5E5F26D6-8E6E-4FD0-9F5C-925EECC75CBD";
shapes = (
{
closed = 1;
nodes = (
(638,1099,l),
(608,739,l),
(623,747,o),
(641,751,o),
(661,751,cs),
(682,751,o),
(699,746,o),
(711,739,c),
(822,1099,l)
);
},
{
closed = 1;
nodes = (
(203,710,l),
(546,642,l),
(544,672,o),
(573,718,o),
(598,738,c),
(294,884,l),
(279,855,o),
(263,825,o),
(248,795,cs)
);
},
{
closed = 1;
nodes = (
(1078,883,l),
(718,733,l),
(724,726,o),
(730,716,o),
(735,703,c),
(738,678,o),
(736,656,o),
(729,635,c),
(1098,707,l)
);
},
{
closed = 1;
nodes = (
(919,362,l),
(725,629,l),
(708,604,o),
(660,573,o),
(630,571,c),
(750,256,l)
);
},
{
closed = 1;
nodes = (
(620,572,l),
(588,572,o),
(556,608,o),
(549,632,c),
(252,363,l),
(328,298,ls),
(345,284,o),
(362,270,o),
(379,256,c)
);
}
);
width = 1243;
},
{
layerId = "802D032B-EE86-4213-9785-3BFE9E181E39";
shapes = (
{
closed = 1;
nodes = (
(618,1125,l),
(597,765,l),
(614,774,o),
(633,778,o),
(653,778,cs),
(674,778,o),
(692,773,o),
(706,765,c),
(826,1125,l)
);
},
{
closed = 1;
nodes = (
(184,722,l),
(529,659,l),
(529,693,o),
(555,737,o),
(584,761,c),
(287,919,l),
(270,886,o),
(252,852,o),
(235,819,cs)
);
},
{
closed = 1;
nodes = (
(1073,918,l),
(715,757,l),
(725,745,o),
(731,730,o),
(733,711,cs),
(735,691,o),
(733,672,o),
(727,654,c),
(1097,720,l)
);
},
{
closed = 1;
nodes = (
(923,383,l),
(721,644,l),
(701,615,o),
(655,586,o),
(621,582,c),
(731,262,l)
);
},
{
closed = 1;
nodes = (
(607,583,l),
(572,585,o),
(541,618,o),
(532,646,c),
(229,383,l),
(302,321,ls),
(326,301,o),
(349,282,o),
(373,262,c)
);
}
);
width = 1218;
},
{
layerId = "01EADDEA-E3EA-45FB-B4A5-8F079D2A3A41";
shapes = (
{
closed = 1;
nodes = (
(539,1228,l),
(553,870,l),
(577,882,o),
(600,887,o),
(621,887,cs),
(642,887,o),
(663,882,o),
(685,870,c),
(842,1228,l)
);
},
{
closed = 1;
nodes = (
(107,769,l),
(462,728,l),
(470,778,o),
(482,813,o),
(528,854,c),
(258,1058,l),
(233,1009,o),
(207,961,o),
(182,914,cs)
);
},
{
closed = 1;
nodes = (
(1054,1058,l),
(703,854,l),
(728,821,o),
(736,785,o),
(726,744,c),
(724,742,o),
(721,737,o),
(719,730,c),
(1094,771,l)
);
},
{
closed = 1;
nodes = (
(938,466,l),
(705,703,l),
(673,660,o),
(635,637,o),
(584,625,c),
(655,285,l)
);
},
{
closed = 1;
nodes = (
(556,626,l),
(509,636,o),
(481,658,o),
(465,702,c),
(137,464,l),
(199,412,ls),
(249,370,o),
(298,329,o),
(348,286,c)
);
}
);
width = 1118;
},
{
layerId = "ED340520-5A40-405B-AFF7-E5EF9D999D24";
shapes = (
{
closed = 1;
nodes = (
(559,1202,l),
(564,844,l),
(586,855,o),
(608,860,o),
(629,860,cs),
(650,860,o),
(670,855,o),
(690,844,c),
(838,1202,l)
);
},
{
closed = 1;
nodes = (
(126,757,l),
(479,711,l),
(485,757,o),
(500,794,o),
(542,831,c),
(265,1023,l),
(242,978,o),
(218,934,o),
(195,890,cs)
);
},
{
closed = 1;
nodes = (
(1059,1023,l),
(706,830,l),
(727,802,o),
(735,771,o),
(728,736,c),
(727,729,o),
(724,721,o),
(721,711,c),
(1095,758,l)
);
},
{
closed = 1;
nodes = (
(934,445,l),
(709,688,l),
(680,649,o),
(640,624,o),
(593,614,c),
(674,279,l)
);
},
{
closed = 1;
nodes = (
(569,615,l),
(525,623,o),
(496,648,o),
(482,688,c),
(160,444,l),
(225,389,ls),
(268,353,o),
(311,317,o),
(354,280,c)
);
}
);
width = 1143;
}
);
unicode = 42;
},
{
glyphname = plus;
layers = (
{
layerId = "5E5F26D6-8E6E-4FD0-9F5C-925EECC75CBD";
shapes = (
{
closed = 1;
nodes = (
(452,99,l),
(585,99,l),
(670,526,l),
(1098,526,l),
(1125,658,l),
(697,658,l),
(783,1086,l),
(650,1086,l),
(565,658,l),
(138,658,l),
(111,526,l),
(538,526,l)
);
}
);
width = 1225;
},
{
layerId = "802D032B-EE86-4213-9785-3BFE9E181E39";
shapes = (
{
closed = 1;
nodes = (
(441,99,l),
(589,99,l),
(673,518,l),
(1093,518,l),
(1123,666,l),
(703,666,l),
(787,1086,l),
(639,1086,l),
(555,666,l),
(136,666,l),
(106,518,l),
(525,518,l)
);
}
);
width = 1218;
},
{
layerId = "01EADDEA-E3EA-45FB-B4A5-8F079D2A3A41";
shapes = (
{
closed = 1;
nodes = (
(396,99,l),
(606,99,l),
(684,487,l),
(1072,487,l),
(1114,698,l),
(726,698,l),
(804,1086,l),
(594,1086,l),
(515,698,l),
(127,698,l),
(85,487,l),
(473,487,l)
);
}
);
width = 1189;
},
{
layerId = "ED340520-5A40-405B-AFF7-E5EF9D999D24";
shapes = (
{
closed = 1;
nodes = (
(407,99,l),
(602,99,l),
(681,495,l),
(1077,495,l),
(1116,690,l),
(720,690,l),
(800,1086,l),
(605,1086,l),
(525,690,l),
(129,690,l),
(90,495,l),
(486,495,l)
);
}
);
width = 1196;
}
);
unicode = 43;
},
{
glyphname = comma;
layers = (
{
layerId = "5E5F26D6-8E6E-4FD0-9F5C-925EECC75CBD";
shapes = (
{
closed = 1;
nodes = (
(58,-350,l),
(205,-350,o),
(304,-226,o),
(354,20,cs),
(394,222,l),
(172,222,l),
(128,0,l),
(215,0,l),
(212,-16,ls),
(180,-173,o),
(133,-264,o),
(69,-288,c)
);
}
);
width = 704;
},
{
layerId = "802D032B-EE86-4213-9785-3BFE9E181E39";
shapes = (
{
closed = 1;
nodes = (
(29,-350,l),
(193,-350,o),
(301,-222,o),
(352,33,cs),
(395,247,l),
(148,247,l),
(99,0,l),
(195,0,l),
(191,-20,ls),
(160,-172,o),
(111,-258,o),
(43,-276,c)
);
}
);
width = 670;
},
{
layerId = "01EADDEA-E3EA-45FB-B4A5-8F079D2A3A41";
shapes = (
{
closed = 1;
nodes = (
(-87,-350,l),
(146,-350,o),
(288,-205,o),
(345,85,cs),
(398,346,l),
(52,346,l),
(-17,0,l),
(115,0,l),
(107,-36,l),
(81,-169,o),
(24,-233,o),
(-62,-227,c)
);
}
);
width = 535;
},
{
layerId = "ED340520-5A40-405B-AFF7-E5EF9D999D24";
shapes = (
{
closed = 1;
nodes = (
(-58,-350,l),
(158,-350,o),
(291,-209,o),
(347,72,cs),
(397,321,l),
(76,321,l),
(12,0,l),
(135,0,l),
(128,-32,ls),
(101,-170,o),
(46,-239,o),
(-36,-239,c)
);
}
);
width = 569;
}
);
unicode = 44;
},
{
glyphname = hyphen;
layers = (
{
layerId = "5E5F26D6-8E6E-4FD0-9F5C-925EECC75CBD";
shapes = (
{
closed = 1;
nodes = (
(111,526,l),
(1099,526,l),
(1126,658,l),
(138,658,l)
);
}
);
width = 1225;
},
{
layerId = "802D032B-EE86-4213-9785-3BFE9E181E39";
shapes = (
{
closed = 1;
nodes = (
(106,518,l),
(1094,518,l),
(1124,666,l),
(136,666,l)
);
}
);
width = 1218;
},
{
layerId = "01EADDEA-E3EA-45FB-B4A5-8F079D2A3A41";
shapes = (
{
closed = 1;
nodes = (
(85,487,l),
(1073,487,l),
(1115,698,l),
(127,698,l)
);
}
);
width = 1189;
},
{
layerId = "ED340520-5A40-405B-AFF7-E5EF9D999D24";
shapes = (
{
closed = 1;
nodes = (
(90,495,l),
(1078,495,l),
(1117,690,l),
(129,690,l)
);
}
);
width = 1196;
}
);
unicode = 45;
},
{
glyphname = period;
layers = (
{
layerId = "5E5F26D6-8E6E-4FD0-9F5C-925EECC75CBD";
shapes = (
{
closed = 1;
nodes = (
(128,0,l),
(364,0,l),
(410,236,l),
(175,236,l)
);
}
);
width = 704;
},
{
layerId = "802D032B-EE86-4213-9785-3BFE9E181E39";
shapes = (
{
closed = 1;
nodes = (
(99,0,l),
(356,0,l),
(407,257,l),
(150,257,l)
);
}
);
width = 670;
},
{
layerId = "01EADDEA-E3EA-45FB-B4A5-8F079D2A3A41";
shapes = (
{
closed = 1;
nodes = (
(-17,0,l),
(325,0,l),
(394,342,l),
(51,342,l)
);
}
);
width = 535;
},
{
layerId = "ED340520-5A40-405B-AFF7-E5EF9D999D24";
shapes = (
{
closed = 1;
nodes = (
(12,0,l),
(333,0,l),
(397,321,l),
(76,321,l)
);
}
);
width = 569;
}
);
unicode = 46;
},
{
glyphname = slash;
layers = (
{
layerId = "5E5F26D6-8E6E-4FD0-9F5C-925EECC75CBD";
shapes = (
{
closed = 1;
nodes = (
(-125,-146,l),
(14,-146,l),
(772,1505,l),
(632,1505,l)
);
}
);
width = 598;
},
{
layerId = "802D032B-EE86-4213-9785-3BFE9E181E39";
shapes = (
{
closed = 1;
nodes = (
(-128,-140,l),
(26,-140,l),
(763,1480,l),
(608,1480,l)
);
}
);
width = 591;
},
{
layerId = "01EADDEA-E3EA-45FB-B4A5-8F079D2A3A41";
shapes = (
{
closed = 1;
nodes = (
(-139,-117,l),
(75,-117,l),
(728,1381,l),
(513,1381,l)
);
}
);
width = 562;
},
{
layerId = "ED340520-5A40-405B-AFF7-E5EF9D999D24";
shapes = (
{
closed = 1;
nodes = (
(-136,-123,l),
(63,-123,l),
(737,1406,l),
(537,1406,l)
);
}
);
width = 569;
}
);
unicode = 47;
},
{
glyphname = zero;
layers = (
{
layerId = "5E5F26D6-8E6E-4FD0-9F5C-925EECC75CBD";
shapes = (
{
closed = 1;
nodes = (
(790,-37,o),
(979,182,o),
(1100,685,cs),
(1140,860,o),
(1157,1010,o),
(1154,1128,c),
(1138,1387,o),
(1012,1517,o),
(774,1517,cs),
(447,1517,o),
(257,1300,o),
(139,796,cs),
(97,618,o),
(79,471,o),
(81,353,c),
(96,93,o),
(224,-37,o),
(463,-37,cs)
);
},
{
closed = 1;
nodes = (
(962,985,l),
(959,944,o),
(955,903,o),
(949,862,cs),
(892,503,o),
(801,267,o),
(667,151,cs),
(626,116,o),
(578,93,o),
(522,82,c),
(364,66,o),
(282,162,o),
(276,374,c)
);
},
{
closed = 1;
nodes = (
(278,497,l),
(280,565,o),
(287,622,o),
(301,702,cs),
(387,1155,o),
(535,1381,o),
(747,1381,cs),
(881,1381,o),
(953,1289,o),
(963,1106,c)
);
}
);
width = 1168;
},
{
layerId = "802D032B-EE86-4213-9785-3BFE9E181E39";
shapes = (
{
closed = 1;
nodes = (
(785,-37,o),
(1001,221,o),
(1105,741,cs),
(1139,912,o),
(1148,1057,o),
(1134,1172,cs),
(1107,1402,o),
(986,1517,o),
(771,1517,cs),
(444,1517,o),
(229,1257,o),
(127,741,cs),
(92,568,o),
(82,424,o),
(95,309,cs),
(121,78,o),
(243,-37,o),
(460,-37,cs)
);
},
{
closed = 1;
nodes = (
(932,961,l),
(929,925,o),
(925,888,o),
(919,851,cs),
(859,470,o),
(758,237,o),
(622,150,cs),
(581,124,o),
(537,111,o),
(490,111,cs),
(363,111,o),
(298,205,o),
(296,395,c)
);
},
{
closed = 1;
nodes = (
(301,521,l),
(305,590,o),
(315,659,o),
(331,740,cs),
(415,1159,o),
(551,1369,o),
(741,1369,cs),
(867,1369,o),
(932,1274,o),
(936,1086,c)
);
}
);
width = 1161;
},
{
layerId = "01EADDEA-E3EA-45FB-B4A5-8F079D2A3A41";
shapes = (
{
closed = 1;
nodes = (
(764,-37,o),
(1089,378,o),
(1126,964,cs),
(1135,1119,o),
(1111,1246,o),
(1054,1349,c),
(982,1461,o),
(882,1517,o),
(758,1517,cs),
(431,1517,o),
(116,1086,o),
(79,520,cs),
(71,367,o),
(94,237,o),
(150,133,c),
(222,19,o),
(320,-37,o),
(447,-37,cs)
);
},
{
closed = 1;
nodes = (
(811,866,l),
(808,848,o),
(804,828,o),
(800,807,c),
(726,339,o),
(586,118,o),
(442,147,c),
(402,156,o),
(374,182,o),
(361,226,c),
(359,291,o),
(363,376,o),
(375,478,c)
);
},
{
closed = 1;
nodes = (
(392,616,l),
(404,691,o),
(427,806,o),
(451,891,c),
(526,1176,o),
(614,1320,o),
(718,1320,cs),
(811,1320,o),
(847,1215,o),
(828,1005,c)
);
}
);
width = 1132;
},
{
layerId = "ED340520-5A40-405B-AFF7-E5EF9D999D24";
shapes = (
{
closed = 1;
nodes = (
(769,-37,o),
(1067,339,o),
(1121,908,cs),
(1136,1067,o),
(1120,1199,o),
(1074,1305,cs),
(1013,1446,o),
(908,1517,o),
(761,1517,cs),
(434,1517,o),
(144,1129,o),
(91,575,cs),
(76,417,o),
(91,284,o),
(136,177,cs),
(197,34,o),
(301,-37,o),
(450,-37,cs)
);
},
{
closed = 1;
nodes = (
(841,890,l),
(838,867,o),
(834,843,o),
(830,818,cs),
(759,372,o),
(629,148,o),
(487,148,cs),
(447,148,o),
(415,164,o),
(393,197,cs),
(360,246,o),
(347,333,o),
(355,457,c)
);
},
{
closed = 1;
nodes = (
(369,592,l),
(379,666,o),
(399,769,o),
(421,853,c),
(498,1172,o),
(598,1332,o),
(724,1332,cs),
(825,1332,o),
(868,1230,o),
(855,1025,c)
);
}
);
width = 1139;
}
);
unicode = 48;
},
{
glyphname = one;
layers = (
{
layerId = "5E5F26D6-8E6E-4FD0-9F5C-925EECC75CBD";
shapes = (
{
closed = 1;
nodes = (
(122,0,l),
(933,0,l),
(960,140,l),
(637,140,l),
(913,1517,l),
(400,1396,l),
(372,1252,l),
(710,1333,l),
(472,140,l),
(149,140,l)
);
}
);
width = 1168;
},
{
layerId = "802D032B-EE86-4213-9785-3BFE9E181E39";
shapes = (
{
closed = 1;
nodes = (
(109,0,l),
(939,0,l),
(968,148,l),
(652,148,l),
(926,1517,l),
(386,1389,l),
(356,1237,l),
(687,1316,l),
(454,148,l),
(138,148,l)
);
}
);
width = 1161;
},
{
layerId = "01EADDEA-E3EA-45FB-B4A5-8F079D2A3A41";
shapes = (
{
closed = 1;
nodes = (
(57,0,l),
(964,0,l),
(1000,181,l),
(711,181,l),
(978,1517,l),
(329,1362,l),
(291,1176,l),
(595,1248,l),
(382,181,l),
(93,181,l)
);
}
);
width = 1132;
},
{
layerId = "ED340520-5A40-405B-AFF7-E5EF9D999D24";
shapes = (
{
closed = 1;
nodes = (
(70,0,l),
(958,0,l),
(992,173,l),
(696,173,l),
(965,1517,l),
(343,1369,l),
(307,1191,l),
(618,1265,l),
(400,173,l),
(104,173,l)
);
}
);
width = 1139;
}
);
unicode = 49;
},
{
glyphname = two;
layers = (
{
layerId = "5E5F26D6-8E6E-4FD0-9F5C-925EECC75CBD";
shapes = (
{
closed = 1;
nodes = (
(13,0,l),
(812,0,l),
(842,153,l),
(249,153,l),
(308,293,o),
(423,431,o),
(592,563,cs),
(661,618,ls),
(929,826,o),
(1003,921,o),
(1041,1102,cs),
(1092,1353,o),
(961,1517,o),
(722,1517,cs),
(600,1517,o),
(470,1485,o),
(333,1421,c),
(301,1261,l),
(453,1344,o),
(577,1385,o),
(672,1385,cs),
(836,1385,o),
(903,1289,o),
(865,1100,cs),
(828,924,o),
(651,756,o),
(470,602,cs),
(354,503,ls),
(211,378,o),
(107,262,o),
(43,153,c)
);
}
);
width = 1168;
},
{
layerId = "802D032B-EE86-4213-9785-3BFE9E181E39";
shapes = (
{
closed = 1;
nodes = (
(1,0,l),
(832,0,l),
(866,173,l),
(273,173,l),
(326,303,o),
(435,432,o),
(599,558,cs),
(680,620,ls),
(945,823,o),
(1023,922,o),
(1060,1101,cs),
(1111,1355,o),
(974,1517,o),
(720,1517,cs),
(598,1517,o),
(465,1486,o),
(322,1424,c),
(287,1250,l),
(441,1330,o),
(566,1370,o),
(661,1370,cs),
(821,1370,o),
(885,1279,o),
(849,1099,cs),
(813,925,o),
(666,786,o),
(461,612,cs),
(331,502,ls),
(200,388,o),
(101,279,o),
(35,173,c)
);
}
);
width = 1161;
},
{
layerId = "01EADDEA-E3EA-45FB-B4A5-8F079D2A3A41";
shapes = (
{
closed = 1;
nodes = (
(-47,0,l),
(913,0,l),
(963,254,l),
(370,254,l),
(397,342,o),
(483,436,o),
(627,539,cs),
(755,629,ls),
(1009,812,o),
(1102,925,o),
(1136,1097,cs),
(1188,1364,o),
(1026,1517,o),
(713,1517,cs),
(591,1517,o),
(446,1490,o),
(278,1436,c),
(231,1205,l),
(392,1275,o),
(521,1311,o),
(616,1311,cs),
(760,1311,o),
(814,1239,o),
(785,1094,cs),
(753,929,o),
(726,907,o),
(424,653,cs),
(240,497,ls),
(157,427,o),
(78,346,o),
(3,254,c)
);
}
);
width = 1132;
},
{
layerId = "ED340520-5A40-405B-AFF7-E5EF9D999D24";
shapes = (
{
closed = 1;
nodes = (
(-35,0,l),
(893,0,l),
(939,234,l),
(346,234,l),
(379,332,o),
(471,435,o),
(620,544,cs),
(736,627,ls),
(993,815,o),
(1082,924,o),
(1117,1098,cs),
(1169,1362,o),
(1013,1517,o),
(715,1517,cs),
(593,1517,o),
(451,1489,o),
(289,1433,c),
(245,1216,l),
(404,1289,o),
(532,1326,o),
(627,1326,cs),
(775,1326,o),
(832,1249,o),
(801,1095,cs),
(768,928,o),
(711,877,o),
(433,643,cs),
(263,498,ls),
(168,417,o),
(84,329,o),
(11,234,c)
);
}
);
width = 1139;
}
);
unicode = 50;
},
{
glyphname = three;
layers = (
{
layerId = "5E5F26D6-8E6E-4FD0-9F5C-925EECC75CBD";
shapes = (
{
closed = 1;
nodes = (
(63,11,l),
(202,-21,o),
(306,-37,o),
(370,-37,cs),
(650,-37,o),
(862,129,o),
(929,393,cs),
(981,611,o),
(890,748,o),
(660,805,c),
(866,877,o),
(989,992,o),
(1033,1154,c),
(1092,1399,o),
(977,1517,o),
(680,1517,cs),
(602,1517,o),
(500,1498,o),
(373,1460,c),
(339,1298,l),
(479,1353,o),
(586,1381,o),
(662,1381,cs),
(829,1381,o),
(900,1305,o),
(869,1155,cs),
(849,1058,o),
(795,978,o),
(710,923,cs),
(598,852,o),
(496,847,o),
(367,847,c),
(343,729,l),
(430,729,ls),
(664,729,o),
(791,603,o),
(753,408,cs),
(711,201,o),
(584,99,o),
(373,99,cs),
(305,99,o),
(216,127,o),
(96,182,c)
);
}
);
width = 1168;
},
{
layerId = "802D032B-EE86-4213-9785-3BFE9E181E39";
shapes = (
{
closed = 1;
nodes = (
(54,11,l),
(188,-21,o),
(293,-37,o),
(369,-37,cs),
(663,-37,o),
(892,137,o),
(946,410,cs),
(987,616,o),
(894,747,o),
(668,802,c),
(888,876,o),
(1015,999,o),
(1050,1172,cs),
(1096,1402,o),
(975,1517,o),
(687,1517,cs),
(596,1517,o),
(488,1497,o),
(363,1458,c),
(328,1286,l),
(459,1341,o),
(566,1369,o),
(649,1369,cs),
(810,1369,o),
(878,1295,o),
(848,1147,cs),
(829,1056,o),
(782,982,o),
(708,931,cs),
(609,863,o),
(503,852,o),
(359,852,c),
(332,719,l),
(410,719,ls),
(658,719,o),
(774,604,o),
(734,403,cs),
(695,208,o),
(575,111,o),
(375,111,cs),
(306,111,o),
(213,140,o),
(90,195,c)
);
}
);
width = 1161;
},
{
layerId = "01EADDEA-E3EA-45FB-B4A5-8F079D2A3A41";
shapes = (
{
closed = 1;
nodes = (
(18,11,l),
(131,-20,o),
(242,-37,o),
(365,-37,cs),
(714,-37,o),
(1013,170,o),
(1013,478,c),
(1012,637,o),
(909,742,o),
(701,791,c),
(975,873,o),
(1118,1027,o),
(1119,1245,c),
(1113,1415,o),
(967,1517,o),
(716,1517,cs),
(571,1517,o),
(440,1494,o),
(324,1449,c),
(283,1237,l),
(379,1293,o),
(485,1321,o),
(598,1321,cs),
(733,1321,o),
(791,1255,o),
(763,1115,cs),
(750,1049,o),
(729,999,o),
(700,964,cs),
(653,907,o),
(532,872,o),
(327,872,c),
(288,680,l),
(330,680,ls),
(634,680,o),
(706,608,o),
(659,384,cs),
(630,235,o),
(538,160,o),
(384,160,cs),
(309,160,o),
(202,191,o),
(65,246,c)
);
}
);
width = 1132;
},
{
layerId = "ED340520-5A40-405B-AFF7-E5EF9D999D24";
shapes = (
{
closed = 1;
nodes = (
(27,11,l),
(145,-20,o),
(255,-37,o),
(366,-37,cs),
(701,-37,o),
(983,162,o),
(996,461,cs),
(1006,632,o),
(905,743,o),
(693,794,c),
(953,874,o),
(1092,1020,o),
(1102,1227,cs),
(1109,1412,o),
(969,1517,o),
(709,1517,cs),
(577,1517,o),
(452,1495,o),
(334,1451,c),
(294,1249,l),
(399,1305,o),
(505,1333,o),
(611,1333,cs),
(752,1333,o),
(813,1265,o),
(784,1123,cs),
(770,1051,o),
(742,995,o),
(702,956,cs),
(642,896,o),
(525,867,o),
(335,867,c),
(299,690,l),
(350,690,ls),
(640,690,o),
(723,607,o),
(678,389,cs),
(646,228,o),
(547,148,o),
(382,148,cs),
(308,148,o),
(205,178,o),
(71,233,c)
);
}
);
width = 1139;
}
);
unicode = 51;
},
{
glyphname = four;
layers = (
{
layerId = "5E5F26D6-8E6E-4FD0-9F5C-925EECC75CBD";
shapes = (
{
closed = 1;
nodes = (
(596,0,l),
(756,0,l),
(841,427,l),
(1059,427,l),
(1087,568,l),
(868,568,l),
(1051,1480,l),
(895,1480,l),
(43,552,l),
(18,427,l),
(680,427,l)
);
},
{
closed = 1;
nodes = (
(224,568,l),
(861,1252,l),
(723,568,l)
);
}
);
width = 1168;
},
{
layerId = "802D032B-EE86-4213-9785-3BFE9E181E39";
shapes = (
{
closed = 1;
nodes = (
(587,0,l),
(772,0,l),
(855,419,l),
(1053,419,l),
(1085,580,l),
(887,580,l),
(1067,1480,l),
(882,1480,l),
(43,568,l),
(13,419,l),
(670,419,l)
);
},
{
closed = 1;
nodes = (
(238,580,l),
(847,1238,l),
(715,580,l)
);
}
);
width = 1161;
},
{
layerId = "01EADDEA-E3EA-45FB-B4A5-8F079D2A3A41";
shapes = (
{
closed = 1;
nodes = (
(552,0,l),
(836,0,l),
(912,387,l),
(1028,387,l),
(1077,629,l),
(962,629,l),
(1131,1480,l),
(831,1480,l),
(42,633,l),
(-8,387,l),
(629,387,l)
);
},
{
closed = 1;
nodes = (
(294,629,l),
(792,1183,l),
(682,629,l)
);
}
);
width = 1132;
},
{
layerId = "ED340520-5A40-405B-AFF7-E5EF9D999D24";
shapes = (
{
closed = 1;
nodes = (
(561,0,l),
(820,0,l),
(898,395,l),
(1034,395,l),
(1079,617,l),
(943,617,l),
(1115,1480,l),
(844,1480,l),
(42,617,l),
(-3,395,l),
(639,395,l)
);
},
{
closed = 1;
nodes = (
(280,617,l),
(806,1197,l),
(690,617,l)
);
}
);
width = 1139;
}
);
unicode = 52;
},
{
glyphname = five;
layers = (
{
layerId = "5E5F26D6-8E6E-4FD0-9F5C-925EECC75CBD";
shapes = (
{
closed = 1;
nodes = (
(69,-10,l),
(45,-5,l),
(136,-25,o),
(215,-37,o),
(294,-37,cs),
(528,-37,o),
(731,37,o),
(855,220,cs),
(925,324,o),
(965,505,o),
(943,626,c),
(907,789,o),
(770,889,o),
(511,889,cs),
(434,889,l),
(522,1329,l),
(1087,1329,l),
(1117,1480,l),
(392,1480,l),
(246,748,l),
(432,748,ls),
(647,748,o),
(746,677,o),
(767,569,cs),
(774,530,o),
(774,487,o),
(764,439,cs),
(715,219,o),
(590,99,o),
(366,99,cs),
(284,99,o),
(193,116,o),
(102,153,c)
);
}
);
width = 1168;
},
{
layerId = "802D032B-EE86-4213-9785-3BFE9E181E39";
shapes = (
{
closed = 1;
nodes = (
(60,-6,l),
(151,-26,o),
(231,-37,o),
(308,-37,cs),
(534,-37,o),
(738,40,o),
(863,218,cs),
(939,326,o),
(980,509,o),
(955,631,c),
(916,801,o),
(761,893,o),
(503,893,cs),
(438,893,l),
(521,1308,l),
(1096,1308,l),
(1130,1480,l),
(382,1480,l),
(235,742,l),
(405,742,ls),
(619,742,o),
(724,677,o),
(745,563,cs),
(752,525,o),
(751,482,o),
(741,434,cs),
(697,231,o),
(570,111,o),
(364,111,cs),
(276,111,o),
(186,130,o),
(95,170,c)
);
}
);
width = 1161;
},
{
layerId = "01EADDEA-E3EA-45FB-B4A5-8F079D2A3A41";
shapes = (
{
closed = 1;
nodes = (
(24,10,l),
(120,-11,ls),
(210,-31,o),
(294,-37,o),
(363,-37,cs),
(558,-37,o),
(767,51,o),
(894,209,cs),
(994,333,o),
(1040,524,o),
(1004,651,c),
(951,849,o),
(724,909,o),
(472,909,cs),
(453,909,l),
(516,1225,l),
(1131,1225,l),
(1182,1480,l),
(343,1480,l),
(191,718,l),
(297,718,ls),
(506,718,o),
(636,677,o),
(657,540,cs),
(663,505,o),
(659,463,o),
(649,415,c),
(625,280,o),
(491,160,o),
(356,160,cs),
(245,160,o),
(159,186,o),
(68,237,c)
);
}
);
width = 1132;
},
{
layerId = "ED340520-5A40-405B-AFF7-E5EF9D999D24";
shapes = (
{
closed = 1;
nodes = (
(33,6,l),
(105,-10,l),
(195,-30,o),
(278,-37,o),
(349,-37,cs),
(552,-37,o),
(760,48,o),
(886,211,cs),
(980,331,o),
(1025,520,o),
(992,646,c),
(942,837,o),
(733,905,o),
(480,905,cs),
(449,905,l),
(517,1246,l),
(1122,1246,l),
(1169,1480,l),
(353,1480,l),
(202,724,l),
(324,724,ls),
(534,724,o),
(658,677,o),
(679,546,cs),
(685,510,o),
(682,468,o),
(672,420,cs),
(643,268,o),
(511,148,o),
(358,148,cs),
(253,148,o),
(166,172,o),
(75,220,c)
);
}
);
width = 1139;
}
);
unicode = 53;
},
{
glyphname = six;
layers = (
{
layerId = "5E5F26D6-8E6E-4FD0-9F5C-925EECC75CBD";
shapes = (
{
closed = 1;
nodes = (
(335,780,l),
(423,1215,o),
(603,1382,o),
(837,1382,cs),
(904,1382,o),
(990,1355,o),
(1095,1302,c),
(1127,1459,l),
(1043,1498,o),
(957,1518,o),
(870,1518,cs),
(510,1518,o),
(256,1221,o),
(140,725,cs),
(38,260,o),
(155,-37,o),
(456,-37,cs),
(742,-37,o),
(928,136,o),
(1011,451,c),
(1081,759,o),
(971,949,o),
(718,949,cs),
(574,949,o),
(445,888,o),
(332,768,c)
);
},
{
closed = 1;
nodes = (
(791,209,o),
(681,99,o),
(506,99,cs),
(422,99,o),
(360,132,o),
(316,201,c),
(269,279,o),
(258,377,o),
(284,500,cs),
(322,692,o),
(463,820,o),
(648,820,cs),
(824,820,o),
(887,691,o),
(836,433,cs)
);
}
);
width = 1168;
},
{
layerId = "802D032B-EE86-4213-9785-3BFE9E181E39";
shapes = (
{
closed = 1;
nodes = (
(355,793,ls),
(432,1176,o),
(599,1370,o),
(842,1370,cs),
(908,1370,o),
(995,1343,o),
(1103,1290,c),
(1138,1462,l),
(1047,1499,o),
(958,1518,o),
(872,1518,cs),
(503,1518,o),
(223,1205,o),
(120,690,cs),
(31,242,o),
(157,-37,o),
(459,-37,cs),
(754,-37,o),
(955,151,o),
(1023,487,cs),
(1079,774,o),
(965,950,o),
(721,950,cs),
(585,950,o),
(462,892,o),
(352,778,c)
);
},
{
closed = 1;
nodes = (
(775,220,o),
(671,111,o),
(507,111,cs),
(424,111,o),
(365,146,o),
(326,218,cs),
(287,290,o),
(279,379,o),
(302,491,cs),
(340,680,o),
(473,808,o),
(646,808,cs),
(810,808,o),
(868,685,o),
(819,440,cs)
);
}
);
width = 1161;
},
{
layerId = "01EADDEA-E3EA-45FB-B4A5-8F079D2A3A41";
shapes = (
{
closed = 1;
nodes = (
(436,845,l),
(469,1020,o),
(584,1321,o),
(862,1321,cs),
(924,1321,o),
(1015,1295,o),
(1135,1243,c),
(1181,1474,l),
(1063,1503,o),
(963,1517,o),
(879,1517,cs),
(475,1517,o),
(90,1141,o),
(40,549,cs),
(4,170,o),
(164,-37,o),
(470,-37,cs),
(803,-37,o),
(1063,212,o),
(1072,630,c),
(1070,835,o),
(940,954,o),
(734,954,cs),
(630,954,o),
(530,909,o),
(432,818,c)
);
},
{
closed = 1;
nodes = (
(710,263,o),
(632,160,o),
(512,160,cs),
(431,160,o),
(386,202,o),
(366,287,c),
(360,333,o),
(363,388,o),
(375,455,c),
(413,632,o),
(512,759,o),
(637,759,cs),
(754,759,o),
(791,661,o),
(751,467,cs)
);
}
);
width = 1132;
},
{
layerId = "ED340520-5A40-405B-AFF7-E5EF9D999D24";
shapes = (
{
closed = 1;
nodes = (
(416,832,l),
(460,1059,o),
(588,1333,o),
(857,1333,cs),
(920,1333,o),
(1010,1307,o),
(1127,1255,c),
(1170,1471,l),
(1059,1502,o),
(962,1517,o),
(877,1517,cs),
(482,1517,o),
(123,1157,o),
(60,584,cs),
(11,188,o),
(162,-37,o),
(467,-37,cs),
(791,-37,o),
(1036,197,o),
(1060,594,cs),
(1072,820,o),
(946,953,o),
(731,953,cs),
(619,953,o),
(513,905,o),
(412,808,c)
);
},
{
closed = 1;
nodes = (
(726,252,o),
(642,148,o),
(511,148,cs),
(429,148,o),
(381,188,o),
(356,270,c),
(342,322,o),
(342,386,o),
(357,464,c),
(395,644,o),
(502,771,o),
(639,771,cs),
(768,771,o),
(810,667,o),
(768,460,cs)
);
}
);
width = 1139;
}
);
unicode = 54;
},
{
glyphname = seven;
layers = (
{
layerId = "5E5F26D6-8E6E-4FD0-9F5C-925EECC75CBD";
shapes = (
{
closed = 1;
nodes = (
(333,0,l),
(445,292,o),
(755,731,o),
(1262,1313,c),
(1295,1480,l),
(341,1480,l),
(308,1313,l),
(1092,1313,l),
(660,790,ls),
(626,750,o),
(590,705,o),
(551,658,c),
(320,346,o),
(260,265,o),
(160,0,c)
);
}
);
width = 1168;
},
{
layerId = "802D032B-EE86-4213-9785-3BFE9E181E39";
shapes = (
{
closed = 1;
nodes = (
(348,0,l),
(452,303,o),
(751,735,o),
(1243,1295,c),
(1280,1480,l),
(330,1480,l),
(293,1295,l),
(1055,1295,l),
(654,808,ls),
(609,754,o),
(565,699,o),
(521,645,c),
(291,338,o),
(226,246,o),
(136,0,c)
);
}
);
width = 1161;
},
{
layerId = "01EADDEA-E3EA-45FB-B4A5-8F079D2A3A41";
shapes = (
{
closed = 1;
nodes = (
(408,0,l),
(481,346,o),
(735,752,o),
(1167,1222,c),
(1219,1480,l),
(285,1480,l),
(233,1222,l),
(907,1222,l),
(629,879,ls),
(541,771,o),
(465,676,o),
(401,594,cs),
(174,306,o),
(90,170,o),
(40,0,c)
);
}
);
width = 1132;
},
{
layerId = "ED340520-5A40-405B-AFF7-E5EF9D999D24";
shapes = (
{
closed = 1;
nodes = (
(393,0,l),
(474,335,o),
(739,748,o),
(1186,1240,c),
(1234,1480,l),
(296,1480,l),
(248,1240,l),
(944,1240,l),
(635,861,ls),
(558,767,o),
(490,682,o),
(431,607,cs),
(203,314,o),
(124,189,o),
(64,0,c)
);
}
);
width = 1139;
}
);
unicode = 55;
},
{
glyphname = eight;
layers = (
{
layerId = "5E5F26D6-8E6E-4FD0-9F5C-925EECC75CBD";
shapes = (
{
closed = 1;
nodes = (
(260,708,o),
(126,555,o),
(82,396,c),
(19,134,o),
(185,-37,o),
(487,-37,cs),
(775,-37,o),
(1021,132,o),
(1070,375,cs),
(1104,547,o),
(1010,705,o),
(807,804,c),
(1017,921,o),
(1138,1042,o),
(1175,1174,c),
(1226,1381,o),
(1081,1517,o),
(831,1517,cs),
(573,1517,o),
(352,1358,o),
(308,1140,cs),
(287,1029,o),
(345,897,o),
(468,809,c)
);
},
{
closed = 1;
nodes = (
(494,988,o),
(447,1065,o),
(469,1178,cs),
(492,1295,o),
(619,1381,o),
(778,1381,cs),
(946,1381,o),
(1044,1296,o),
(1019,1169,cs),
(998,1062,o),
(897,957,o),
(722,858,c)
);
},
{
closed = 1;
nodes = (
(680,652,ls),
(862,540,o),
(907,470,o),
(884,354,cs),
(854,201,o),
(698,100,o),
(516,100,cs),
(328,100,o),
(218,222,o),
(254,397,cs),
(283,540,o),
(331,593,o),
(547,735,c)
);
}
);
width = 1168;
},
{
layerId = "802D032B-EE86-4213-9785-3BFE9E181E39";
shapes = (
{
closed = 1;
nodes = (
(233,690,o),
(106,544,o),
(71,370,cs),
(21,122,o),
(185,-37,o),
(477,-37,cs),
(768,-37,o),
(1014,135,o),
(1064,383,cs),
(1098,554,o),
(1015,696,o),
(814,806,c),
(1021,924,o),
(1139,1053,o),
(1167,1194,cs),
(1205,1390,o),
(1063,1517,o),
(822,1517,cs),
(561,1517,o),
(346,1362,o),
(302,1140,cs),
(278,1019,o),
(328,904,o),
(453,806,c)
);
},
{
closed = 1;
nodes = (
(518,993,o),
(466,1066,o),
(488,1176,cs),
(511,1291,o),
(623,1369,o),
(770,1369,cs),
(924,1369,o),
(1007,1289,o),
(982,1163,cs),
(961,1057,o),
(871,958,o),
(716,868,c)
);
},
{
closed = 1;
nodes = (
(667,643,ls),
(840,526,o),
(878,467,o),
(855,352,cs),
(826,208,o),
(683,111,o),
(515,111,cs),
(335,111,o),
(239,224,o),
(274,396,cs),
(301,533,o),
(355,598,o),
(544,726,c)
);
}
);
width = 1161;
},
{
layerId = "01EADDEA-E3EA-45FB-B4A5-8F079D2A3A41";
shapes = (
{
closed = 1;
nodes = (
(125,617,o),
(27,499,o),
(26,267,c),
(30,75,o),
(185,-37,o),
(436,-37,cs),
(739,-37,o),
(986,147,o),
(1041,414,cs),
(1075,581,o),
(1035,660,o),
(843,815,c),
(1037,936,o),
(1143,1096,o),
(1134,1274,c),
(1121,1427,o),
(991,1517,o),
(785,1517,cs),
(514,1517,o),
(321,1378,o),
(277,1139,c),
(243,980,o),
(260,933,o),
(393,794,c)
);
},
{
closed = 1;
nodes = (
(613,1012,o),
(543,1070,o),
(564,1167,cs),
(586,1274,o),
(639,1320,o),
(738,1320,cs),
(835,1320,o),
(858,1260,o),
(834,1138,cs),
(814,1037,o),
(768,961,o),
(693,907,c)
);
},
{
closed = 1;
nodes = (
(615,607,ls),
(751,469,o),
(761,454,o),
(738,344,cs),
(715,237,o),
(622,156,o),
(511,156,cs),
(363,156,o),
(322,233,o),
(353,392,c),
(372,504,o),
(451,617,o),
(533,690,c)
);
}
);
width = 1132;
},
{
layerId = "ED340520-5A40-405B-AFF7-E5EF9D999D24";
shapes = (
{
closed = 1;
nodes = (
(152,635,o),
(47,510,o),
(37,293,cs),
(28,87,o),
(185,-37,o),
(446,-37,cs),
(746,-37,o),
(993,144,o),
(1047,406,cs),
(1081,574,o),
(1030,669,o),
(836,813,c),
(1033,933,o),
(1142,1085,o),
(1142,1254,cs),
(1142,1418,o),
(1009,1517,o),
(794,1517,cs),
(526,1517,o),
(327,1374,o),
(283,1139,c),
(252,990,o),
(277,926,o),
(408,797,c)
);
},
{
closed = 1;
nodes = (
(589,1007,o),
(524,1069,o),
(545,1169,cs),
(567,1278,o),
(635,1332,o),
(746,1332,cs),
(857,1332,o),
(895,1267,o),
(871,1144,cs),
(851,1042,o),
(794,960,o),
(699,897,c)
);
},
{
closed = 1;
nodes = (
(628,616,ls),
(773,483,o),
(790,457,o),
(767,346,cs),
(743,230,o),
(637,145,o),
(512,145,cs),
(356,145,o),
(301,231,o),
(333,393,c),
(354,511,o),
(427,612,o),
(536,699,c)
);
}
);
width = 1139;
}
);
unicode = 56;
},
{
glyphname = nine;
layers = (
{
layerId = "5E5F26D6-8E6E-4FD0-9F5C-925EECC75CBD";
shapes = (
{
closed = 1;
nodes = (
(871,720,l),
(787,300,o),
(621,99,o),
(365,99,cs),
(296,99,o),
(209,125,o),
(104,178,c),
(73,21,l),
(156,-18,o),
(242,-38,o),
(331,-38,cs),
(693,-38,o),
(963,269,o),
(1066,791,cs),
(1155,1236,o),
(1033,1518,o),
(744,1518,cs),
(450,1518,o),
(251,1324,o),
(187,996,cs),
(130,706,o),
(237,531,o),
(483,531,cs),
(627,531,o),
(755,591,o),
(869,712,c)
);
},
{
closed = 1;
nodes = (
(410,1270,o),
(519,1381,o),
(695,1381,cs),
(776,1381,o),
(842,1347,o),
(884,1279,c),
(930,1200,o),
(942,1099,o),
(918,980,cs),
(878,782,o),
(732,660,o),
(553,660,cs),
(376,660,o),
(313,788,o),
(364,1046,cs)
);
}
);
width = 1168;
},
{
layerId = "802D032B-EE86-4213-9785-3BFE9E181E39";
shapes = (
{
closed = 1;
nodes = (
(774,309,o),
(609,111,o),
(362,111,cs),
(295,111,o),
(207,137,o),
(99,190,c),
(65,18,l),
(155,-19,o),
(244,-38,o),
(332,-38,cs),
(700,-38,o),
(980,274,o),
(1083,790,cs),
(1172,1237,o),
(1045,1518,o),
(744,1518,cs),
(448,1518,o),
(246,1325,o),
(181,994,cs),
(124,706,o),
(235,530,o),
(482,530,cs),
(618,530,o),
(741,587,o),
(852,702,c)
);
},
{
closed = 1;
nodes = (
(428,1259,o),
(532,1369,o),
(696,1369,cs),
(777,1369,o),
(839,1333,o),
(877,1262,cs),
(915,1190,o),
(924,1098,o),
(902,989,cs),
(863,796,o),
(727,672,o),
(558,672,cs),
(393,672,o),
(335,794,o),
(384,1040,cs)
);
}
);
width = 1161;
},
{
layerId = "01EADDEA-E3EA-45FB-B4A5-8F079D2A3A41";
shapes = (
{
closed = 1;
nodes = (
(776,630,ls),
(721,345,o),
(560,160,o),
(351,160,cs),
(291,160,o),
(200,186,o),
(79,238,c),
(32,6,l),
(150,-23,o),
(252,-37,o),
(336,-37,cs),
(729,-37,o),
(1049,293,o),
(1150,785,c),
(1239,1241,o),
(1093,1517,o),
(744,1517,cs),
(439,1517,o),
(227,1328,o),
(158,985,c),
(100,707,o),
(226,526,o),
(479,526,cs),
(582,526,o),
(684,571,o),
(783,662,c)
);
},
{
closed = 1;
nodes = (
(501,1216,o),
(583,1321,o),
(701,1321,cs),
(781,1321,o),
(828,1278,o),
(849,1194,c),
(856,1149,o),
(852,1094,o),
(839,1026,c),
(802,853,o),
(706,721,o),
(577,721,cs),
(460,721,o),
(423,818,o),
(463,1015,c)
);
}
);
width = 1132;
},
{
layerId = "ED340520-5A40-405B-AFF7-E5EF9D999D24";
shapes = (
{
closed = 1;
nodes = (
(795,648,l),
(734,336,o),
(572,148,o),
(354,148,cs),
(292,148,o),
(202,174,o),
(84,226,c),
(40,9,l),
(151,-22,o),
(250,-37,o),
(335,-37,cs),
(722,-37,o),
(1032,288,o),
(1133,786,cs),
(1222,1240,o),
(1081,1517,o),
(744,1517,cs),
(441,1517,o),
(232,1327,o),
(164,987,cs),
(106,707,o),
(228,527,o),
(480,527,cs),
(591,527,o),
(698,575,o),
(800,672,c)
);
},
{
closed = 1;
nodes = (
(483,1227,o),
(570,1333,o),
(700,1333,cs),
(780,1333,o),
(831,1292,o),
(856,1211,cs),
(871,1159,o),
(870,1095,o),
(855,1017,cs),
(817,839,o),
(711,709,o),
(572,709,cs),
(443,709,o),
(401,812,o),
(443,1021,cs)
);
}
);
width = 1139;
}
);
unicode = 57;
},
{
glyphname = colon;
layers = (
{
layerId = "5E5F26D6-8E6E-4FD0-9F5C-925EECC75CBD";
shapes = (
{
closed = 1;
nodes = (
(98,0,l),
(320,0,l),
(364,222,l),
(142,222,l)
);
},
{
closed = 1;
nodes = (
(271,867,l),
(494,867,l),
(538,1090,l),
(315,1090,l)
);
}
);
width = 638;
},
{
layerId = "802D032B-EE86-4213-9785-3BFE9E181E39";
shapes = (
{
closed = 1;
nodes = (
(99,0,l),
(346,0,l),
(395,247,l),
(148,247,l)
);
},
{
closed = 1;
nodes = (
(269,851,l),
(516,851,l),
(565,1098,l),
(318,1098,l)
);
}
);
width = 649;
},
{
layerId = "01EADDEA-E3EA-45FB-B4A5-8F079D2A3A41";
shapes = (
{
closed = 1;
nodes = (
(103,0,l),
(449,0,l),
(518,346,l),
(172,346,l)
);
},
{
closed = 1;
nodes = (
(260,786,l),
(605,786,l),
(674,1131,l),
(329,1131,l)
);
}
);
width = 693;
},
{
layerId = "ED340520-5A40-405B-AFF7-E5EF9D999D24";
shapes = (
{
closed = 1;
nodes = (
(102,0,l),
(423,0,l),
(487,321,l),
(166,321,l)
);
},
{
closed = 1;
nodes = (
(262,802,l),
(583,802,l),
(647,1123,l),
(326,1123,l)
);
}
);
width = 682;
}
);
unicode = 58;
},
{
glyphname = semicolon;
layers = (
{
layerId = "5E5F26D6-8E6E-4FD0-9F5C-925EECC75CBD";
shapes = (
{
closed = 1;
nodes = (
(271,867,l),
(494,867,l),
(538,1090,l),
(315,1090,l)
);
},
{
closed = 1;
nodes = (
(28,-350,l),
(175,-350,o),
(274,-226,o),
(324,20,cs),
(364,222,l),
(142,222,l),
(98,0,l),
(185,0,l),
(182,-16,ls),
(150,-173,o),
(103,-264,o),
(39,-288,c)
);
}
);
width = 638;
},
{
layerId = "802D032B-EE86-4213-9785-3BFE9E181E39";
shapes = (
{
closed = 1;
nodes = (
(269,851,l),
(516,851,l),
(565,1098,l),
(318,1098,l)
);
},
{
closed = 1;
nodes = (
(29,-350,l),
(193,-350,o),
(301,-222,o),
(352,33,cs),
(395,247,l),
(148,247,l),
(99,0,l),
(195,0,l),
(191,-20,ls),
(160,-172,o),
(111,-258,o),
(43,-276,c)
);
}
);
width = 649;
},
{
layerId = "01EADDEA-E3EA-45FB-B4A5-8F079D2A3A41";
shapes = (
{
closed = 1;
nodes = (
(260,786,l),
(605,786,l),
(674,1131,l),
(329,1131,l)
);
},
{
closed = 1;
nodes = (
(33,-350,l),
(266,-350,o),
(408,-205,o),
(465,85,cs),
(518,346,l),
(172,346,l),
(103,0,l),
(235,0,l),
(227,-36,l),
(201,-169,o),
(144,-233,o),
(58,-227,c)
);
}
);
width = 693;
},
{
layerId = "ED340520-5A40-405B-AFF7-E5EF9D999D24";
shapes = (
{
closed = 1;
nodes = (
(262,802,l),
(583,802,l),
(647,1123,l),
(326,1123,l)
);
},
{
closed = 1;
nodes = (
(32,-350,l),
(248,-350,o),
(381,-209,o),
(437,72,cs),
(487,321,l),
(166,321,l),
(102,0,l),
(225,0,l),
(218,-32,ls),
(191,-170,o),
(136,-239,o),
(54,-239,c)
);
}
);
width = 682;
}
);
unicode = 59;
},
{
glyphname = less;
layers = (
{
layerId = "5E5F26D6-8E6E-4FD0-9F5C-925EECC75CBD";
shapes = (
{
closed = 1;
nodes = (
(1013,99,l),
(1042,246,l),
(423,591,l),
(423,593,l),
(1180,937,l),
(1211,1086,l),
(125,592,l)
);
}
);
width = 1225;
},
{
layerId = "802D032B-EE86-4213-9785-3BFE9E181E39";
shapes = (
{
closed = 1;
nodes = (
(1009,99,l),
(1042,264,l),
(454,591,l),
(454,593,l),
(1173,920,l),
(1207,1086,l),
(121,592,l)
);
}
);
width = 1218;
},
{
layerId = "01EADDEA-E3EA-45FB-B4A5-8F079D2A3A41";
shapes = (
{
closed = 1;
nodes = (
(994,99,l),
(1042,335,l),
(579,591,l),
(579,593,l),
(1145,851,l),
(1192,1086,l),
(106,592,l)
);
}
);
width = 1189;
},
{
layerId = "ED340520-5A40-405B-AFF7-E5EF9D999D24";
shapes = (
{
closed = 1;
nodes = (
(998,99,l),
(1042,317,l),
(548,591,l),
(548,593,l),
(1152,868,l),
(1196,1086,l),
(110,592,l)
);
}
);
width = 1196;
}
);
unicode = 60;
},
{
glyphname = equal;
layers = (
{
layerId = "5E5F26D6-8E6E-4FD0-9F5C-925EECC75CBD";
shapes = (
{
closed = 1;
nodes = (
(-32,302,l),
(1153,302,l),
(1184,458,l),
(-1,458,l)
);
},
{
closed = 1;
nodes = (
(52,726,l),
(1238,726,l),
(1270,887,l),
(84,887,l)
);
}
);
width = 1225;
},
{
layerId = "802D032B-EE86-4213-9785-3BFE9E181E39";
shapes = (
{
closed = 1;
nodes = (
(-13,294,l),
(1123,294,l),
(1157,464,l),
(21,464,l)
);
},
{
closed = 1;
nodes = (
(72,720,l),
(1208,720,l),
(1242,890,l),
(106,890,l)
);
}
);
width = 1218;
},
{
layerId = "01EADDEA-E3EA-45FB-B4A5-8F079D2A3A41";
shapes = (
{
closed = 1;
nodes = (
(64,261,l),
(1002,261,l),
(1048,487,l),
(110,487,l)
);
},
{
closed = 1;
nodes = (
(152,697,l),
(1089,697,l),
(1130,901,l),
(193,901,l)
);
}
);
width = 1189;
},
{
layerId = "ED340520-5A40-405B-AFF7-E5EF9D999D24";
shapes = (
{
closed = 1;
nodes = (
(45,269,l),
(1032,269,l),
(1075,481,l),
(88,481,l)
);
},
{
closed = 1;
nodes = (
(132,703,l),
(1119,703,l),
(1158,898,l),
(171,898,l)
);
}
);
width = 1196;
}
);
unicode = 61;
},
{
glyphname = greater;
layers = (
{
layerId = "5E5F26D6-8E6E-4FD0-9F5C-925EECC75CBD";
shapes = (
{
closed = 1;
nodes = (
(223,1086,l),
(193,937,l),
(813,593,l),
(813,591,l),
(55,246,l),
(25,99,l),
(1111,592,l)
);
}
);
width = 1225;
},
{
layerId = "802D032B-EE86-4213-9785-3BFE9E181E39";
shapes = (
{
closed = 1;
nodes = (
(220,1086,l),
(186,920,l),
(775,593,l),
(775,591,l),
(55,264,l),
(22,99,l),
(1108,592,l)
);
}
);
width = 1218;
},
{
layerId = "01EADDEA-E3EA-45FB-B4A5-8F079D2A3A41";
shapes = (
{
closed = 1;
nodes = (
(207,1086,l),
(159,851,l),
(622,593,l),
(622,591,l),
(56,335,l),
(9,99,l),
(1095,592,l)
);
}
);
width = 1189;
},
{
layerId = "ED340520-5A40-405B-AFF7-E5EF9D999D24";
shapes = (
{
closed = 1;
nodes = (
(210,1086,l),
(166,868,l),
(660,593,l),
(660,591,l),
(56,317,l),
(12,99,l),
(1098,592,l)
);
}
);
width = 1196;
}
);
unicode = 62;
},
{
glyphname = question;
layers = (
{
layerId = "5E5F26D6-8E6E-4FD0-9F5C-925EECC75CBD";
shapes = (
{
closed = 1;
nodes = (
(313,0,l),
(471,0,l),
(506,180,l),
(349,180,l)
);
},
{
closed = 1;
nodes = (
(385,383,l),
(549,383,l),
(574,506,ls),
(615,704,o),
(648,725,o),
(864,867,c),
(994,941,o),
(1073,1036,o),
(1113,1136,c),
(1181,1389,o),
(1059,1517,o),
(746,1517,cs),
(622,1517,o),
(498,1500,o),
(376,1468,c),
(346,1321,l),
(481,1364,o),
(603,1385,o),
(709,1385,cs),
(904,1385,o),
(986,1312,o),
(948,1166,c),
(919,1075,o),
(838,986,o),
(698,892,c),
(612,824,l),
(497,738,o),
(435,601,o),
(391,413,c)
);
}
);
width = 1131;
},
{
layerId = "802D032B-EE86-4213-9785-3BFE9E181E39";
shapes = (
{
closed = 1;
nodes = (
(295,0,l),
(492,0,l),
(531,197,l),
(334,197,l)
);
},
{
closed = 1;
nodes = (
(373,395,l),
(570,395,l),
(592,505,ls),
(634,717,o),
(682,734,o),
(896,871,c),
(1039,952,o),
(1122,1051,o),
(1146,1171,cs),
(1192,1401,o),
(1059,1517,o),
(746,1517,cs),
(616,1517,o),
(488,1500,o),
(362,1467,c),
(328,1300,l),
(460,1346,o),
(585,1369,o),
(701,1369,cs),
(883,1369,o),
(964,1303,o),
(937,1172,cs),
(917,1075,o),
(839,982,o),
(705,891,c),
(612,822,ls),
(482,729,o),
(419,604,o),
(378,422,c)
);
}
);
width = 1161;
},
{
layerId = "01EADDEA-E3EA-45FB-B4A5-8F079D2A3A41";
shapes = (
{
closed = 1;
nodes = (
(222,0,l),
(577,0,l),
(630,264,l),
(274,264,l)
);
},
{
closed = 1;
nodes = (
(324,444,l),
(653,444,l),
(664,502,ls),
(711,769,o),
(818,771,o),
(1025,887,cs),
(1218,997,o),
(1317,1111,o),
(1279,1311,c),
(1237,1449,o),
(1059,1517,o),
(746,1517,cs),
(593,1517,o),
(447,1499,o),
(306,1462,c),
(257,1216,l),
(377,1274,o),
(514,1304,o),
(668,1304,cs),
(799,1304,o),
(875,1268,o),
(894,1195,c),
(909,1076,o),
(843,965,o),
(734,888,c),
(612,813,ls),
(423,693,o),
(355,615,o),
(326,459,c)
);
}
);
width = 1281;
},
{
layerId = "ED340520-5A40-405B-AFF7-E5EF9D999D24";
shapes = (
{
closed = 1;
nodes = (
(240,0,l),
(556,0,l),
(605,247,l),
(289,247,l)
);
},
{
closed = 1;
nodes = (
(336,432,l),
(632,432,l),
(646,503,ls),
(692,756,o),
(784,762,o),
(993,883,cs),
(1173,986,o),
(1268,1096,o),
(1246,1276,cs),
(1226,1437,o),
(1059,1517,o),
(746,1517,cs),
(599,1517,o),
(457,1499,o),
(320,1463,c),
(275,1237,l),
(398,1292,o),
(532,1320,o),
(676,1320,cs),
(820,1320,o),
(897,1277,o),
(905,1189,c),
(911,1076,o),
(842,969,o),
(727,889,c),
(612,815,ls),
(438,702,o),
(371,612,o),
(339,450,c)
);
}
);
width = 1251;
}
);
unicode = 63;
},
{
glyphname = at;
layers = (
{
layerId = "5E5F26D6-8E6E-4FD0-9F5C-925EECC75CBD";
shapes = (
{
closed = 1;
nodes = (
(1170,140,l),
(1066,92,o),
(961,68,o),
(855,68,cs),
(525,68,o),
(338,281,o),
(399,589,cs),
(440,803,o),
(561,994,o),
(760,1162,cs),
(957,1329,o),
(1163,1413,o),
(1374,1413,cs),
(1704,1413,o),
(1895,1182,o),
(1836,870,cs),
(1811,745,o),
(1753,635,o),
(1663,541,cs),
(1574,445,o),
(1482,398,o),
(1390,398,cs),
(1340,398,o),
(1319,419,o),
(1328,464,cs),
(1331,481,o),
(1336,497,o),
(1344,515,c),
(1607,1177,l),
(1469,1177,ls),
(1447,1177,o),
(1361,1180,o),
(1325,1180,cs),
(1187,1180,o),
(1050,1112,o),
(917,978,cs),
(793,853,o),
(724,739,o),
(663,563,c),
(619,378,o),
(678,289,o),
(838,293,c),
(877,295,o),
(918,307,o),
(958,325,c),
(1059,381,o),
(1150,479,o),
(1269,644,c),
(1278,644,l),
(1241,577,o),
(1180,468,o),
(1169,413,cs),
(1154,335,o),
(1199,296,o),
(1312,296,cs),
(1454,296,o),
(1586,353,o),
(1710,469,cs),
(1834,586,o),
(1911,723,o),
(1944,889,cs),
(1979,1067,o),
(1947,1216,o),
(1846,1337,cs),
(1743,1457,o),
(1601,1517,o),
(1415,1517,cs),
(1166,1517,o),
(930,1422,o),
(704,1233,cs),
(483,1047,o),
(354,845,o),
(295,604,cs),
(251,414,o),
(281,258,o),
(385,136,cs),
(483,20,o),
(627,-37,o),
(814,-37,cs),
(928,-37,o),
(1052,-10,o),
(1184,44,c)
);
},
{
closed = 1;
nodes = (
(1333,836,l),
(1104,534,o),
(968,409,o),
(872,409,cs),
(813,409,o),
(797,458,o),
(817,557,cs),
(876,842,o),
(1055,1066,o),
(1252,1066,cs),
(1299,1066,o),
(1352,1055,o),
(1412,1034,c)
);
}
);
width = 2136;
},
{
layerId = "802D032B-EE86-4213-9785-3BFE9E181E39";
shapes = (
{
closed = 1;
nodes = (
(1145,146,l),
(1039,98,o),
(933,74,o),
(828,74,cs),
(505,74,o),
(320,285,o),
(380,587,cs),
(422,801,o),
(542,990,o),
(740,1157,cs),
(937,1323,o),
(1141,1407,o),
(1353,1407,cs),
(1674,1407,o),
(1865,1178,o),
(1806,873,cs),
(1782,751,o),
(1725,643,o),
(1637,549,cs),
(1549,454,o),
(1460,407,o),
(1371,407,cs),
(1321,407,o),
(1300,429,o),
(1309,474,cs),
(1313,494,o),
(1319,514,o),
(1328,536,cs),
(1581,1172,l),
(1444,1172,ls),
(1408,1172,o),
(1324,1178,o),
(1288,1178,cs),
(1153,1178,o),
(1018,1110,o),
(884,975,cs),
(749,839,o),
(665,687,o),
(631,517,cs),
(601,369,o),
(651,296,o),
(780,296,cs),
(814,296,o),
(850,304,o),
(886,318,cs),
(995,360,o),
(1111,469,o),
(1236,642,c),
(1248,642,l),
(1205,561,o),
(1151,460,o),
(1141,411,cs),
(1126,334,o),
(1172,296,o),
(1284,296,cs),
(1428,296,o),
(1561,353,o),
(1685,469,cs),
(1809,584,o),
(1887,724,o),
(1920,890,cs),
(1955,1068,o),
(1923,1217,o),
(1822,1337,cs),
(1720,1457,o),
(1576,1517,o),
(1390,1517,cs),
(1142,1517,o),
(906,1422,o),
(680,1233,cs),
(453,1044,o),
(316,825,o),
(267,576,cs),
(231,398,o),
(262,252,o),
(361,136,cs),
(460,20,o),
(603,-37,o),
(791,-37,cs),
(906,-37,o),
(1029,-10,o),
(1160,44,c)
);
},
{
closed = 1;
nodes = (
(1298,833,l),
(1089,558,o),
(936,419,o),
(847,419,cs),
(791,419,o),
(775,466,o),
(794,561,cs),
(850,839,o),
(1033,1061,o),
(1223,1061,cs),
(1268,1061,o),
(1319,1050,o),
(1376,1028,c)
);
}
);
width = 2101;
},
{
layerId = "01EADDEA-E3EA-45FB-B4A5-8F079D2A3A41";
shapes = (
{
closed = 1;
nodes = (
(1044,170,l),
(930,122,o),
(821,98,o),
(719,98,cs),
(425,98,o),
(248,300,o),
(305,579,cs),
(351,793,o),
(465,975,o),
(660,1138,cs),
(858,1299,o),
(1054,1382,o),
(1268,1382,cs),
(1555,1382,o),
(1744,1162,o),
(1687,886,cs),
(1665,775,o),
(1613,674,o),
(1532,581,c),
(1450,491,o),
(1371,444,o),
(1295,444,cs),
(1244,444,o),
(1224,468,o),
(1233,513,cs),
(1240,546,o),
(1251,582,o),
(1265,621,c),
(1478,1153,l),
(1345,1153,ls),
(1253,1153,o),
(1177,1170,o),
(1140,1170,cs),
(1018,1170,o),
(889,1102,o),
(753,964,cs),
(572,782,o),
(428,479,o),
(504,333,c),
(530,333,o),
(544,324,o),
(549,308,c),
(562,300,o),
(578,293,o),
(598,289,c),
(738,275,o),
(956,429,o),
(1105,633,c),
(1129,633,l),
(1062,497,o),
(1034,427,o),
(1029,403,cs),
(1015,331,o),
(1063,296,o),
(1171,296,cs),
(1323,296,o),
(1461,353,o),
(1585,468,c),
(1710,577,o),
(1791,727,o),
(1824,893,cs),
(1859,1072,o),
(1826,1220,o),
(1725,1338,c),
(1628,1457,o),
(1476,1517,o),
(1291,1517,cs),
(1045,1517,o),
(809,1422,o),
(583,1233,c),
(334,1033,o),
(163,745,o),
(154,463,cs),
(151,335,o),
(187,227,o),
(265,136,c),
(368,20,o),
(508,-37,o),
(700,-37,cs),
(817,-37,o),
(938,-10,o),
(1064,45,c)
);
},
{
closed = 1;
nodes = (
(1159,821,l),
(1030,655,o),
(809,460,o),
(746,460,cs),
(702,460,o),
(686,499,o),
(702,577,c),
(747,827,o),
(946,1042,o),
(1106,1042,cs),
(1145,1042,o),
(1188,1030,o),
(1233,1004,c)
);
}
);
width = 1962;
},
{
layerId = "ED340520-5A40-405B-AFF7-E5EF9D999D24";
shapes = (
{
closed = 1;
nodes = (
(1069,164,l),
(957,116,o),
(849,92,o),
(746,92,cs),
(445,92,o),
(266,296,o),
(324,581,cs),
(369,795,o),
(484,979,o),
(680,1143,cs),
(878,1305,o),
(1076,1388,o),
(1289,1388,cs),
(1585,1388,o),
(1774,1166,o),
(1717,883,cs),
(1694,769,o),
(1641,666,o),
(1558,573,cs),
(1475,482,o),
(1393,435,o),
(1314,435,cs),
(1263,435,o),
(1243,458,o),
(1252,503,cs),
(1258,533,o),
(1268,565,o),
(1281,600,c),
(1504,1158,l),
(1370,1158,ls),
(1292,1158,o),
(1214,1172,o),
(1177,1172,cs),
(1052,1172,o),
(921,1104,o),
(786,967,cs),
(616,796,o),
(487,531,o),
(536,379,cs),
(548,342,o),
(571,317,o),
(607,305,cs),
(625,299,o),
(646,296,o),
(670,296,cs),
(802,296,o),
(995,439,o),
(1138,635,c),
(1159,635,l),
(1098,513,o),
(1063,435,o),
(1057,405,cs),
(1043,332,o),
(1090,296,o),
(1199,296,cs),
(1349,296,o),
(1486,353,o),
(1610,468,c),
(1735,579,o),
(1815,726,o),
(1848,892,cs),
(1883,1071,o),
(1850,1219,o),
(1749,1338,cs),
(1651,1457,o),
(1501,1517,o),
(1316,1517,cs),
(1069,1517,o),
(833,1422,o),
(607,1233,cs),
(364,1036,o),
(201,765,o),
(182,491,cs),
(171,351,o),
(206,233,o),
(289,136,cs),
(391,20,o),
(532,-37,o),
(723,-37,cs),
(839,-37,o),
(961,-10,o),
(1088,45,c)
);
},
{
closed = 1;
nodes = (
(1194,824,l),
(1045,631,o),
(841,450,o),
(771,450,cs),
(724,450,o),
(708,491,o),
(725,573,c),
(773,830,o),
(968,1047,o),
(1135,1047,cs),
(1176,1047,o),
(1221,1035,o),
(1269,1010,c)
);
}
);
width = 1997;
}
);
unicode = 64;
},
{
glyphname = A;
layers = (
{
layerId = "5E5F26D6-8E6E-4FD0-9F5C-925EECC75CBD";
shapes = (
{
closed = 1;
nodes = (
(-76,0,l),
(109,0,l),
(346,415,l),
(934,415,l),
(1007,0,l),
(1203,0,l),
(952,1480,l),
(777,1480,l)
);
},
{
closed = 1;
nodes = (
(430,557,l),
(801,1206,l),
(911,557,l)
);
}
);
width = 1358;
},
{
layerId = "802D032B-EE86-4213-9785-3BFE9E181E39";
shapes = (
{
closed = 1;
nodes = (
(-82,0,l),
(113,0,l),
(348,410,l),
(942,410,l),
(1015,0,l),
(1241,0,l),
(983,1480,l),
(775,1480,l)
);
},
{
closed = 1;
nodes = (
(440,566,l),
(805,1200,l),
(916,566,l)
);
}
);
width = 1388;
},
{
layerId = "01EADDEA-E3EA-45FB-B4A5-8F079D2A3A41";
shapes = (
{
closed = 1;
nodes = (
(-106,0,l),
(129,0,l),
(356,390,l),
(974,390,l),
(1047,0,l),
(1392,0,l),
(1108,1480,l),
(767,1480,l)
);
},
{
closed = 1;
nodes = (
(480,601,l),
(822,1176,l),
(935,601,l)
);
}
);
width = 1509;
},
{
layerId = "ED340520-5A40-405B-AFF7-E5EF9D999D24";
shapes = (
{
closed = 1;
nodes = (
(-100,0,l),
(125,0,l),
(354,395,l),
(966,395,l),
(1039,0,l),
(1354,0,l),
(1077,1480,l),
(769,1480,l)
);
},
{
closed = 1;
nodes = (
(470,592,l),
(818,1182,l),
(930,592,l)
);
}
);
width = 1479;
}
);
unicode = 65;
},
{
glyphname = B;
layers = (
{
layerId = "5E5F26D6-8E6E-4FD0-9F5C-925EECC75CBD";
shapes = (
{
closed = 1;
nodes = (
(65,0,l),
(555,0,ls),
(708,0,o),
(812,11,o),
(874,31,c),
(980,70,o),
(1091,184,o),
(1148,334,c),
(1204,548,o),
(1106,694,o),
(852,770,c),
(1078,838,o),
(1208,962,o),
(1245,1143,cs),
(1292,1385,o),
(1178,1480,o),
(793,1480,cs),
(360,1480,l)
);
},
{
closed = 1;
nodes = (
(276,139,l),
(389,707,l),
(526,707,ls),
(857,707,o),
(1006,598,o),
(962,378,cs),
(941,277,o),
(895,211,o),
(826,183,cs),
(760,157,o),
(628,139,o),
(436,139,cs)
);
},
{
closed = 1;
nodes = (
(411,819,l),
(515,1338,l),
(682,1338,ls),
(1013,1338,o),
(1089,1288,o),
(1055,1114,cs),
(1022,942,o),
(884,819,o),
(602,819,cs)
);
}
);
width = 1358;
},
{
layerId = "802D032B-EE86-4213-9785-3BFE9E181E39";
shapes = (
{
closed = 1;
nodes = (
(64,0,l),
(590,0,ls),
(728,0,o),
(830,8,o),
(897,26,cs),
(1043,66,o),
(1168,200,o),
(1204,371,cs),
(1242,567,o),
(1140,700,o),
(897,771,c),
(1129,840,o),
(1263,965,o),
(1299,1145,cs),
(1347,1390,o),
(1222,1480,o),
(833,1480,cs),
(359,1480,l)
);
},
{
closed = 1;
nodes = (
(305,157,l),
(413,697,l),
(584,697,ls),
(881,697,o),
(1025,587,o),
(984,384,cs),
(965,290,o),
(922,228,o),
(856,200,cs),
(788,171,o),
(655,157,o),
(460,157,cs)
);
},
{
closed = 1;
nodes = (
(439,830,l),
(538,1323,l),
(732,1323,ls),
(1037,1323,o),
(1108,1275,o),
(1076,1111,cs),
(1039,922,o),
(883,830,o),
(618,830,cs)
);
}
);
width = 1388;
},
{
layerId = "01EADDEA-E3EA-45FB-B4A5-8F079D2A3A41";
shapes = (
{
closed = 1;
nodes = (
(60,0,l),
(731,0,ls),
(808,0,o),
(903,-5,o),
(989,6,cs),
(1295,49,o),
(1476,265,o),
(1429,518,c),
(1395,642,o),
(1277,725,o),
(1077,774,c),
(1334,849,o),
(1482,976,o),
(1516,1153,cs),
(1567,1410,o),
(1399,1480,o),
(993,1480,cs),
(355,1480,l)
);
},
{
closed = 1;
nodes = (
(421,228,l),
(508,656,l),
(815,656,ls),
(978,656,o),
(1100,544,o),
(1073,408,cs),
(1060,342,o),
(1029,296,o),
(977,268,c),
(899,228,o),
(763,228,o),
(555,228,cs)
);
},
{
closed = 1;
nodes = (
(551,875,l),
(629,1262,l),
(931,1262,ls),
(1134,1262,o),
(1185,1224,o),
(1161,1099,cs),
(1107,841,o),
(878,875,o),
(682,875,cs)
);
}
);
width = 1509;
},
{
layerId = "ED340520-5A40-405B-AFF7-E5EF9D999D24";
shapes = (
{
closed = 1;
nodes = (
(61,0,l),
(696,0,ls),
(788,0,o),
(885,-2,o),
(966,11,cs),
(1232,53,o),
(1399,249,o),
(1373,481,cs),
(1357,623,o),
(1243,719,o),
(1032,773,c),
(1283,847,o),
(1427,973,o),
(1462,1151,cs),
(1512,1405,o),
(1355,1480,o),
(953,1480,cs),
(356,1480,l)
);
},
{
closed = 1;
nodes = (
(392,210,l),
(484,666,l),
(757,666,ls),
(954,666,o),
(1081,555,o),
(1051,402,cs),
(1036,329,o),
(1002,279,o),
(947,251,cs),
(871,214,o),
(736,210,o),
(531,210,cs)
);
},
{
closed = 1;
nodes = (
(523,864,l),
(606,1277,l),
(881,1277,ls),
(1110,1277,o),
(1166,1237,o),
(1140,1102,cs),
(1090,861,o),
(879,864,o),
(666,864,cs)
);
}
);
width = 1479;
}
);
unicode = 66;
},
{
glyphname = C;
layers = (
{
layerId = "5E5F26D6-8E6E-4FD0-9F5C-925EECC75CBD";
shapes = (
{
closed = 1;
nodes = (
(1286,246,l),
(1103,156,o),
(937,111,o),
(792,111,cs),
(447,111,o),
(291,344,o),
(368,735,cs),
(450,1146,o),
(682,1375,o),
(1022,1375,cs),
(1138,1375,o),
(1294,1339,o),
(1491,1267,c),
(1528,1449,l),
(1354,1494,o),
(1201,1517,o),
(1069,1517,cs),
(593,1517,o),
(277,1237,o),
(178,739,cs),
(76,230,o),
(273,-37,o),
(755,-37,cs),
(924,-37,o),
(1089,2,o),
(1253,82,c)
);
}
);
width = 1508;
},
{
layerId = "802D032B-EE86-4213-9785-3BFE9E181E39";
shapes = (
{
closed = 1;
nodes = (
(1302,256,l),
(1124,170,o),
(960,127,o),
(812,127,cs),
(463,127,o),
(310,350,o),
(387,737,cs),
(467,1140,o),
(693,1360,o),
(1034,1360,cs),
(1154,1360,o),
(1309,1325,o),
(1499,1255,c),
(1539,1452,l),
(1370,1495,o),
(1215,1517,o),
(1073,1517,cs),
(582,1517,o),
(262,1239,o),
(162,739,cs),
(61,233,o),
(265,-37,o),
(754,-37,cs),
(934,-37,o),
(1104,0,o),
(1266,76,c)
);
}
);
width = 1501;
},
{
layerId = "01EADDEA-E3EA-45FB-B4A5-8F079D2A3A41";
shapes = (
{
closed = 1;
nodes = (
(1367,296,l),
(1209,227,o),
(1052,192,o),
(892,192,cs),
(526,192,o),
(387,374,o),
(462,746,cs),
(535,1115,o),
(737,1299,o),
(1082,1299,cs),
(1219,1299,o),
(1370,1268,o),
(1532,1207,c),
(1583,1463,l),
(1435,1499,o),
(1271,1517,o),
(1088,1517,cs),
(539,1517,o),
(201,1247,o),
(99,740,cs),
(2,245,o),
(234,-37,o),
(750,-37,cs),
(974,-37,o),
(1164,-7,o),
(1318,53,c)
);
}
);
width = 1472;
},
{
layerId = "ED340520-5A40-405B-AFF7-E5EF9D999D24";
shapes = (
{
closed = 1;
nodes = (
(1351,286,l),
(1188,213,o),
(1029,176,o),
(872,176,cs),
(510,176,o),
(368,368,o),
(443,744,cs),
(518,1121,o),
(726,1314,o),
(1070,1314,cs),
(1203,1314,o),
(1355,1282,o),
(1524,1219,c),
(1572,1460,l),
(1419,1498,o),
(1257,1517,o),
(1084,1517,cs),
(550,1517,o),
(216,1245,o),
(115,740,cs),
(17,242,o),
(242,-37,o),
(751,-37,cs),
(964,-37,o),
(1149,-5,o),
(1305,59,c)
);
}
);
width = 1479;
}
);
unicode = 67;
},
{
glyphname = D;
layers = (
{
layerId = "5E5F26D6-8E6E-4FD0-9F5C-925EECC75CBD";
shapes = (
{
closed = 1;
nodes = (
(65,0,l),
(538,0,ls),
(1011,0,o),
(1340,281,o),
(1438,776,cs),
(1532,1249,o),
(1333,1480,o),
(820,1480,cs),
(360,1480,l)
);
},
{
closed = 1;
nodes = (
(270,139,l),
(509,1338,l),
(669,1338,ls),
(843,1338,o),
(969,1324,o),
(1045,1298,cs),
(1223,1236,o),
(1299,1033,o),
(1243,756,cs),
(1157,324,o),
(926,123,o),
(531,137,cs),
(487,139,o),
(444,139,o),
(402,139,cs)
);
}
);
width = 1508;
},
{
layerId = "802D032B-EE86-4213-9785-3BFE9E181E39";
shapes = (
{
closed = 1;
nodes = (
(64,0,l),
(541,0,ls),
(1012,0,o),
(1341,282,o),
(1439,775,cs),
(1532,1244,o),
(1332,1480,o),
(833,1480,cs),
(359,1480,l)
);
},
{
closed = 1;
nodes = (
(305,157,l),
(538,1323,l),
(693,1323,ls),
(835,1323,o),
(940,1311,o),
(1007,1289,cs),
(1189,1229,o),
(1265,1029,o),
(1210,755,cs),
(1129,351,o),
(917,157,o),
(557,157,cs),
(515,157,o),
(473,157,o),
(431,157,cs)
);
}
);
width = 1501;
},
{
layerId = "01EADDEA-E3EA-45FB-B4A5-8F079D2A3A41";
shapes = (
{
closed = 1;
nodes = (
(60,0,l),
(552,0,ls),
(1017,0,o),
(1345,287,o),
(1442,770,cs),
(1531,1225,o),
(1327,1480,o),
(884,1480,cs),
(355,1480,l)
);
},
{
closed = 1;
nodes = (
(445,228,l),
(653,1262,l),
(788,1262,ls),
(803,1262,o),
(825,1258,o),
(854,1252,c),
(1052,1200,o),
(1130,1014,o),
(1077,752,cs),
(1017,460,o),
(881,292,o),
(660,238,cs),
(626,230,o),
(588,228,o),
(548,228,cs)
);
}
);
width = 1472;
},
{
layerId = "ED340520-5A40-405B-AFF7-E5EF9D999D24";
shapes = (
{
closed = 1;
nodes = (
(61,0,l),
(549,0,ls),
(1016,0,o),
(1344,286,o),
(1441,771,cs),
(1531,1230,o),
(1328,1480,o),
(871,1480,cs),
(356,1480,l)
);
},
{
closed = 1;
nodes = (
(410,210,l),
(624,1277,l),
(764,1277,ls),
(811,1277,o),
(854,1271,o),
(892,1261,cs),
(1086,1207,o),
(1164,1018,o),
(1110,753,cs),
(1045,433,o),
(890,258,o),
(634,218,cs),
(598,212,o),
(559,210,o),
(519,210,cs)
);
}
);
width = 1479;
}
);
unicode = 68;
},
{
glyphname = E;
layers = (
{
layerId = "5E5F26D6-8E6E-4FD0-9F5C-925EECC75CBD";
shapes = (
{
closed = 1;
nodes = (
(98,0,l),
(1210,0,l),
(1238,139,l),
(303,139,l),
(415,702,l),
(1212,702,l),
(1240,843,l),
(444,843,l),
(543,1338,l),
(1434,1338,l),
(1462,1480,l),
(393,1480,l)
);
}
);
width = 1395;
},
{
layerId = "802D032B-EE86-4213-9785-3BFE9E181E39";
shapes = (
{
closed = 1;
nodes = (
(89,0,l),
(1206,0,l),
(1237,157,l),
(330,157,l),
(437,693,l),
(1201,693,l),
(1232,848,l),
(468,848,l),
(563,1323,l),
(1426,1323,l),
(1457,1480,l),
(384,1480,l)
);
}
);
width = 1388;
},
{
layerId = "01EADDEA-E3EA-45FB-B4A5-8F079D2A3A41";
shapes = (
{
closed = 1;
nodes = (
(52,0,l),
(1190,0,l),
(1234,228,l),
(437,228,l),
(524,657,l),
(1158,657,l),
(1200,869,l),
(565,869,l),
(644,1262,l),
(1394,1262,l),
(1437,1480,l),
(347,1480,l)
);
}
);
width = 1359;
},
{
layerId = "ED340520-5A40-405B-AFF7-E5EF9D999D24";
shapes = (
{
closed = 1;
nodes = (
(61,0,l),
(1194,0,l),
(1235,210,l),
(410,210,l),
(502,666,l),
(1169,666,l),
(1208,864,l),
(541,864,l),
(624,1277,l),
(1402,1277,l),
(1442,1480,l),
(356,1480,l)
);
}
);
width = 1366;
}
);
unicode = 69;
},
{
glyphname = F;
layers = (
{
layerId = "5E5F26D6-8E6E-4FD0-9F5C-925EECC75CBD";
shapes = (
{
closed = 1;
nodes = (
(100,0,l),
(277,0,l),
(414,688,l),
(1137,688,l),
(1164,827,l),
(442,827,l),
(544,1338,l),
(1363,1338,l),
(1391,1480,l),
(395,1480,l)
);
}
);
width = 1280;
},
{
layerId = "802D032B-EE86-4213-9785-3BFE9E181E39";
shapes = (
{
closed = 1;
nodes = (
(90,0,l),
(300,0,l),
(434,672,l),
(1129,672,l),
(1160,827,l),
(465,827,l),
(564,1323,l),
(1359,1323,l),
(1390,1480,l),
(385,1480,l)
);
}
);
width = 1273;
},
{
layerId = "01EADDEA-E3EA-45FB-B4A5-8F079D2A3A41";
shapes = (
{
closed = 1;
nodes = (
(51,0,l),
(392,0,l),
(513,607,l),
(1098,607,l),
(1143,827,l),
(557,827,l),
(644,1262,l),
(1344,1262,l),
(1387,1480,l),
(346,1480,l)
);
}
);
width = 1244;
},
{
layerId = "ED340520-5A40-405B-AFF7-E5EF9D999D24";
shapes = (
{
closed = 1;
nodes = (
(61,0,l),
(369,0,l),
(493,623,l),
(1106,623,l),
(1147,827,l),
(534,827,l),
(624,1277,l),
(1348,1277,l),
(1388,1480,l),
(356,1480,l)
);
}
);
width = 1251;
}
);
unicode = 70;
},
{
glyphname = G;
layers = (
{
layerId = "5E5F26D6-8E6E-4FD0-9F5C-925EECC75CBD";
shapes = (
{
closed = 1;
nodes = (
(1429,678,l),
(1007,678,l),
(979,540,l),
(1225,540,l),
(1148,148,l),
(1011,117,o),
(899,103,o),
(812,103,cs),
(425,103,o),
(256,328,o),
(338,740,cs),
(422,1166,o),
(650,1375,o),
(1028,1375,cs),
(1175,1375,o),
(1346,1339,o),
(1544,1268,c),
(1580,1447,l),
(1402,1493,o),
(1229,1517,o),
(1059,1517,cs),
(555,1517,o),
(262,1220,o),
(153,774,cs),
(27,220,o),
(246,-37,o),
(741,-37,cs),
(932,-37,o),
(1119,-10,o),
(1302,42,c)
);
}
);
width = 1622;
},
{
layerId = "802D032B-EE86-4213-9785-3BFE9E181E39";
shapes = (
{
closed = 1;
nodes = (
(1441,688,l),
(985,688,l),
(954,534,l),
(1201,534,l),
(1126,157,l),
(1003,132,o),
(903,120,o),
(826,120,cs),
(449,120,o),
(284,339,o),
(364,740,cs),
(446,1153,o),
(671,1360,o),
(1038,1360,cs),
(1185,1360,o),
(1356,1325,o),
(1552,1256,c),
(1591,1450,l),
(1419,1494,o),
(1246,1517,o),
(1070,1517,cs),
(555,1517,o),
(237,1222,o),
(139,737,cs),
(34,219,o),
(244,-37,o),
(759,-37,cs),
(941,-37,o),
(1125,-11,o),
(1311,40,c)
);
}
);
width = 1615;
},
{
layerId = "01EADDEA-E3EA-45FB-B4A5-8F079D2A3A41";
shapes = (
{
closed = 1;
nodes = (
(1488,729,l),
(896,729,l),
(853,510,l),
(1104,510,l),
(1039,194,l),
(972,191,o),
(919,188,o),
(882,188,cs),
(545,188,o),
(396,384,o),
(468,739,cs),
(542,1102,o),
(755,1299,o),
(1077,1299,cs),
(1226,1299,o),
(1395,1268,o),
(1583,1207,c),
(1634,1463,l),
(1487,1499,o),
(1314,1517,o),
(1115,1517,cs),
(555,1517,o),
(137,1229,o),
(84,590,c),
(63,215,o),
(237,-37,o),
(830,-37,cs),
(976,-37,o),
(1148,-14,o),
(1348,33,c)
);
}
);
width = 1586;
},
{
layerId = "ED340520-5A40-405B-AFF7-E5EF9D999D24";
shapes = (
{
closed = 1;
nodes = (
(1476,719,l),
(918,719,l),
(878,516,l),
(1128,516,l),
(1061,185,l),
(980,176,o),
(915,171,o),
(868,171,cs),
(521,171,o),
(368,373,o),
(442,739,cs),
(518,1115,o),
(734,1314,o),
(1067,1314,cs),
(1216,1314,o),
(1385,1282,o),
(1575,1219,c),
(1623,1460,l),
(1470,1498,o),
(1297,1517,o),
(1104,1517,cs),
(555,1517,o),
(162,1227,o),
(98,627,cs),
(56,216,o),
(239,-37,o),
(812,-37,cs),
(967,-37,o),
(1142,-13,o),
(1339,35,c)
);
}
);
width = 1593;
}
);
unicode = 71;
},
{
glyphname = H;
layers = (
{
layerId = "5E5F26D6-8E6E-4FD0-9F5C-925EECC75CBD";
shapes = (
{
closed = 1;
nodes = (
(65,0,l),
(242,0,l),
(383,707,l),
(1183,707,l),
(1042,0,l),
(1218,0,l),
(1513,1480,l),
(1337,1480,l),
(1212,848,l),
(412,848,l),
(537,1480,l),
(360,1480,l)
);
}
);
width = 1508;
},
{
layerId = "802D032B-EE86-4213-9785-3BFE9E181E39";
shapes = (
{
closed = 1;
nodes = (
(64,0,l),
(274,0,l),
(413,699,l),
(1142,699,l),
(1003,0,l),
(1212,0,l),
(1507,1480,l),
(1298,1480,l),
(1174,856,l),
(445,856,l),
(569,1480,l),
(359,1480,l)
);
}
);
width = 1501;
},
{
layerId = "01EADDEA-E3EA-45FB-B4A5-8F079D2A3A41";
shapes = (
{
closed = 1;
nodes = (
(60,0,l),
(401,0,l),
(533,667,l),
(979,667,l),
(847,0,l),
(1188,0,l),
(1483,1480,l),
(1142,1480,l),
(1023,887,l),
(577,887,l),
(696,1480,l),
(355,1480,l)
);
}
);
width = 1472;
},
{
layerId = "ED340520-5A40-405B-AFF7-E5EF9D999D24";
shapes = (
{
closed = 1;
nodes = (
(61,0,l),
(369,0,l),
(503,675,l),
(1020,675,l),
(886,0,l),
(1194,0,l),
(1489,1480,l),
(1181,1480,l),
(1061,879,l),
(544,879,l),
(664,1480,l),
(356,1480,l)
);
}
);
width = 1479;
}
);
unicode = 72;
},
{
glyphname = I;
layers = (
{
layerId = "5E5F26D6-8E6E-4FD0-9F5C-925EECC75CBD";
shapes = (
{
closed = 1;
nodes = (
(35,0,l),
(551,0,l),
(578,139,l),
(408,139,l),
(648,1341,l),
(818,1341,l),
(846,1480,l),
(330,1480,l),
(302,1341,l),
(472,1341,l),
(232,139,l),
(62,139,l)
);
}
);
width = 809;
},
{
layerId = "802D032B-EE86-4213-9785-3BFE9E181E39";
shapes = (
{
closed = 1;
nodes = (
(23,0,l),
(592,0,l),
(623,157,l),
(443,157,l),
(676,1323,l),
(856,1323,l),
(887,1480,l),
(318,1480,l),
(287,1323,l),
(467,1323,l),
(234,157,l),
(54,157,l)
);
}
);
width = 839;
},
{
layerId = "01EADDEA-E3EA-45FB-B4A5-8F079D2A3A41";
shapes = (
{
closed = 1;
nodes = (
(-24,0,l),
(757,0,l),
(802,228,l),
(582,228,l),
(787,1252,l),
(1007,1252,l),
(1052,1480,l),
(271,1480,l),
(226,1252,l),
(446,1252,l),
(241,228,l),
(21,228,l)
);
}
);
width = 958;
},
{
layerId = "ED340520-5A40-405B-AFF7-E5EF9D999D24";
shapes = (
{
closed = 1;
nodes = (
(-12,0,l),
(716,0,l),
(757,210,l),
(547,210,l),
(759,1270,l),
(969,1270,l),
(1011,1480,l),
(283,1480,l),
(241,1270,l),
(451,1270,l),
(239,210,l),
(29,210,l)
);
}
);
width = 928;
}
);
unicode = 73;
},
{
glyphname = J;
layers = (
{
layerId = "5E5F26D6-8E6E-4FD0-9F5C-925EECC75CBD";
shapes = (
{
closed = 1;
nodes = (
(-63,34,l),
(11,-13,o),
(100,-37,o),
(211,-37,cs),
(533,-37,o),
(692,100,o),
(761,436,cs),
(969,1480,l),
(545,1480,l),
(518,1342,l),
(765,1342,l),
(584,438,ls),
(540,218,o),
(441,117,o),
(254,117,cs),
(159,117,o),
(63,146,o),
(-31,201,c)
);
}
);
width = 1003;
},
{
layerId = "802D032B-EE86-4213-9785-3BFE9E181E39";
shapes = (
{
closed = 1;
nodes = (
(-75,27,l),
(10,-15,o),
(108,-37,o),
(220,-37,cs),
(538,-37,o),
(733,122,o),
(799,446,cs),
(1005,1480,l),
(545,1480,l),
(514,1324,l),
(764,1324,l),
(587,439,ls),
(544,224,o),
(446,131,o),
(260,131,cs),
(160,131,o),
(60,157,o),
(-40,208,c)
);
}
);
width = 1037;
},
{
layerId = "01EADDEA-E3EA-45FB-B4A5-8F079D2A3A41";
shapes = (
{
closed = 1;
nodes = (
(-123,0,l),
(4,-24,o),
(138,-37,o),
(254,-37,cs),
(674,-37,o),
(876,120,o),
(949,486,cs),
(1148,1480,l),
(544,1480,l),
(498,1252,l),
(761,1252,l),
(599,444,ls),
(560,251,o),
(481,186,o),
(282,186,cs),
(164,186,o),
(46,202,o),
(-76,235,c)
);
}
);
width = 1173;
},
{
layerId = "ED340520-5A40-405B-AFF7-E5EF9D999D24";
shapes = (
{
closed = 1;
nodes = (
(-111,7,l),
(5,-22,o),
(130,-37,o),
(245,-37,cs),
(640,-37,o),
(839,118,o),
(911,476,cs),
(1112,1480,l),
(544,1480,l),
(502,1270,l),
(762,1270,l),
(596,443,ls),
(554,236,o),
(479,172,o),
(276,172,cs),
(163,172,o),
(49,191,o),
(-67,228,c)
);
}
);
width = 1139;
}
);
unicode = 74;
},
{
glyphname = K;
layers = (
{
layerId = "5E5F26D6-8E6E-4FD0-9F5C-925EECC75CBD";
shapes = (
{
closed = 1;
nodes = (
(417,753,l),
(944,0,l),
(1171,0,l),
(618,760,l),
(1370,1480,l),
(1173,1480,l)
);
},
{
closed = 1;
nodes = (
(100,0,l),
(264,0,l),
(559,1480,l),
(395,1480,l)
);
}
);
width = 1358;
},
{
layerId = "802D032B-EE86-4213-9785-3BFE9E181E39";
shapes = (
{
closed = 1;
nodes = (
(436,751,l),
(950,0,l),
(1216,0,l),
(671,774,l),
(1408,1480,l),
(1197,1480,l)
);
},
{
closed = 1;
nodes = (
(90,0,l),
(287,0,l),
(582,1480,l),
(385,1480,l)
);
}
);
width = 1388;
},
{
layerId = "01EADDEA-E3EA-45FB-B4A5-8F079D2A3A41";
shapes = (
{
closed = 1;
nodes = (
(510,743,l),
(973,0,l),
(1397,0,l),
(882,830,l),
(1561,1480,l),
(1292,1480,l)
);
},
{
closed = 1;
nodes = (
(51,0,l),
(380,0,l),
(675,1480,l),
(346,1480,l)
);
}
);
width = 1509;
},
{
layerId = "ED340520-5A40-405B-AFF7-E5EF9D999D24";
shapes = (
{
closed = 1;
nodes = (
(491,745,l),
(967,0,l),
(1352,0,l),
(829,816,l),
(1523,1480,l),
(1268,1480,l)
);
},
{
closed = 1;
nodes = (
(61,0,l),
(357,0,l),
(652,1480,l),
(356,1480,l)
);
}
);
width = 1479;
}
);
unicode = 75;
},
{
glyphname = L;
layers = (
{
layerId = "5E5F26D6-8E6E-4FD0-9F5C-925EECC75CBD";
shapes = (
{
closed = 1;
nodes = (
(65,0,l),
(960,0,l),
(987,139,l),
(270,139,l),
(537,1480,l),
(360,1480,l)
);
}
);
width = 1131;
},
{
layerId = "802D032B-EE86-4213-9785-3BFE9E181E39";
shapes = (
{
closed = 1;
nodes = (
(64,0,l),
(1000,0,l),
(1031,157,l),
(305,157,l),
(569,1480,l),
(359,1480,l)
);
}
);
width = 1161;
},
{
layerId = "01EADDEA-E3EA-45FB-B4A5-8F079D2A3A41";
shapes = (
{
closed = 1;
nodes = (
(60,0,l),
(1161,0,l),
(1206,228,l),
(445,228,l),
(696,1480,l),
(355,1480,l)
);
}
);
width = 1281;
},
{
layerId = "ED340520-5A40-405B-AFF7-E5EF9D999D24";
shapes = (
{
closed = 1;
nodes = (
(61,0,l),
(1121,0,l),
(1162,210,l),
(410,210,l),
(664,1480,l),
(356,1480,l)
);
}
);
width = 1251;
}
);
unicode = 76;
},
{
glyphname = M;
layers = (
{
layerId = "5E5F26D6-8E6E-4FD0-9F5C-925EECC75CBD";
shapes = (
{
closed = 1;
nodes = (
(65,0,l),
(226,0,l),
(472,1232,l),
(671,99,l),
(859,99,l),
(1525,1232,l),
(1279,0,l),
(1446,0,l),
(1741,1480,l),
(1514,1480,l),
(821,300,l),
(612,1480,l),
(360,1480,l)
);
}
);
width = 1735;
},
{
layerId = "802D032B-EE86-4213-9785-3BFE9E181E39";
shapes = (
{
closed = 1;
nodes = (
(64,0,l),
(245,0,l),
(486,1207,l),
(656,99,l),
(859,99,l),
(1484,1203,l),
(1244,0,l),
(1440,0,l),
(1735,1480,l),
(1475,1480,l),
(828,335,l),
(650,1480,l),
(359,1480,l)
);
}
);
width = 1728;
},
{
layerId = "01EADDEA-E3EA-45FB-B4A5-8F079D2A3A41";
shapes = (
{
closed = 1;
nodes = (
(60,0,l),
(322,0,l),
(543,1107,l),
(597,99,l),
(860,99,l),
(1320,1088,l),
(1103,0,l),
(1416,0,l),
(1711,1480,l),
(1320,1480,l),
(855,474,l),
(802,1480,l),
(355,1480,l)
);
}
);
width = 1699;
},
{
layerId = "ED340520-5A40-405B-AFF7-E5EF9D999D24";
shapes = (
{
closed = 1;
nodes = (
(61,0,l),
(303,0,l),
(529,1132,l),
(612,99,l),
(860,99,l),
(1361,1117,l),
(1138,0,l),
(1422,0,l),
(1717,1480,l),
(1359,1480,l),
(848,439,l),
(764,1480,l),
(356,1480,l)
);
}
);
width = 1706;
}
);
unicode = 77;
},
{
glyphname = N;
layers = (
{
layerId = "5E5F26D6-8E6E-4FD0-9F5C-925EECC75CBD";
shapes = (
{
closed = 1;
nodes = (
(65,0,l),
(223,0,l),
(459,1187,l),
(1035,0,l),
(1218,0,l),
(1513,1480,l),
(1355,1480,l),
(1119,293,l),
(543,1480,l),
(360,1480,l)
);
}
);
width = 1508;
},
{
layerId = "802D032B-EE86-4213-9785-3BFE9E181E39";
shapes = (
{
closed = 1;
nodes = (
(64,0,l),
(244,0,l),
(472,1143,l),
(1006,0,l),
(1212,0,l),
(1507,1480,l),
(1327,1480,l),
(1099,337,l),
(564,1480,l),
(359,1480,l)
);
}
);
width = 1501;
},
{
layerId = "01EADDEA-E3EA-45FB-B4A5-8F079D2A3A41";
shapes = (
{
closed = 1;
nodes = (
(60,0,l),
(329,0,l),
(523,967,l),
(890,0,l),
(1188,0,l),
(1483,1480,l),
(1214,1480,l),
(1020,513,l),
(648,1480,l),
(355,1480,l)
);
}
);
width = 1472;
},
{
layerId = "ED340520-5A40-405B-AFF7-E5EF9D999D24";
shapes = (
{
closed = 1;
nodes = (
(61,0,l),
(308,0,l),
(510,1011,l),
(919,0,l),
(1194,0,l),
(1489,1480,l),
(1242,1480,l),
(1040,469,l),
(627,1480,l),
(356,1480,l)
);
}
);
width = 1479;
}
);
unicode = 78;
},
{
glyphname = O;
layers = (
{
layerId = "5E5F26D6-8E6E-4FD0-9F5C-925EECC75CBD";
shapes = (
{
closed = 1;
nodes = (
(1112,-37,o),
(1453,269,o),
(1548,743,cs),
(1638,1202,o),
(1423,1517,o),
(1003,1517,cs),
(582,1517,o),
(240,1203,o),
(147,740,cs),
(55,282,o),
(269,-37,o),
(682,-37,cs)
);
},
{
closed = 1;
nodes = (
(400,104,o),
(258,343,o),
(338,740,cs),
(416,1135,o),
(648,1375,o),
(974,1375,cs),
(1293,1375,o),
(1436,1139,o),
(1357,743,cs),
(1275,335,o),
(1041,104,o),
(712,104,cs)
);
}
);
width = 1622;
},
{
layerId = "802D032B-EE86-4213-9785-3BFE9E181E39";
shapes = (
{
closed = 1;
nodes = (
(1116,-37,o),
(1453,265,o),
(1548,743,cs),
(1640,1208,o),
(1425,1517,o),
(999,1517,cs),
(571,1517,o),
(233,1208,o),
(139,740,cs),
(46,276,o),
(259,-37,o),
(678,-37,cs)
);
},
{
closed = 1;
nodes = (
(416,120,o),
(287,354,o),
(364,740,cs),
(441,1128,o),
(663,1360,o),
(967,1360,cs),
(1268,1360,o),
(1400,1129,o),
(1323,743,cs),
(1244,346,o),
(1022,120,o),
(712,120,cs)
);
}
);
width = 1615;
},
{
layerId = "01EADDEA-E3EA-45FB-B4A5-8F079D2A3A41";
shapes = (
{
closed = 1;
nodes = (
(1131,-37,o),
(1452,250,o),
(1549,743,cs),
(1647,1233,o),
(1433,1517,o),
(984,1517,cs),
(528,1517,o),
(205,1228,o),
(107,740,cs),
(10,253,o),
(220,-37,o),
(662,-37,cs)
);
},
{
closed = 1;
nodes = (
(481,183,o),
(402,399,o),
(468,740,cs),
(541,1101,o),
(722,1299,o),
(940,1299,cs),
(1169,1299,o),
(1257,1089,o),
(1188,744,cs),
(1120,389,o),
(947,183,o),
(712,183,cs)
);
}
);
width = 1586;
},
{
layerId = "ED340520-5A40-405B-AFF7-E5EF9D999D24";
shapes = (
{
closed = 1;
nodes = (
(1127,-37,o),
(1452,254,o),
(1549,743,cs),
(1645,1227,o),
(1431,1517,o),
(988,1517,cs),
(539,1517,o),
(212,1223,o),
(115,740,cs),
(19,259,o),
(230,-37,o),
(666,-37,cs)
);
},
{
closed = 1;
nodes = (
(465,167,o),
(373,388,o),
(442,740,cs),
(516,1108,o),
(707,1314,o),
(947,1314,cs),
(1194,1314,o),
(1293,1099,o),
(1222,744,cs),
(1151,378,o),
(966,167,o),
(712,167,cs)
);
}
);
width = 1593;
}
);
unicode = 79;
},
{
glyphname = P;
layers = (
{
layerId = "5E5F26D6-8E6E-4FD0-9F5C-925EECC75CBD";
shapes = (
{
closed = 1;
nodes = (
(68,0,l),
(247,0,l),
(359,564,l),
(645,564,ls),
(1070,564,o),
(1319,736,o),
(1387,1080,cs),
(1409,1193,o),
(1402,1285,o),
(1364,1347,cs),
(1303,1448,o),
(1221,1480,o),
(922,1480,cs),
(363,1480,l)
);
},
{
closed = 1;
nodes = (
(388,708,l),
(514,1338,l),
(798,1338,ls),
(1154,1338,o),
(1238,1288,o),
(1194,1070,cs),
(1146,829,o),
(975,708,o),
(685,708,cs)
);
}
);
width = 1395;
},
{
layerId = "802D032B-EE86-4213-9785-3BFE9E181E39";
shapes = (
{
closed = 1;
nodes = (
(66,0,l),
(276,0,l),
(389,568,l),
(657,568,ls),
(1078,568,o),
(1325,739,o),
(1393,1082,cs),
(1415,1196,o),
(1407,1288,o),
(1367,1351,cs),
(1301,1455,o),
(1210,1480,o),
(901,1480,cs),
(361,1480,l)
);
},
{
closed = 1;
nodes = (
(421,727,l),
(540,1323,l),
(804,1323,ls),
(1126,1323,o),
(1209,1271,o),
(1168,1067,cs),
(1123,840,o),
(959,727,o),
(680,727,cs)
);
}
);
width = 1388;
},
{
layerId = "01EADDEA-E3EA-45FB-B4A5-8F079D2A3A41";
shapes = (
{
closed = 1;
nodes = (
(59,0,l),
(392,0,l),
(508,584,l),
(704,584,ls),
(1111,584,o),
(1349,752,o),
(1417,1089,cs),
(1440,1209,o),
(1427,1301,o),
(1378,1367,cs),
(1292,1482,o),
(1166,1480,o),
(817,1480,cs),
(354,1480,l)
);
},
{
closed = 1;
nodes = (
(552,802,l),
(644,1262,l),
(829,1262,ls),
(1014,1262,o),
(1093,1204,o),
(1064,1054,cs),
(1030,885,o),
(896,802,o),
(660,802,cs)
);
}
);
width = 1359;
},
{
layerId = "ED340520-5A40-405B-AFF7-E5EF9D999D24";
shapes = (
{
closed = 1;
nodes = (
(61,0,l),
(363,0,l),
(478,580,l),
(692,580,ls),
(1103,580,o),
(1343,749,o),
(1411,1087,cs),
(1434,1206,o),
(1422,1298,o),
(1375,1363,cs),
(1294,1475,o),
(1177,1480,o),
(838,1480,cs),
(356,1480,l)
);
},
{
closed = 1;
nodes = (
(519,783,l),
(618,1277,l),
(823,1277,ls),
(1042,1277,o),
(1122,1221,o),
(1090,1057,cs),
(1053,874,o),
(912,783,o),
(665,783,cs)
);
}
);
width = 1366;
}
);
unicode = 80;
},
{
glyphname = Q;
layers = (
{
layerId = "5E5F26D6-8E6E-4FD0-9F5C-925EECC75CBD";
shapes = (
{
closed = 1;
nodes = (
(1479,-139,l),
(1303,-103,o),
(1149,-47,o),
(1009,29,c),
(1297,156,o),
(1479,392,o),
(1548,737,cs),
(1641,1205,o),
(1423,1517,o),
(997,1517,cs),
(582,1517,o),
(239,1200,o),
(147,740,cs),
(57,291,o),
(272,-38,o),
(663,-38,cs),
(702,-38,o),
(756,-34,o),
(828,-25,c),
(961,-127,o),
(1130,-218,o),
(1337,-296,c)
);
},
{
closed = 1;
nodes = (
(1277,337,o),
(1028,104,o),
(713,104,cs),
(401,104,o),
(258,346,o),
(337,737,cs),
(417,1134,o),
(655,1375,o),
(967,1375,cs),
(1124,1375,o),
(1237,1326,o),
(1307,1229,c),
(1381,1113,o),
(1398,946,o),
(1354,728,cs)
);
}
);
width = 1622;
},
{
layerId = "802D032B-EE86-4213-9785-3BFE9E181E39";
shapes = (
{
closed = 1;
nodes = (
(1512,-129,l),
(1332,-97,o),
(1168,-44,o),
(1018,30,c),
(1302,163,o),
(1480,399,o),
(1548,738,cs),
(1642,1210,o),
(1426,1517,o),
(995,1517,cs),
(571,1517,o),
(232,1206,o),
(139,740,cs),
(48,286,o),
(261,-38,o),
(660,-38,cs),
(696,-38,o),
(747,-34,o),
(815,-27,c),
(951,-130,o),
(1127,-220,o),
(1345,-296,c)
);
},
{
closed = 1;
nodes = (
(1245,348,o),
(1013,120,o),
(714,120,cs),
(417,120,o),
(286,355,o),
(364,740,cs),
(441,1125,o),
(666,1360,o),
(962,1360,cs),
(1116,1360,o),
(1225,1305,o),
(1287,1196,cs),
(1349,1086,o),
(1361,931,o),
(1321,731,cs)
);
}
);
width = 1615;
},
{
layerId = "01EADDEA-E3EA-45FB-B4A5-8F079D2A3A41";
shapes = (
{
closed = 1;
nodes = (
(1643,-88,l),
(1447,-72,o),
(1244,-31,o),
(1055,35,c),
(1322,190,o),
(1485,426,o),
(1549,743,cs),
(1646,1229,o),
(1438,1517,o),
(986,1517,cs),
(528,1517,o),
(205,1229,o),
(107,740,cs),
(13,265,o),
(218,-37,o),
(649,-37,cs),
(673,-37,o),
(711,-35,o),
(762,-34,c),
(910,-141,o),
(1116,-228,o),
(1378,-296,c)
);
},
{
closed = 1;
nodes = (
(1117,393,o),
(952,183,o),
(719,183,cs),
(480,183,o),
(398,391,o),
(471,752,cs),
(537,1089,o),
(711,1299,o),
(942,1299,cs),
(1084,1299,o),
(1177,1221,o),
(1207,1065,c),
(1220,977,o),
(1214,870,o),
(1188,743,cs)
);
}
);
width = 1586;
},
{
layerId = "ED340520-5A40-405B-AFF7-E5EF9D999D24";
shapes = (
{
closed = 1;
nodes = (
(1610,-98,l),
(1418,-78,o),
(1225,-34,o),
(1046,34,c),
(1317,183,o),
(1484,419,o),
(1549,742,cs),
(1645,1224,o),
(1435,1517,o),
(988,1517,cs),
(539,1517,o),
(212,1223,o),
(115,740,cs),
(22,270,o),
(229,-37,o),
(652,-37,cs),
(679,-37,o),
(720,-35,o),
(775,-32,c),
(920,-138,o),
(1119,-226,o),
(1370,-296,c)
);
},
{
closed = 1;
nodes = (
(1149,382,o),
(967,167,o),
(718,167,cs),
(464,167,o),
(370,382,o),
(444,749,cs),
(513,1098,o),
(700,1314,o),
(947,1314,cs),
(1092,1314,o),
(1189,1242,o),
(1227,1098,cs),
(1252,1004,o),
(1251,885,o),
(1221,740,cs)
);
}
);
width = 1593;
}
);
unicode = 81;
},
{
glyphname = R;
layers = (
{
layerId = "5E5F26D6-8E6E-4FD0-9F5C-925EECC75CBD";
shapes = (
{
closed = 1;
nodes = (
(65,0,l),
(248,0,l),
(375,633,l),
(801,633,l),
(1097,0,l),
(1326,0,l),
(967,694,l),
(1172,770,o),
(1281,878,o),
(1352,1059,c),
(1426,1339,o),
(1298,1480,o),
(969,1480,cs),
(360,1480,l)
);
},
{
closed = 1;
nodes = (
(403,775,l),
(515,1338,l),
(849,1338,ls),
(1115,1338,o),
(1199,1269,o),
(1166,1096,cs),
(1119,867,o),
(965,775,o),
(662,775,cs)
);
}
);
width = 1508;
},
{
layerId = "802D032B-EE86-4213-9785-3BFE9E181E39";
shapes = (
{
closed = 1;
nodes = (
(64,0,l),
(274,0,l),
(399,626,l),
(779,626,l),
(1075,0,l),
(1333,0,l),
(977,693,l),
(1192,775,o),
(1320,915,o),
(1360,1113,cs),
(1408,1357,o),
(1280,1480,o),
(977,1480,cs),
(359,1480,l)
);
},
{
closed = 1;
nodes = (
(430,783,l),
(538,1323,l),
(838,1323,ls),
(1087,1323,o),
(1172,1255,o),
(1140,1092,cs),
(1096,875,o),
(948,783,o),
(665,783,cs)
);
}
);
width = 1501;
},
{
layerId = "01EADDEA-E3EA-45FB-B4A5-8F079D2A3A41";
shapes = (
{
closed = 1;
nodes = (
(60,0,l),
(377,0,l),
(495,598,l),
(690,598,l),
(986,0,l),
(1361,0,l),
(1018,690,l),
(1271,796,o),
(1476,1062,o),
(1391,1328,c),
(1336,1430,o),
(1209,1480,o),
(1009,1480,cs),
(355,1480,l)
);
},
{
closed = 1;
nodes = (
(539,816,l),
(629,1262,l),
(793,1262,ls),
(975,1262,o),
(1064,1198,o),
(1037,1075,c),
(1003,906,o),
(879,816,o),
(677,816,cs)
);
}
);
width = 1472;
},
{
layerId = "ED340520-5A40-405B-AFF7-E5EF9D999D24";
shapes = (
{
closed = 1;
nodes = (
(61,0,l),
(351,0,l),
(471,605,l),
(712,605,l),
(1008,0,l),
(1354,0,l),
(1008,691,l),
(1251,791,o),
(1437,1025,o),
(1383,1274,cs),
(1354,1412,o),
(1227,1480,o),
(1001,1480,cs),
(356,1480,l)
);
},
{
closed = 1;
nodes = (
(512,808,l),
(606,1277,l),
(804,1277,ls),
(1003,1277,o),
(1091,1212,o),
(1063,1079,cs),
(1026,898,o),
(896,808,o),
(674,808,cs)
);
}
);
width = 1479;
}
);
unicode = 82;
},
{
glyphname = S;
layers = (
{
layerId = "5E5F26D6-8E6E-4FD0-9F5C-925EECC75CBD";
shapes = (
{
closed = 1;
nodes = (
(41,65,l),
(236,0,o),
(437,-37,o),
(641,-37,cs),
(969,-37,o),
(1161,163,o),
(1206,383,cs),
(1246,587,o),
(1171,713,o),
(890,803,c),
(669,879,l),
(464,944,o),
(411,1019,o),
(436,1140,cs),
(466,1289,o),
(601,1375,o),
(808,1375,cs),
(979,1375,o),
(1141,1340,o),
(1295,1271,c),
(1331,1450,l),
(1178,1495,o),
(1022,1517,o),
(862,1517,cs),
(524,1517,o),
(333,1393,o),
(266,1144,c),
(219,947,o),
(327,791,o),
(554,717,cs),
(754,650,ls),
(989,568,o),
(1052,511,o),
(1021,358,cs),
(987,188,o),
(866,105,o),
(661,105,cs),
(442,105,o),
(248,155,o),
(79,258,c)
);
}
);
width = 1395;
},
{
layerId = "802D032B-EE86-4213-9785-3BFE9E181E39";
shapes = (
{
closed = 1;
nodes = (
(29,52,l),
(213,-3,o),
(402,-37,o),
(594,-37,cs),
(924,-37,o),
(1166,126,o),
(1219,390,cs),
(1262,606,o),
(1176,722,o),
(883,824,cs),
(691,891,ls),
(486,962,o),
(433,1021,o),
(457,1140,cs),
(486,1285,o),
(609,1360,o),
(825,1360,cs),
(990,1360,o),
(1149,1327,o),
(1301,1261,c),
(1340,1454,l),
(1189,1496,o),
(1032,1517,o),
(870,1517,cs),
(510,1517,o),
(302,1383,o),
(249,1115,cs),
(211,925,o),
(312,788,o),
(554,703,cs),
(742,637,ls),
(959,558,o),
(1027,509,o),
(997,359,cs),
(965,199,o),
(843,120,o),
(632,120,cs),
(428,120,o),
(241,166,o),
(70,260,c)
);
}
);
width = 1388;
},
{
layerId = "01EADDEA-E3EA-45FB-B4A5-8F079D2A3A41";
shapes = (
{
closed = 1;
nodes = (
(-20,0,l),
(122,-14,o),
(262,-38,o),
(406,-38,cs),
(744,-38,o),
(1185,-21,o),
(1272,418,cs),
(1325,683,o),
(1195,759,o),
(854,907,cs),
(778,940,l),
(574,1033,o),
(520,1030,o),
(540,1140,c),
(566,1269,o),
(642,1299,o),
(892,1299,cs),
(1035,1299,o),
(1180,1274,o),
(1326,1222,c),
(1375,1470,l),
(1232,1501,o),
(1073,1517,o),
(902,1517,cs),
(453,1517,o),
(179,1344,o),
(180,998,c),
(180,836,o),
(252,775,o),
(555,646,cs),
(694,585,l),
(839,518,o),
(927,502,o),
(901,364,cs),
(877,243,o),
(750,181,o),
(517,181,cs),
(373,181,o),
(212,210,o),
(33,267,c)
);
}
);
width = 1359;
},
{
layerId = "ED340520-5A40-405B-AFF7-E5EF9D999D24";
shapes = (
{
closed = 1;
nodes = (
(-8,13,l),
(145,-11,o),
(297,-38,o),
(453,-38,cs),
(789,-38,o),
(1180,16,o),
(1259,411,cs),
(1309,664,o),
(1190,750,o),
(861,886,cs),
(756,928,l),
(552,1015,o),
(498,1028,o),
(519,1140,cs),
(546,1273,o),
(634,1314,o),
(875,1314,cs),
(1024,1314,o),
(1172,1287,o),
(1320,1232,c),
(1366,1466,l),
(1221,1500,o),
(1063,1517,o),
(894,1517,cs),
(467,1517,o),
(210,1354,o),
(197,1027,cs),
(188,858,o),
(267,778,o),
(555,660,cs),
(706,598,ls),
(869,528,o),
(952,504,o),
(925,363,cs),
(899,232,o),
(773,166,o),
(546,166,cs),
(387,166,o),
(219,199,o),
(42,265,c)
);
}
);
width = 1366;
}
);
unicode = 83;
},
{
glyphname = T;
layers = (
{
layerId = "5E5F26D6-8E6E-4FD0-9F5C-925EECC75CBD";
shapes = (
{
closed = 1;
nodes = (
(439,0,l),
(616,0,l),
(884,1342,l),
(1406,1342,l),
(1434,1480,l),
(211,1480,l),
(184,1342,l),
(706,1342,l)
);
}
);
width = 1280;
},
{
layerId = "802D032B-EE86-4213-9785-3BFE9E181E39";
shapes = (
{
closed = 1;
nodes = (
(419,0,l),
(629,0,l),
(893,1323,l),
(1393,1323,l),
(1424,1480,l),
(214,1480,l),
(183,1323,l),
(683,1323,l)
);
}
);
width = 1273;
},
{
layerId = "01EADDEA-E3EA-45FB-B4A5-8F079D2A3A41";
shapes = (
{
closed = 1;
nodes = (
(340,0,l),
(681,0,l),
(930,1248,l),
(1340,1248,l),
(1385,1480,l),
(226,1480,l),
(180,1248,l),
(590,1248,l)
);
}
);
width = 1244;
},
{
layerId = "ED340520-5A40-405B-AFF7-E5EF9D999D24";
shapes = (
{
closed = 1;
nodes = (
(360,0,l),
(668,0,l),
(921,1267,l),
(1353,1267,l),
(1395,1480,l),
(223,1480,l),
(181,1267,l),
(613,1267,l)
);
}
);
width = 1251;
}
);
unicode = 84;
},
{
glyphname = U;
layers = (
{
layerId = "5E5F26D6-8E6E-4FD0-9F5C-925EECC75CBD";
shapes = (
{
closed = 1;
nodes = (
(366,1480,l),
(178,539,ls),
(151,402,o),
(150,288,o),
(179,196,cs),
(230,32,o),
(374,-37,o),
(648,-37,cs),
(804,-37,o),
(934,-4,o),
(1040,61,cs),
(1202,160,o),
(1263,267,o),
(1319,532,cs),
(1508,1480,l),
(1352,1480,l),
(1163,535,ls),
(1096,204,o),
(982,104,o),
(690,104,cs),
(470,104,o),
(344,191,o),
(330,316,c),
(324,360,o),
(335,434,o),
(355,537,cs),
(543,1480,l)
);
}
);
width = 1508;
},
{
layerId = "802D032B-EE86-4213-9785-3BFE9E181E39";
shapes = (
{
closed = 1;
nodes = (
(360,1480,l),
(174,548,ls),
(147,412,o),
(145,301,o),
(170,214,cs),
(217,45,o),
(370,-37,o),
(646,-37,cs),
(802,-37,o),
(933,-3,o),
(1040,64,cs),
(1202,165,o),
(1264,274,o),
(1319,542,cs),
(1506,1480,l),
(1322,1480,l),
(1134,539,ls),
(1071,227,o),
(956,120,o),
(689,120,cs),
(493,120,o),
(380,196,o),
(363,314,c),
(354,363,o),
(363,440,o),
(384,546,cs),
(570,1480,l)
);
}
);
width = 1501;
},
{
layerId = "01EADDEA-E3EA-45FB-B4A5-8F079D2A3A41";
shapes = (
{
closed = 1;
nodes = (
(337,1480,l),
(158,583,ls),
(132,453,o),
(125,354,o),
(134,286,c),
(165,97,o),
(355,-37,o),
(637,-37,cs),
(795,-37,o),
(929,0,o),
(1039,75,cs),
(1202,186,o),
(1267,303,o),
(1320,581,cs),
(1499,1480,l),
(1203,1480,l),
(1018,554,ls),
(970,318,o),
(851,183,o),
(686,183,cs),
(585,183,o),
(525,215,o),
(495,305,c),
(474,374,o),
(475,465,o),
(499,582,cs),
(678,1480,l)
);
}
);
width = 1472;
},
{
layerId = "ED340520-5A40-405B-AFF7-E5EF9D999D24";
shapes = (
{
closed = 1;
nodes = (
(343,1480,l),
(162,574,ls),
(136,443,o),
(130,341,o),
(143,268,cs),
(178,84,o),
(359,-37,o),
(639,-37,cs),
(797,-37,o),
(930,-1,o),
(1039,72,cs),
(1202,181,o),
(1266,296,o),
(1320,571,cs),
(1501,1480,l),
(1233,1480,l),
(1047,550,ls),
(995,295,o),
(877,167,o),
(687,167,cs),
(562,167,o),
(489,210,o),
(462,307,cs),
(444,371,o),
(447,459,o),
(470,573,cs),
(651,1480,l)
);
}
);
width = 1479;
}
);
unicode = 85;
},
{
glyphname = V;
layers = (
{
layerId = "5E5F26D6-8E6E-4FD0-9F5C-925EECC75CBD";
shapes = (
{
closed = 1;
nodes = (
(532,0,l),
(694,0,l),
(1557,1480,l),
(1394,1480,l),
(665,228,l),
(416,1480,l),
(237,1480,l)
);
}
);
width = 1395;
},
{
layerId = "802D032B-EE86-4213-9785-3BFE9E181E39";
shapes = (
{
closed = 1;
nodes = (
(506,0,l),
(704,0,l),
(1549,1480,l),
(1370,1480,l),
(675,265,l),
(446,1480,l),
(230,1480,l)
);
}
);
width = 1388;
},
{
layerId = "01EADDEA-E3EA-45FB-B4A5-8F079D2A3A41";
shapes = (
{
closed = 1;
nodes = (
(401,0,l),
(745,0,l),
(1517,1480,l),
(1273,1480,l),
(714,412,l),
(567,1480,l),
(201,1480,l)
);
}
);
width = 1359;
},
{
layerId = "ED340520-5A40-405B-AFF7-E5EF9D999D24";
shapes = (
{
closed = 1;
nodes = (
(427,0,l),
(735,0,l),
(1525,1480,l),
(1297,1480,l),
(704,375,l),
(537,1480,l),
(208,1480,l)
);
}
);
width = 1366;
}
);
unicode = 86;
},
{
glyphname = W;
layers = (
{
layerId = "5E5F26D6-8E6E-4FD0-9F5C-925EECC75CBD";
shapes = (
{
closed = 1;
nodes = (
(309,0,l),
(488,0,l),
(1090,1183,l),
(1214,0,l),
(1393,0,l),
(2105,1480,l),
(1950,1480,l),
(1382,298,l),
(1258,1480,l),
(1075,1480,l),
(467,282,l),
(395,1480,l),
(223,1480,l)
);
}
);
width = 1962;
},
{
layerId = "802D032B-EE86-4213-9785-3BFE9E181E39";
shapes = (
{
closed = 1;
nodes = (
(305,0,l),
(513,0,l),
(1081,1141,l),
(1183,0,l),
(1391,0,l),
(2102,1480,l),
(1931,1480,l),
(1375,322,l),
(1273,1480,l),
(1071,1480,l),
(491,311,l),
(421,1480,l),
(219,1480,l)
);
}
);
width = 1955;
},
{
layerId = "01EADDEA-E3EA-45FB-B4A5-8F079D2A3A41";
shapes = (
{
closed = 1;
nodes = (
(289,0,l),
(612,0,l),
(1044,973,l),
(1060,0,l),
(1384,0,l),
(2089,1480,l),
(1854,1480,l),
(1348,418,l),
(1332,1480,l),
(1056,1480,l),
(588,426,l),
(525,1480,l),
(204,1480,l)
);
}
);
width = 1926;
},
{
layerId = "ED340520-5A40-405B-AFF7-E5EF9D999D24";
shapes = (
{
closed = 1;
nodes = (
(293,0,l),
(587,0,l),
(1053,1015,l),
(1091,0,l),
(1386,0,l),
(2092,1480,l),
(1873,1480,l),
(1355,394,l),
(1317,1480,l),
(1060,1480,l),
(564,397,l),
(499,1480,l),
(208,1480,l)
);
}
);
width = 1933;
}
);
unicode = 87;
},
{
glyphname = X;
layers = (
{
layerId = "5E5F26D6-8E6E-4FD0-9F5C-925EECC75CBD";
shapes = (
{
closed = 1;
nodes = (
(-76,0,l),
(105,0,l),
(706,621,l),
(1035,0,l),
(1246,0,l),
(835,766,l),
(1532,1480,l),
(1350,1480,l),
(769,879,l),
(455,1480,l),
(244,1480,l),
(639,737,l)
);
}
);
width = 1395;
},
{
layerId = "802D032B-EE86-4213-9785-3BFE9E181E39";
shapes = (
{
closed = 1;
nodes = (
(-73,0,l),
(125,0,l),
(688,598,l),
(989,0,l),
(1237,0,l),
(850,770,l),
(1521,1480,l),
(1322,1480,l),
(780,905,l),
(494,1480,l),
(246,1480,l),
(618,735,l)
);
}
);
width = 1388;
},
{
layerId = "01EADDEA-E3EA-45FB-B4A5-8F079D2A3A41";
shapes = (
{
closed = 1;
nodes = (
(-60,0,l),
(206,0,l),
(617,506,l),
(805,0,l),
(1200,0,l),
(910,786,l),
(1477,1480,l),
(1211,1480,l),
(825,1008,l),
(651,1480,l),
(255,1480,l),
(535,727,l)
);
}
);
width = 1359;
},
{
layerId = "ED340520-5A40-405B-AFF7-E5EF9D999D24";
shapes = (
{
closed = 1;
nodes = (
(-63,0,l),
(186,0,l),
(635,529,l),
(851,0,l),
(1209,0,l),
(895,782,l),
(1488,1480,l),
(1239,1480,l),
(814,982,l),
(612,1480,l),
(253,1480,l),
(556,729,l)
);
}
);
width = 1366;
}
);
unicode = 88;
},
{
glyphname = Y;
layers = (
{
layerId = "5E5F26D6-8E6E-4FD0-9F5C-925EECC75CBD";
shapes = (
{
closed = 1;
nodes = (
(478,0,l),
(655,0,l),
(779,622,l),
(1534,1480,l),
(1355,1480,l),
(737,775,l),
(435,1480,l),
(228,1480,l),
(601,616,l)
);
}
);
width = 1395;
},
{
layerId = "802D032B-EE86-4213-9785-3BFE9E181E39";
shapes = (
{
closed = 1;
nodes = (
(460,0,l),
(670,0,l),
(794,622,l),
(1531,1480,l),
(1336,1480,l),
(748,795,l),
(464,1480,l),
(224,1480,l),
(583,617,l)
);
}
);
width = 1388;
},
{
layerId = "01EADDEA-E3EA-45FB-B4A5-8F079D2A3A41";
shapes = (
{
closed = 1;
nodes = (
(389,0,l),
(730,0,l),
(854,622,l),
(1519,1480,l),
(1259,1480,l),
(792,875,l),
(581,1480,l),
(207,1480,l),
(512,621,l)
);
}
);
width = 1359;
},
{
layerId = "ED340520-5A40-405B-AFF7-E5EF9D999D24";
shapes = (
{
closed = 1;
nodes = (
(407,0,l),
(715,0,l),
(839,622,l),
(1522,1480,l),
(1278,1480,l),
(781,855,l),
(552,1480,l),
(211,1480,l),
(530,620,l)
);
}
);
width = 1366;
}
);
unicode = 89;
},
{
glyphname = Z;
layers = (
{
layerId = "5E5F26D6-8E6E-4FD0-9F5C-925EECC75CBD";
shapes = (
{
closed = 1;
nodes = (
(6,0,l),
(1047,0,l),
(1078,155,l),
(253,155,l),
(1314,1338,l),
(1342,1480,l),
(352,1480,l),
(324,1338,l),
(1098,1338,l),
(36,155,l)
);
}
);
width = 1280;
},
{
layerId = "802D032B-EE86-4213-9785-3BFE9E181E39";
shapes = (
{
closed = 1;
nodes = (
(0,0,l),
(1047,0,l),
(1080,169,l),
(285,169,l),
(1311,1323,l),
(1342,1480,l),
(344,1480,l),
(313,1323,l),
(1059,1323,l),
(33,169,l)
);
}
);
width = 1273;
},
{
layerId = "01EADDEA-E3EA-45FB-B4A5-8F079D2A3A41";
shapes = (
{
closed = 1;
nodes = (
(-24,0,l),
(1046,0,l),
(1089,224,l),
(413,224,l),
(1298,1262,l),
(1341,1480,l),
(312,1480,l),
(269,1262,l),
(904,1262,l),
(20,224,l)
);
}
);
width = 1244;
},
{
layerId = "ED340520-5A40-405B-AFF7-E5EF9D999D24";
shapes = (
{
closed = 1;
nodes = (
(-18,0,l),
(1046,0,l),
(1087,210,l),
(381,210,l),
(1301,1277,l),
(1341,1480,l),
(320,1480,l),
(280,1277,l),
(943,1277,l),
(23,210,l)
);
}
);
width = 1251;
}
);
unicode = 90;
},
{
glyphname = bracketleft;
layers = (
{
layerId = "5E5F26D6-8E6E-4FD0-9F5C-925EECC75CBD";
shapes = (
{
closed = 1;
nodes = (
(-64,-296,l),
(309,-296,l),
(337,-156,l),
(113,-156,l),
(431,1439,l),
(655,1439,l),
(684,1579,l),
(311,1579,l)
);
}
);
width = 561;
},
{
layerId = "802D032B-EE86-4213-9785-3BFE9E181E39";
shapes = (
{
closed = 1;
nodes = (
(-51,-296,l),
(344,-296,l),
(374,-148,l),
(152,-148,l),
(467,1431,l),
(689,1431,l),
(719,1579,l),
(324,1579,l)
);
}
);
width = 591;
},
{
layerId = "01EADDEA-E3EA-45FB-B4A5-8F079D2A3A41";
shapes = (
{
closed = 1;
nodes = (
(0,-296,l),
(485,-296,l),
(522,-115,l),
(308,-115,l),
(610,1398,l),
(824,1398,l),
(860,1579,l),
(375,1579,l)
);
}
);
width = 712;
},
{
layerId = "ED340520-5A40-405B-AFF7-E5EF9D999D24";
shapes = (
{
closed = 1;
nodes = (
(-13,-296,l),
(450,-296,l),
(485,-123,l),
(269,-123,l),
(574,1406,l),
(790,1406,l),
(825,1579,l),
(362,1579,l)
);
}
);
width = 682;
}
);
unicode = 91;
},
{
glyphname = backslash;
layers = (
{
layerId = "5E5F26D6-8E6E-4FD0-9F5C-925EECC75CBD";
shapes = (
{
closed = 1;
nodes = (
(443,-146,l),
(324,1413,l),
(184,1413,l),
(303,-146,l)
);
}
);
width = 598;
},
{
layerId = "802D032B-EE86-4213-9785-3BFE9E181E39";
shapes = (
{
closed = 1;
nodes = (
(440,-140,l),
(339,1430,l),
(184,1430,l),
(285,-140,l)
);
}
);
width = 591;
},
{
layerId = "01EADDEA-E3EA-45FB-B4A5-8F079D2A3A41";
shapes = (
{
closed = 1;
nodes = (
(429,-117,l),
(398,1497,l),
(183,1497,l),
(214,-117,l)
);
}
);
width = 562;
},
{
layerId = "ED340520-5A40-405B-AFF7-E5EF9D999D24";
shapes = (
{
closed = 1;
nodes = (
(432,-123,l),
(383,1480,l),
(183,1480,l),
(232,-123,l)
);
}
);
width = 569;
}
);
unicode = 92;
},
{
glyphname = bracketright;
layers = (
{
layerId = "5E5F26D6-8E6E-4FD0-9F5C-925EECC75CBD";
shapes = (
{
closed = 1;
nodes = (
(655,1579,l),
(283,1579,l),
(255,1439,l),
(479,1439,l),
(160,-156,l),
(-64,-156,l),
(-92,-296,l),
(280,-296,l)
);
}
);
width = 561;
},
{
layerId = "802D032B-EE86-4213-9785-3BFE9E181E39";
shapes = (
{
closed = 1;
nodes = (
(673,1579,l),
(278,1579,l),
(248,1431,l),
(470,1431,l),
(155,-148,l),
(-67,-148,l),
(-97,-296,l),
(298,-296,l)
);
}
);
width = 591;
},
{
layerId = "01EADDEA-E3EA-45FB-B4A5-8F079D2A3A41";
shapes = (
{
closed = 1;
nodes = (
(744,1579,l),
(258,1579,l),
(221,1398,l),
(435,1398,l),
(134,-115,l),
(-80,-115,l),
(-117,-296,l),
(369,-296,l)
);
}
);
width = 712;
},
{
layerId = "ED340520-5A40-405B-AFF7-E5EF9D999D24";
shapes = (
{
closed = 1;
nodes = (
(726,1579,l),
(263,1579,l),
(228,1406,l),
(444,1406,l),
(139,-123,l),
(-77,-123,l),
(-112,-296,l),
(351,-296,l)
);
}
);
width = 682;
}
);
unicode = 93;
},
{
glyphname = asciicircum;
layers = (
{
layerId = "5E5F26D6-8E6E-4FD0-9F5C-925EECC75CBD";
shapes = (
{
closed = 1;
nodes = (
(713,703,l),
(865,703,l),
(649,1529,l),
(101,703,l),
(252,703,l),
(582,1196,l),
(581,1196,o),
(581,1196,o),
(581,1196,c)
);
}
);
width = 911;
},
{
layerId = "802D032B-EE86-4213-9785-3BFE9E181E39";
shapes = (
{
closed = 1;
nodes = (
(763,703,l),
(929,703,l),
(682,1517,l),
(109,703,l),
(274,703,l),
(615,1186,l),
(615,1186,o),
(615,1186,o),
(615,1186,c)
);
}
);
width = 982;
},
{
layerId = "01EADDEA-E3EA-45FB-B4A5-8F079D2A3A41";
shapes = (
{
closed = 1;
nodes = (
(963,703,l),
(1184,703,l),
(814,1468,l),
(140,703,l),
(361,703,l),
(748,1145,l),
(750,1145,o),
(750,1145,o),
(751,1145,c)
);
}
);
width = 1267;
},
{
layerId = "ED340520-5A40-405B-AFF7-E5EF9D999D24";
shapes = (
{
closed = 1;
nodes = (
(913,703,l),
(1120,703,l),
(781,1480,l),
(132,703,l),
(339,703,l),
(715,1155,l),
(716,1155,o),
(716,1155,o),
(717,1155,c)
);
}
);
width = 1196;
}
);
unicode = 94;
},
{
glyphname = underscore;
layers = (
{
layerId = "5E5F26D6-8E6E-4FD0-9F5C-925EECC75CBD";
shapes = (
{
closed = 1;
nodes = (
(-125,-140,l),
(1013,-140,l),
(1042,0,l),
(-97,0,l)
);
}
);
width = 1168;
},
{
layerId = "802D032B-EE86-4213-9785-3BFE9E181E39";
shapes = (
{
closed = 1;
nodes = (
(-130,-148,l),
(1008,-148,l),
(1038,0,l),
(-101,0,l)
);
}
);
width = 1161;
},
{
layerId = "01EADDEA-E3EA-45FB-B4A5-8F079D2A3A41";
shapes = (
{
closed = 1;
nodes = (
(-151,-181,l),
(987,-181,l),
(1023,0,l),
(-116,0,l)
);
}
);
width = 1132;
},
{
layerId = "ED340520-5A40-405B-AFF7-E5EF9D999D24";
shapes = (
{
closed = 1;
nodes = (
(-146,-173,l),
(992,-173,l),
(1027,0,l),
(-112,0,l)
);
}
);
width = 1139;
}
);
unicode = 95;
},
{
glyphname = grave;
layers = (
{
layerId = "5E5F26D6-8E6E-4FD0-9F5C-925EECC75CBD";
shapes = (
{
closed = 1;
nodes = (
(726,1283,l),
(549,1604,l),
(339,1604,l),
(596,1283,l)
);
}
);
width = 711;
},
{
layerId = "802D032B-EE86-4213-9785-3BFE9E181E39";
shapes = (
{
closed = 1;
nodes = (
(730,1283,l),
(553,1604,l),
(325,1604,l),
(582,1283,l)
);
}
);
width = 704;
},
{
layerId = "01EADDEA-E3EA-45FB-B4A5-8F079D2A3A41";
shapes = (
{
closed = 1;
nodes = (
(745,1283,l),
(568,1604,l),
(269,1604,l),
(526,1283,l)
);
}
);
width = 675;
},
{
layerId = "ED340520-5A40-405B-AFF7-E5EF9D999D24";
shapes = (
{
closed = 1;
nodes = (
(741,1283,l),
(564,1604,l),
(283,1604,l),
(540,1283,l)
);
}
);
width = 682;
}
);
unicode = 96;
},
{
glyphname = a;
leftMetricsKey = "=56";
rightMetricsKey = "=39";
layers = (
{
layerId = "5E5F26D6-8E6E-4FD0-9F5C-925EECC75CBD";
leftMetricsKey = "=99";
shapes = (
{
closed = 1;
nodes = (
(721,145,l),
(720,31,o),
(760,-25,o),
(842,-25,cs),
(899,-25,o),
(948,-13,o),
(993,8,c),
(995,98,l),
(976,95,o),
(963,94,o),
(956,94,cs),
(881,94,o),
(857,155,o),
(881,277,cs),
(980,771,ls),
(1027,1007,o),
(942,1106,o),
(690,1106,cs),
(569,1106,o),
(435,1078,o),
(289,1023,c),
(260,874,l),
(392,937,o),
(517,969,o),
(633,969,cs),
(780,969,o),
(839,904,o),
(813,774,cs),
(784,633,l),
(749,633,ls),
(328,633,o),
(94,510,o),
(45,267,cs),
(12,98,o),
(115,-25,o),
(306,-25,cs),
(429,-25,o),
(568,31,o),
(726,145,c)
);
},
{
closed = 1;
nodes = (
(705,234,l),
(584,159,o),
(482,123,o),
(389,123,cs),
(255,123,o),
(205,178,o),
(230,303,cs),
(261,458,o),
(418,537,o),
(702,537,c),
(765,535,l)
);
}
);
width = 1139;
},
{
layerId = "802D032B-EE86-4213-9785-3BFE9E181E39";
leftMetricsKey = "=90";
rightMetricsKey = "=45";
shapes = (
{
closed = 1;
nodes = (
(692,29,o),
(739,-25,o),
(831,-25,cs),
(885,-25,o),
(936,-14,o),
(986,7,c),
(994,116,l),
(977,113,o),
(963,112,o),
(955,112,cs),
(885,112,o),
(863,168,o),
(885,281,cs),
(983,773,ls),
(1030,1008,o),
(938,1110,o),
(681,1110,cs),
(558,1110,o),
(424,1083,o),
(282,1029,c),
(249,866,l),
(382,930,o),
(504,962,o),
(617,962,cs),
(755,962,o),
(812,899,o),
(786,773,cs),
(760,642,l),
(714,642,ls),
(311,642,o),
(86,519,o),
(37,274,cs),
(1,97,o),
(108,-25,o),
(298,-25,cs),
(418,-25,o),
(548,29,o),
(689,138,c)
);
},
{
closed = 1;
nodes = (
(681,245,l),
(575,172,o),
(483,136,o),
(396,136,cs),
(274,136,o),
(225,193,o),
(248,308,cs),
(277,454,o),
(419,528,o),
(673,528,c),
(737,526,l)
);
}
);
width = 1138;
},
{
layerId = "01EADDEA-E3EA-45FB-B4A5-8F079D2A3A41";
rightMetricsKey = "=65";
shapes = (
{
closed = 1;
nodes = (
(562,111,l),
(582,21,o),
(658,-25,o),
(790,-25,cs),
(834,-25,o),
(893,-17,o),
(965,2,c),
(997,187,l),
(982,184,o),
(969,183,o),
(957,183,cs),
(907,183,o),
(889,221,o),
(905,298,cs),
(1001,782,ls),
(1047,1011,o),
(926,1127,o),
(649,1127,cs),
(516,1127,o),
(383,1103,o),
(255,1053,c),
(212,835,l),
(343,901,o),
(459,934,o),
(559,934,cs),
(663,934,o),
(708,880,o),
(686,769,cs),
(668,679,l),
(578,679,ls),
(248,679,o),
(58,554,o),
(8,303,cs),
(-34,94,o),
(85,-25,o),
(269,-25,cs),
(378,-25,o),
(471,21,o),
(544,111,c)
);
},
{
closed = 1;
nodes = (
(590,288,l),
(547,223,o),
(494,189,o),
(431,189,cs),
(358,189,o),
(308,252,o),
(323,327,cs),
(345,437,o),
(423,491,o),
(558,491,c),
(630,491,l)
);
}
);
width = 1139;
},
{
layerId = "ED340520-5A40-405B-AFF7-E5EF9D999D24";
leftMetricsKey = "=64";
rightMetricsKey = "=59";
shapes = (
{
closed = 1;
nodes = (
(594,118,l),
(610,23,o),
(678,-25,o),
(800,-25,cs),
(847,-25,o),
(904,-16,o),
(971,3,c),
(997,169,l),
(980,166,o),
(967,165,o),
(956,165,cs),
(901,165,o),
(883,208,o),
(900,294,cs),
(997,780,ls),
(1043,1010,o),
(929,1123,o),
(657,1123,cs),
(526,1123,o),
(393,1098,o),
(262,1047,c),
(221,843,l),
(352,908,o),
(470,941,o),
(573,941,cs),
(686,941,o),
(734,885,o),
(711,770,cs),
(691,670,l),
(612,670,ls),
(264,670,o),
(65,545,o),
(15,296,cs),
(-25,95,o),
(91,-25,o),
(276,-25,cs),
(388,-25,o),
(491,23,o),
(581,118,c)
);
},
{
closed = 1;
nodes = (
(612,277,l),
(554,210,o),
(491,176,o),
(422,176,cs),
(337,176,o),
(287,237,o),
(304,322,cs),
(328,441,o),
(422,500,o),
(587,500,c),
(657,500,l)
);
}
);
width = 1139;
}
);
unicode = 97;
},
{
glyphname = b;
layers = (
{
layerId = "5E5F26D6-8E6E-4FD0-9F5C-925EECC75CBD";
shapes = (
{
closed = 1;
nodes = (
(362,699,l),
(504,868,o),
(622,954,o),
(709,954,cs),
(771,954,o),
(817,919,o),
(843,855,c),
(870,783,o),
(872,686,o),
(848,562,cs),
(789,261,o),
(656,112,o),
(462,112,cs),
(413,112,o),
(342,120,o),
(250,140,c)
);
},
{
closed = 1;
nodes = (
(538,1579,l),
(374,1579,l),
(55,-16,l),
(223,0,l),
(273,-16,o),
(332,-25,o),
(399,-25,cs),
(724,-25,o),
(952,188,o),
(1028,572,cs),
(1091,890,o),
(986,1106,o),
(760,1106,cs),
(617,1106,o),
(496,1027,o),
(396,871,c)
);
}
);
width = 1131;
},
{
layerId = "802D032B-EE86-4213-9785-3BFE9E181E39";
shapes = (
{
closed = 1;
nodes = (
(390,703,l),
(522,859,o),
(632,938,o),
(718,938,cs),
(781,938,o),
(826,903,o),
(849,835,cs),
(872,767,o),
(872,674,o),
(849,556,cs),
(791,267,o),
(666,123,o),
(479,123,cs),
(433,123,o),
(366,131,o),
(279,149,c)
);
},
{
closed = 1;
nodes = (
(565,1579,l),
(368,1579,l),
(50,-12,l),
(250,0,l),
(309,-16,o),
(370,-25,o),
(434,-25,cs),
(759,-25,o),
(989,192,o),
(1065,574,cs),
(1128,893,o),
(1022,1110,o),
(795,1110,cs),
(657,1110,o),
(534,1034,o),
(426,882,c)
);
}
);
width = 1161;
},
{
layerId = "01EADDEA-E3EA-45FB-B4A5-8F079D2A3A41";
shapes = (
{
closed = 1;
nodes = (
(503,720,l),
(595,824,o),
(672,875,o),
(753,875,cs),
(822,875,o),
(863,838,o),
(873,756,cs),
(879,702,o),
(872,627,o),
(853,532,c),
(800,290,o),
(707,168,o),
(547,168,cs),
(513,168,o),
(463,174,o),
(396,185,c)
);
},
{
closed = 1;
nodes = (
(674,1579,l),
(345,1579,l),
(31,4,l),
(359,0,l),
(452,-17,o),
(523,-25,o),
(574,-25,cs),
(900,-25,o),
(1137,209,o),
(1212,581,cs),
(1277,904,o),
(1167,1127,o),
(936,1127,cs),
(816,1127,o),
(685,1061,o),
(545,927,c)
);
}
);
width = 1281;
},
{
layerId = "ED340520-5A40-405B-AFF7-E5EF9D999D24";
shapes = (
{
closed = 1;
nodes = (
(475,716,l),
(577,833,o),
(662,891,o),
(744,891,cs),
(812,891,o),
(854,854,o),
(867,776,cs),
(877,718,o),
(872,639,o),
(852,538,cs),
(798,284,o),
(697,157,o),
(530,157,cs),
(493,157,o),
(439,163,o),
(367,176,c)
);
},
{
closed = 1;
nodes = (
(647,1579,l),
(351,1579,l),
(36,0,l),
(332,0,l),
(416,-17,o),
(485,-25,o),
(539,-25,cs),
(865,-25,o),
(1100,205,o),
(1175,579,cs),
(1240,901,o),
(1131,1123,o),
(901,1123,cs),
(776,1123,o),
(647,1054,o),
(515,916,c)
);
}
);
width = 1251;
}
);
unicode = 98;
},
{
glyphname = c;
layers = (
{
layerId = "5E5F26D6-8E6E-4FD0-9F5C-925EECC75CBD";
shapes = (
{
closed = 1;
nodes = (
(824,194,l),
(715,146,o),
(618,122,o),
(535,122,cs),
(325,122,o),
(231,269,o),
(284,538,cs),
(341,825,o),
(489,970,o),
(727,970,cs),
(789,970,o),
(867,954,o),
(956,925,c),
(986,1072,l),
(878,1094,o),
(784,1106,o),
(706,1106,cs),
(402,1106,o),
(170,883,o),
(100,538,cs),
(36,218,o),
(177,-25,o),
(441,-25,cs),
(561,-25,o),
(678,-4,o),
(792,36,c)
);
}
);
width = 1015;
},
{
layerId = "802D032B-EE86-4213-9785-3BFE9E181E39";
shapes = (
{
closed = 1;
nodes = (
(865,203,l),
(751,157,o),
(652,134,o),
(570,134,cs),
(355,134,o),
(258,281,o),
(310,541,cs),
(365,819,o),
(510,959,o),
(744,959,cs),
(810,959,o),
(894,942,o),
(994,910,c),
(1027,1074,l),
(919,1098,o),
(821,1110,o),
(733,1110,cs),
(401,1110,o),
(164,895,o),
(93,541,cs),
(27,209,o),
(178,-25,o),
(472,-25,cs),
(589,-25,o),
(709,-5,o),
(831,33,c)
);
}
);
width = 1046;
},
{
layerId = "01EADDEA-E3EA-45FB-B4A5-8F079D2A3A41";
shapes = (
{
closed = 1;
nodes = (
(1030,238,l),
(895,201,o),
(788,183,o),
(709,183,cs),
(475,183,o),
(366,328,o),
(413,554,cs),
(460,794,o),
(594,914,o),
(813,914,cs),
(893,914,o),
(1003,893,o),
(1146,851,c),
(1191,1082,l),
(1084,1113,o),
(968,1127,o),
(842,1127,cs),
(396,1127,o),
(141,944,o),
(64,553,cs),
(-10,173,o),
(181,-25,o),
(595,-25,cs),
(701,-25,o),
(832,-10,o),
(987,21,c)
);
}
);
width = 1170;
},
{
layerId = "ED340520-5A40-405B-AFF7-E5EF9D999D24";
shapes = (
{
closed = 1;
nodes = (
(989,229,l),
(859,190,o),
(754,171,o),
(674,171,cs),
(445,171,o),
(339,316,o),
(387,551,cs),
(436,800,o),
(573,925,o),
(796,925,cs),
(872,925,o),
(976,905,o),
(1108,866,c),
(1150,1080,l),
(1043,1109,o),
(931,1123,o),
(815,1123,cs),
(397,1123,o),
(147,932,o),
(71,550,cs),
(-1,182,o),
(180,-25,o),
(564,-25,cs),
(673,-25,o),
(801,-9,o),
(948,24,c)
);
}
);
width = 1139;
}
);
unicode = 99;
},
{
glyphname = d;
layers = (
{
layerId = "5E5F26D6-8E6E-4FD0-9F5C-925EECC75CBD";
shapes = (
{
closed = 1;
nodes = (
(759,382,l),
(617,213,o),
(497,128,o),
(411,128,cs),
(348,128,o),
(303,161,o),
(277,226,cs),
(249,297,o),
(247,394,o),
(273,519,cs),
(332,818,o),
(462,969,o),
(660,969,cs),
(707,969,o),
(777,959,o),
(871,942,c)
);
},
{
closed = 1;
nodes = (
(683,0,l),
(847,0,l),
(1162,1579,l),
(998,1579,l),
(899,1082,l),
(847,1098,o),
(787,1106,o),
(721,1106,cs),
(391,1106,o),
(168,889,o),
(92,510,cs),
(27,188,o),
(133,-25,o),
(361,-25,cs),
(502,-25,o),
(623,53,o),
(724,210,c)
);
}
);
width = 1131;
},
{
layerId = "802D032B-EE86-4213-9785-3BFE9E181E39";
shapes = (
{
closed = 1;
nodes = (
(762,382,l),
(630,226,o),
(519,148,o),
(434,148,cs),
(370,148,o),
(326,182,o),
(303,250,cs),
(279,318,o),
(279,410,o),
(303,529,cs),
(361,817,o),
(484,962,o),
(674,962,cs),
(719,962,o),
(785,953,o),
(873,937,c)
);
},
{
closed = 1;
nodes = (
(686,0,l),
(883,0,l),
(1198,1579,l),
(1001,1579,l),
(903,1086,l),
(843,1102,o),
(781,1110,o),
(718,1110,cs),
(389,1110,o),
(163,891,o),
(87,512,cs),
(22,191,o),
(128,-25,o),
(357,-25,cs),
(494,-25,o),
(617,51,o),
(726,203,c)
);
}
);
width = 1161;
},
{
layerId = "01EADDEA-E3EA-45FB-B4A5-8F079D2A3A41";
shapes = (
{
closed = 1;
nodes = (
(774,382,l),
(682,278,o),
(607,227,o),
(526,227,cs),
(457,227,o),
(418,265,o),
(406,346,c),
(399,401,o),
(406,475,o),
(424,570,c),
(478,813,o),
(572,934,o),
(731,934,cs),
(766,934,o),
(816,929,o),
(881,917,c)
);
},
{
closed = 1;
nodes = (
(698,0,l),
(1027,0,l),
(1342,1579,l),
(1013,1579,l),
(918,1102,l),
(827,1119,o),
(756,1127,o),
(705,1127,cs),
(382,1127,o),
(142,898,o),
(66,521,cs),
(1,202,o),
(109,-25,o),
(342,-25,cs),
(463,-25,o),
(594,42,o),
(733,175,c)
);
}
);
width = 1281;
},
{
layerId = "ED340520-5A40-405B-AFF7-E5EF9D999D24";
shapes = (
{
closed = 1;
nodes = (
(771,382,l),
(669,265,o),
(585,207,o),
(503,207,cs),
(435,207,o),
(395,244,o),
(380,322,cs),
(369,380,o),
(374,459,o),
(394,560,c),
(449,814,o),
(550,941,o),
(717,941,cs),
(754,941,o),
(808,935,o),
(879,922,c)
);
},
{
closed = 1;
nodes = (
(695,0,l),
(991,0,l),
(1306,1579,l),
(1010,1579,l),
(914,1098,l),
(831,1115,o),
(762,1123,o),
(708,1123,cs),
(384,1123,o),
(147,896,o),
(71,519,cs),
(6,199,o),
(114,-25,o),
(346,-25,cs),
(471,-25,o),
(600,44,o),
(731,182,c)
);
}
);
width = 1251;
}
);
unicode = 100;
},
{
glyphname = e;
layers = (
{
layerId = "5E5F26D6-8E6E-4FD0-9F5C-925EECC75CBD";
shapes = (
{
closed = 1;
nodes = (
(301,661,l),
(356,868,o),
(479,971,o),
(667,971,cs),
(849,971,o),
(919,868,o),
(878,661,c)
);
},
{
closed = 1;
nodes = (
(944,173,l),
(818,130,o),
(701,108,o),
(594,108,cs),
(339,108,o),
(230,245,o),
(268,519,c),
(1020,519,l),
(1019,517,o),
(1023,519,o),
(1027,522,c),
(1118,909,o),
(1008,1106,o),
(698,1106,cs),
(413,1106,o),
(183,907,o),
(108,588,cs),
(21,230,o),
(178,-25,o),
(524,-25,cs),
(646,-25,o),
(776,-5,o),
(915,34,c)
);
}
);
width = 1168;
},
{
layerId = "802D032B-EE86-4213-9785-3BFE9E181E39";
shapes = (
{
closed = 1;
nodes = (
(326,660,l),
(382,862,o),
(495,963,o),
(664,963,cs),
(827,963,o),
(888,862,o),
(848,660,c)
);
},
{
closed = 1;
nodes = (
(950,191,l),
(824,147,o),
(709,125,o),
(605,125,cs),
(364,125,o),
(260,254,o),
(294,512,c),
(1019,512,l),
(1023,532,o),
(1028,553,o),
(1032,573,cs),
(1102,930,o),
(992,1110,o),
(696,1110,cs),
(396,1110,o),
(161,892,o),
(96,556,cs),
(24,205,o),
(195,-25,o),
(530,-25,cs),
(652,-25,o),
(781,-5,o),
(918,35,c)
);
}
);
width = 1161;
},
{
layerId = "01EADDEA-E3EA-45FB-B4A5-8F079D2A3A41";
shapes = (
{
closed = 1;
nodes = (
(427,656,l),
(485,838,o),
(560,930,o),
(653,930,cs),
(740,930,o),
(765,838,o),
(729,656,c)
);
},
{
closed = 1;
nodes = (
(973,263,l),
(848,216,o),
(740,193,o),
(649,193,cs),
(465,193,o),
(380,291,o),
(397,483,c),
(1015,483,l),
(1038,593,o),
(1049,690,o),
(1051,776,c),
(1038,1014,o),
(929,1127,o),
(687,1127,cs),
(328,1127,o),
(73,832,o),
(47,427,c),
(37,106,o),
(264,-25,o),
(553,-25,cs),
(676,-25,o),
(801,-4,o),
(929,38,c)
);
}
);
width = 1132;
},
{
layerId = "ED340520-5A40-405B-AFF7-E5EF9D999D24";
shapes = (
{
closed = 1;
nodes = (
(402,657,l),
(459,844,o),
(544,938,o),
(656,938,cs),
(762,938,o),
(796,844,o),
(759,657,c)
);
},
{
closed = 1;
nodes = (
(967,245,l),
(842,199,o),
(732,176,o),
(638,176,cs),
(440,176,o),
(350,282,o),
(371,490,c),
(1016,490,l),
(1034,578,o),
(1044,656,o),
(1046,725,cs),
(1054,993,o),
(945,1123,o),
(689,1123,cs),
(345,1123,o),
(95,847,o),
(59,459,cs),
(34,131,o),
(247,-25,o),
(547,-25,cs),
(670,-25,o),
(796,-4,o),
(926,37,c)
);
}
);
width = 1139;
}
);
unicode = 101;
},
{
glyphname = f;
layers = (
{
layerId = "5E5F26D6-8E6E-4FD0-9F5C-925EECC75CBD";
shapes = (
{
closed = 1;
nodes = (
(81,0,l),
(246,0,l),
(435,946,l),
(673,946,l),
(701,1082,l),
(462,1082,l),
(496,1253,ls),
(529,1420,o),
(568,1468,o),
(672,1468,cs),
(703,1468,o),
(741,1456,o),
(783,1433,c),
(812,1578,l),
(765,1595,o),
(723,1604,o),
(685,1604,cs),
(495,1604,o),
(375,1478,o),
(325,1229,cs),
(297,1082,l),
(143,1082,l),
(115,946,l),
(269,946,l)
);
}
);
width = 561;
},
{
layerId = "802D032B-EE86-4213-9785-3BFE9E181E39";
shapes = (
{
closed = 1;
nodes = (
(74,0,l),
(272,0,l),
(459,938,l),
(684,938,l),
(714,1086,l),
(489,1086,l),
(519,1237,ls),
(551,1400,o),
(594,1456,o),
(694,1456,cs),
(728,1456,o),
(768,1444,o),
(812,1421,c),
(844,1578,l),
(793,1595,o),
(747,1604,o),
(705,1604,cs),
(497,1604,o),
(368,1474,o),
(316,1216,cs),
(291,1086,l),
(147,1086,l),
(117,938,l),
(261,938,l)
);
}
);
width = 591;
},
{
layerId = "01EADDEA-E3EA-45FB-B4A5-8F079D2A3A41";
shapes = (
{
closed = 1;
nodes = (
(47,0,l),
(376,0,l),
(556,905,l),
(728,905,l),
(767,1102,l),
(596,1102,l),
(610,1172,ls),
(640,1320,o),
(698,1407,o),
(782,1407,cs),
(828,1407,o),
(877,1396,o),
(929,1374,c),
(971,1578,l),
(906,1595,o),
(844,1604,o),
(784,1604,cs),
(506,1604,o),
(339,1458,o),
(280,1164,cs),
(267,1102,l),
(163,1102,l),
(124,905,l),
(228,905,l)
);
}
);
width = 712;
},
{
layerId = "ED340520-5A40-405B-AFF7-E5EF9D999D24";
shapes = (
{
closed = 1;
nodes = (
(54,0,l),
(350,0,l),
(532,913,l),
(717,913,l),
(754,1098,l),
(569,1098,l),
(587,1188,ls),
(618,1340,o),
(672,1419,o),
(760,1419,cs),
(803,1419,o),
(850,1408,o),
(900,1386,c),
(939,1578,l),
(878,1595,o),
(820,1604,o),
(764,1604,cs),
(504,1604,o),
(346,1462,o),
(289,1177,cs),
(273,1098,l),
(159,1098,l),
(122,913,l),
(236,913,l)
);
}
);
width = 682;
}
);
unicode = 102;
},
{
glyphname = g;
layers = (
{
layerId = "5E5F26D6-8E6E-4FD0-9F5C-925EECC75CBD";
shapes = (
{
closed = 1;
nodes = (
(780,440,l),
(636,270,o),
(520,186,o),
(432,186,cs),
(369,186,o),
(326,219,o),
(299,285,cs),
(270,357,o),
(269,453,o),
(293,575,cs),
(347,837,o),
(471,969,o),
(670,969,cs),
(717,969,o),
(787,959,o),
(880,942,c)
);
},
{
closed = 1;
nodes = (
(708,80,ls),
(659,-164,o),
(514,-291,o),
(293,-291,cs),
(192,-291,o),
(79,-265,o),
(-48,-212,c),
(-80,-368,l),
(20,-402,o),
(133,-420,o),
(259,-420,cs),
(441,-420,o),
(583,-374,o),
(683,-279,cs),
(791,-174,o),
(844,-49,o),
(913,283,cs),
(1073,1082,l),
(909,1082,l),
(856,1098,o),
(795,1106,o),
(728,1106,cs),
(402,1106,o),
(180,906,o),
(110,556,cs),
(48,249,o),
(156,33,o),
(380,33,cs),
(522,33,o),
(643,111,o),
(745,268,c)
);
}
);
width = 1131;
},
{
layerId = "802D032B-EE86-4213-9785-3BFE9E181E39";
shapes = (
{
closed = 1;
nodes = (
(779,432,l),
(646,275,o),
(537,197,o),
(451,197,cs),
(387,197,o),
(344,231,o),
(320,299,cs),
(296,367,o),
(296,458,o),
(319,574,cs),
(371,832,o),
(492,962,o),
(682,962,cs),
(726,962,o),
(792,953,o),
(880,937,c)
);
},
{
closed = 1;
nodes = (
(709,82,ls),
(662,-154,o),
(526,-271,o),
(306,-271,cs),
(204,-271,o),
(89,-244,o),
(-39,-190,c),
(-74,-361,l),
(35,-400,o),
(153,-420,o),
(280,-420,cs),
(461,-420,o),
(604,-375,o),
(708,-282,cs),
(829,-174,o),
(878,-50,o),
(949,296,cs),
(1107,1086,l),
(910,1086,l),
(850,1102,o),
(787,1110,o),
(723,1110,cs),
(399,1110,o),
(172,904,o),
(101,550,cs),
(39,242,o),
(148,25,o),
(373,25,cs),
(511,25,o),
(634,101,o),
(743,253,c)
);
}
);
width = 1161;
},
{
layerId = "01EADDEA-E3EA-45FB-B4A5-8F079D2A3A41";
shapes = (
{
closed = 1;
nodes = (
(775,399,l),
(687,295,o),
(605,242,o),
(527,242,cs),
(459,242,o),
(417,280,o),
(405,356,c),
(399,407,o),
(405,479,o),
(423,570,cs),
(467,813,o),
(576,934,o),
(729,934,cs),
(763,934,o),
(813,929,o),
(879,917,c)
);
},
{
closed = 1;
nodes = (
(713,89,ls),
(673,-114,o),
(573,-190,o),
(357,-190,cs),
(251,-190,o),
(130,-160,o),
(-4,-101,c),
(-51,-334,l),
(95,-392,o),
(233,-420,o),
(363,-420,cs),
(541,-420,o),
(689,-378,o),
(808,-294,cs),
(980,-173,o),
(1014,-55,o),
(1093,349,cs),
(1244,1102,l),
(915,1102,l),
(825,1119,o),
(754,1127,o),
(703,1127,cs),
(386,1127,o),
(140,895,o),
(65,526,cs),
(4,214,o),
(115,-8,o),
(344,-8,cs),
(466,-8,o),
(597,60,o),
(734,192,c)
);
}
);
width = 1281;
},
{
layerId = "ED340520-5A40-405B-AFF7-E5EF9D999D24";
shapes = (
{
closed = 1;
nodes = (
(776,407,l),
(677,290,o),
(588,231,o),
(508,231,cs),
(441,231,o),
(399,268,o),
(384,342,cs),
(373,397,o),
(378,474,o),
(397,571,cs),
(443,818,o),
(555,941,o),
(717,941,cs),
(754,941,o),
(808,935,o),
(879,922,c)
);
},
{
closed = 1;
nodes = (
(712,87,ls),
(670,-124,o),
(561,-210,o),
(344,-210,cs),
(239,-210,o),
(120,-181,o),
(-13,-123,c),
(-57,-341,l),
(80,-394,o),
(213,-420,o),
(342,-420,cs),
(521,-420,o),
(668,-377,o),
(783,-291,cs),
(942,-173,o),
(980,-54,o),
(1057,336,cs),
(1210,1098,l),
(914,1098,l),
(831,1115,o),
(762,1123,o),
(708,1123,cs),
(389,1123,o),
(148,897,o),
(74,532,cs),
(13,221,o),
(123,0,o),
(351,0,cs),
(477,0,o),
(606,70,o),
(736,207,c)
);
}
);
width = 1251;
}
);
unicode = 103;
},
{
glyphname = h;
layers = (
{
layerId = "5E5F26D6-8E6E-4FD0-9F5C-925EECC75CBD";
shapes = (
{
closed = 1;
nodes = (
(59,0,l),
(223,0,l),
(362,699,l),
(500,871,o),
(629,958,o),
(751,958,cs),
(803,958,o),
(836,941,o),
(848,909,cs),
(860,875,o),
(857,813,o),
(839,720,cs),
(695,0,l),
(860,0,l),
(1015,781,ls),
(1058,998,o),
(989,1106,o),
(808,1106,cs),
(666,1106,o),
(528,1027,o),
(396,871,c),
(538,1579,l),
(374,1579,l)
);
}
);
width = 1131;
},
{
layerId = "802D032B-EE86-4213-9785-3BFE9E181E39";
shapes = (
{
closed = 1;
nodes = (
(53,0,l),
(250,0,l),
(390,703,l),
(522,861,o),
(643,941,o),
(755,941,cs),
(805,941,o),
(837,925,o),
(849,894,cs),
(861,862,o),
(858,803,o),
(841,716,cs),
(698,0,l),
(896,0,l),
(1051,780,ls),
(1095,1000,o),
(1024,1110,o),
(838,1110,cs),
(698,1110,o),
(560,1034,o),
(426,882,c),
(565,1579,l),
(368,1579,l)
);
}
);
width = 1161;
},
{
layerId = "01EADDEA-E3EA-45FB-B4A5-8F079D2A3A41";
shapes = (
{
closed = 1;
nodes = (
(30,0,l),
(359,0,l),
(503,720,l),
(611,822,o),
(700,873,o),
(770,873,cs),
(813,873,o),
(841,861,o),
(852,835,c),
(864,810,o),
(863,764,o),
(850,699,cs),
(711,0,l),
(1040,0,l),
(1195,775,ls),
(1242,1009,o),
(1163,1127,o),
(959,1127,cs),
(825,1127,o),
(687,1061,o),
(545,927,c),
(674,1579,l),
(345,1579,l)
);
}
);
width = 1281;
},
{
layerId = "ED340520-5A40-405B-AFF7-E5EF9D999D24";
shapes = (
{
closed = 1;
nodes = (
(36,0,l),
(332,0,l),
(475,716,l),
(589,832,o),
(686,890,o),
(766,890,cs),
(811,890,o),
(840,877,o),
(851,850,c),
(863,823,o),
(862,774,o),
(848,703,cs),
(708,0,l),
(1004,0,l),
(1159,776,ls),
(1205,1007,o),
(1128,1123,o),
(929,1123,cs),
(793,1123,o),
(655,1054,o),
(515,916,c),
(647,1579,l),
(351,1579,l)
);
}
);
width = 1251;
}
);
unicode = 104;
},
{
glyphname = i;
layers = (
{
layerId = "5E5F26D6-8E6E-4FD0-9F5C-925EECC75CBD";
shapes = (
{
closed = 1;
nodes = (
(59,0,l),
(223,0,l),
(439,1082,l),
(275,1082,l)
);
},
{
closed = 1;
nodes = (
(304,1278,l),
(488,1278,l),
(526,1474,l),
(342,1474,l)
);
}
);
width = 505;
},
{
layerId = "802D032B-EE86-4213-9785-3BFE9E181E39";
shapes = (
{
closed = 1;
nodes = (
(53,0,l),
(250,0,l),
(467,1086,l),
(270,1086,l)
);
},
{
closed = 1;
nodes = (
(299,1283,l),
(516,1283,l),
(559,1500,l),
(342,1500,l)
);
}
);
width = 527;
},
{
layerId = "01EADDEA-E3EA-45FB-B4A5-8F079D2A3A41";
shapes = (
{
closed = 1;
nodes = (
(30,0,l),
(359,0,l),
(579,1102,l),
(250,1102,l)
);
},
{
closed = 1;
nodes = (
(280,1303,l),
(629,1303,l),
(690,1605,l),
(341,1605,l)
);
}
);
width = 614;
},
{
layerId = "ED340520-5A40-405B-AFF7-E5EF9D999D24";
shapes = (
{
closed = 1;
nodes = (
(36,0,l),
(332,0,l),
(551,1098,l),
(255,1098,l)
);
},
{
closed = 1;
nodes = (
(285,1298,l),
(601,1298,l),
(657,1579,l),
(341,1579,l)
);
}
);
width = 592;
}
);
unicode = 105;
},
{
glyphname = j;
layers = (
{
layerId = "5E5F26D6-8E6E-4FD0-9F5C-925EECC75CBD";
shapes = (
{
closed = 1;
nodes = (
(-242,-403,l),
(-225,-413,o),
(-183,-419,o),
(-122,-419,cs),
(74,-419,o),
(201,-281,o),
(256,-6,cs),
(474,1082,l),
(308,1082,l),
(92,0,ls),
(41,-239,o),
(10,-283,o),
(-105,-283,cs),
(-156,-283,o),
(-193,-281,o),
(-216,-277,c)
);
},
{
closed = 1;
nodes = (
(337,1278,l),
(522,1278,l),
(561,1474,l),
(376,1474,l)
);
}
);
width = 525;
},
{
layerId = "802D032B-EE86-4213-9785-3BFE9E181E39";
shapes = (
{
closed = 1;
nodes = (
(-264,-397,l),
(-234,-411,o),
(-187,-419,o),
(-127,-419,cs),
(85,-419,o),
(220,-279,o),
(276,0,cs),
(493,1086,l),
(295,1086,l),
(78,0,ls),
(31,-224,o),
(-3,-271,o),
(-115,-271,cs),
(-162,-271,o),
(-202,-265,o),
(-235,-253,c)
);
},
{
closed = 1;
nodes = (
(324,1283,l),
(542,1283,l),
(585,1500,l),
(367,1500,l)
);
}
);
width = 541;
},
{
layerId = "01EADDEA-E3EA-45FB-B4A5-8F079D2A3A41";
shapes = (
{
closed = 1;
nodes = (
(-353,-373,l),
(-271,-404,o),
(-203,-419,o),
(-146,-419,cs),
(129,-419,o),
(296,-271,o),
(355,25,cs),
(570,1102,l),
(242,1102,l),
(22,0,ls),
(-10,-164,o),
(-55,-222,o),
(-156,-222,cs),
(-186,-222,o),
(-238,-200,o),
(-311,-157,c)
);
},
{
closed = 1;
nodes = (
(272,1303,l),
(621,1303,l),
(681,1605,l),
(332,1605,l)
);
}
);
width = 605;
},
{
layerId = "ED340520-5A40-405B-AFF7-E5EF9D999D24";
shapes = (
{
closed = 1;
nodes = (
(-331,-379,l),
(-262,-406,o),
(-199,-419,o),
(-141,-419,cs),
(118,-419,o),
(277,-273,o),
(335,19,cs),
(551,1098,l),
(255,1098,l),
(36,0,ls),
(0,-179,o),
(-42,-234,o),
(-146,-234,cs),
(-180,-234,o),
(-229,-216,o),
(-292,-181,c)
);
},
{
closed = 1;
nodes = (
(285,1298,l),
(601,1298,l),
(657,1579,l),
(341,1579,l)
);
}
);
width = 589;
}
);
unicode = 106;
},
{
color = (255, 153, 153, 255);
glyphname = k;
layers = (
{
layerId = "ED340520-5A40-405B-AFF7-E5EF9D999D24";
shapes = (
{
closed = 1;
nodes = (
(36,0,l),
(351,1579,l),
(647,1579,l),
(449,586,l),
(468,586,l),
(915,1098,l),
(1160,1098,l),
(745,621,l),
(1018,0,l),
(702,0,l),
(460,549,l),
(441,549,l),
(332,0,l)
);
}
);
width = 1139;
},
{
layerId = "802D032B-EE86-4213-9785-3BFE9E181E39";
shapes = (
{
closed = 1;
nodes = (
(53,0,l),
(368,1579,l),
(565,1579,l),
(364,572,l),
(373,572,l),
(831,1086,l),
(1019,1086,l),
(569,573,l),
(905,0,l),
(665,0,l),
(369,542,l),
(358,542,l),
(250,0,l)
);
}
);
width = 1046;
},
{
layerId = "01EADDEA-E3EA-45FB-B4A5-8F079D2A3A41";
shapes = (
{
closed = 1;
nodes = (
(30.333,0,l),
(345.333,1579,l),
(674.333,1579,l),
(477.333,590.667,l),
(499.667,590.667,l),
(943,1102,l),
(1207,1102,l),
(803.667,637,l),
(1055.667,0,l),
(714.333,0,l),
(490.333,551.333,l),
(468.667,551.333,l),
(359.333,0,l)
);
}
);
width = 1170;
},
{
layerId = "5E5F26D6-8E6E-4FD0-9F5C-925EECC75CBD";
shapes = (
{
closed = 1;
nodes = (
(58.667,0,l),
(373.667,1579,l),
(537.667,1579,l),
(335.667,567.333,l),
(341.333,567.333,l),
(803,1082,l),
(972,1082,l),
(510.333,557,l),
(867.333,0,l),
(652.667,0,l),
(338.667,539.667,l),
(330.333,539.667,l),
(222.667,0,l)
);
}
);
width = 1015;
}
);
unicode = 107;
},
{
glyphname = l;
layers = (
{
layerId = "5E5F26D6-8E6E-4FD0-9F5C-925EECC75CBD";
shapes = (
{
closed = 1;
nodes = (
(542,1579,l),
(378,1579,l),
(120,288,l),
(108,235,o),
(110,188,o),
(117,148,c),
(141,39,o),
(242,-25,o),
(366,-25,cs),
(382,-25,o),
(392,-25,o),
(398,-25,c),
(423,105,l),
(392,105,o),
(366,112,o),
(345,122,c),
(314,144,o),
(289,179,o),
(284,227,c),
(282,254,o),
(284,285,o),
(292,323,cs)
);
}
);
width = 556;
},
{
layerId = "802D032B-EE86-4213-9785-3BFE9E181E39";
shapes = (
{
closed = 1;
nodes = (
(565,1579,l),
(368,1579,l),
(112,300,ls),
(101,248,o),
(101,202,o),
(107,162,cs),
(126,41,o),
(224,-25,o),
(357,-25,cs),
(382,-25,o),
(402,-23,o),
(418,-19,c),
(446,124,l),
(418,123,o),
(394,127,o),
(374,135,cs),
(333,151,o),
(310,184,o),
(307,238,cs),
(306,265,o),
(309,297,o),
(317,336,cs)
);
}
);
width = 570;
},
{
layerId = "01EADDEA-E3EA-45FB-B4A5-8F079D2A3A41";
shapes = (
{
closed = 1;
nodes = (
(657,1579,l),
(328,1579,l),
(81,347,l),
(73,300,o),
(66,257,o),
(66,219,cs),
(65,49,o),
(151,-25,o),
(322,-25,cs),
(382,-25,o),
(441,-15,o),
(499,6,c),
(538,201,l),
(523,194,o),
(507,188,o),
(490,186,c),
(408,180,o),
(393,205,o),
(400,282,cs),
(403,309,o),
(409,344,o),
(418,387,cs)
);
}
);
width = 625;
},
{
layerId = "ED340520-5A40-405B-AFF7-E5EF9D999D24";
shapes = (
{
closed = 1;
nodes = (
(634,1579,l),
(338,1579,l),
(89,335,ls),
(80,287,o),
(75,243,o),
(76,205,cs),
(80,47,o),
(169,-25,o),
(331,-25,cs),
(382,-25,o),
(431,-17,o),
(479,0,c),
(515,182,l),
(497,176,o),
(479,173,o),
(461,173,cs),
(389,173,o),
(372,200,o),
(377,271,cs),
(379,298,o),
(384,332,o),
(393,374,cs)
);
}
);
width = 611;
}
);
unicode = 108;
},
{
glyphname = m;
layers = (
{
layerId = "5E5F26D6-8E6E-4FD0-9F5C-925EECC75CBD";
shapes = (
{
closed = 1;
nodes = (
(59,0,l),
(223,0,l),
(368,732,l),
(443,823,o),
(509,890,o),
(566,933,c),
(596,954,o),
(628,969,o),
(664,978,c),
(793,986,o),
(843,919,o),
(814,778,cs),
(660,0,l),
(825,0,l),
(971,732,l),
(1046,823,o),
(1112,890,o),
(1169,933,cs),
(1198,954,o),
(1230,969,o),
(1266,978,c),
(1394,986,o),
(1443,919,o),
(1416,778,cs),
(1262,0,l),
(1426,0,l),
(1584,795,l),
(1581,779,o),
(1579,765,o),
(1579,753,c),
(1636,988,o),
(1560,1106,o),
(1351,1106,cs),
(1215,1106,o),
(1177,1075,o),
(999,872,c),
(975,1028,o),
(892,1106,o),
(750,1106,cs),
(612,1106,o),
(572,1076,o),
(396,871,c),
(439,1082,l),
(275,1082,l)
);
}
);
width = 1697;
},
{
layerId = "802D032B-EE86-4213-9785-3BFE9E181E39";
shapes = (
{
closed = 1;
nodes = (
(53,0,l),
(250,0,l),
(395,728,l),
(473,825,o),
(544,890,o),
(608,922,cs),
(640,938,o),
(670,946,o),
(699,946,cs),
(798,946,o),
(835,883,o),
(810,759,cs),
(659,0,l),
(857,0,l),
(1002,728,l),
(1080,825,o),
(1151,890,o),
(1215,922,cs),
(1247,938,o),
(1277,946,o),
(1306,946,cs),
(1404,946,o),
(1440,883,o),
(1416,759,cs),
(1266,0,l),
(1463,0,l),
(1620,790,l),
(1620,790,o),
(1620,790,o),
(1620,790,c),
(1662,1003,o),
(1586,1110,o),
(1392,1110,cs),
(1254,1110,o),
(1193,1069,o),
(1033,882,c),
(1011,1034,o),
(929,1110,o),
(786,1110,cs),
(648,1110,o),
(587,1070,o),
(426,882,c),
(467,1086,l),
(270,1086,l)
);
}
);
width = 1728;
},
{
layerId = "01EADDEA-E3EA-45FB-B4A5-8F079D2A3A41";
shapes = (
{
closed = 1;
nodes = (
(30,0,l),
(359,0,l),
(502,712,l),
(592,834,o),
(683,890,o),
(775,879,cs),
(816,874,o),
(838,854,o),
(840,819,c),
(819,786,o),
(804,740,o),
(793,684,cs),
(656,0,l),
(985,0,l),
(1127,712,l),
(1217,834,o),
(1307,890,o),
(1399,879,cs),
(1442,874,o),
(1464,854,o),
(1466,819,c),
(1445,786,o),
(1429,740,o),
(1417,684,cs),
(1281,0,l),
(1610,0,l),
(1764,771,ls),
(1776,833,o),
(1783,889,o),
(1783,938,c),
(1767,1064,o),
(1691,1127,o),
(1555,1127,cs),
(1410,1127,o),
(1258,1046,o),
(1169,923,c),
(1156,1059,o),
(1076,1127,o),
(929,1127,cs),
(793,1127,o),
(646,1046,o),
(545,927,c),
(579,1102,l),
(250,1102,l)
);
}
);
width = 1852;
},
{
layerId = "ED340520-5A40-405B-AFF7-E5EF9D999D24";
shapes = (
{
closed = 1;
nodes = (
(36,0,l),
(332,0,l),
(475,716,l),
(562,832,o),
(648,890,o),
(733,890,cs),
(772,890,o),
(796,877,o),
(805,851,cs),
(814,826,o),
(812,776,o),
(797,703,cs),
(657,0,l),
(953,0,l),
(1096,716,l),
(1183,832,o),
(1268,890,o),
(1353,890,cs),
(1393,890,o),
(1417,877,o),
(1426,851,cs),
(1435,826,o),
(1432,776,o),
(1417,703,cs),
(1277,0,l),
(1573,0,l),
(1728,776,ls),
(1737,822,o),
(1742,864,o),
(1742,901,cs),
(1741,1049,o),
(1665,1123,o),
(1514,1123,cs),
(1371,1123,o),
(1242,1052,o),
(1135,913,c),
(1120,1053,o),
(1039,1123,o),
(893,1123,cs),
(757,1123,o),
(631,1052,o),
(515,916,c),
(551,1098,l),
(255,1098,l)
);
}
);
width = 1821;
}
);
unicode = 109;
},
{
glyphname = n;
layers = (
{
layerId = "5E5F26D6-8E6E-4FD0-9F5C-925EECC75CBD";
shapes = (
{
closed = 1;
nodes = (
(59,0,l),
(223,0,l),
(362,699,l),
(500,871,o),
(629,958,o),
(751,958,cs),
(803,958,o),
(836,941,o),
(848,909,cs),
(860,875,o),
(857,813,o),
(839,720,cs),
(695,0,l),
(860,0,l),
(1015,781,l),
(1012,766,o),
(1010,752,o),
(1011,740,c),
(1070,984,o),
(1003,1106,o),
(808,1106,cs),
(666,1106,o),
(528,1027,o),
(396,871,c),
(439,1082,l),
(275,1082,l)
);
}
);
width = 1131;
},
{
layerId = "802D032B-EE86-4213-9785-3BFE9E181E39";
shapes = (
{
closed = 1;
nodes = (
(53,0,l),
(250,0,l),
(390,703,l),
(522,861,o),
(643,941,o),
(755,941,cs),
(805,941,o),
(837,925,o),
(849,894,cs),
(861,862,o),
(858,803,o),
(841,716,cs),
(698,0,l),
(896,0,l),
(1051,780,l),
(1051,780,o),
(1051,780,o),
(1051,780,c),
(1095,1000,o),
(1024,1110,o),
(838,1110,cs),
(698,1110,o),
(560,1034,o),
(426,882,c),
(467,1086,l),
(270,1086,l)
);
}
);
width = 1161;
},
{
layerId = "01EADDEA-E3EA-45FB-B4A5-8F079D2A3A41";
shapes = (
{
closed = 1;
nodes = (
(30,0,l),
(359,0,l),
(503,720,l),
(611,822,o),
(700,873,o),
(770,873,cs),
(813,873,o),
(841,861,o),
(852,835,c),
(864,810,o),
(863,764,o),
(850,699,cs),
(711,0,l),
(1040,0,l),
(1195,775,ls),
(1207,836,o),
(1214,892,o),
(1212,941,c),
(1194,1065,o),
(1109,1127,o),
(959,1127,cs),
(825,1127,o),
(687,1061,o),
(545,927,c),
(579,1102,l),
(250,1102,l)
);
}
);
width = 1281;
},
{
layerId = "ED340520-5A40-405B-AFF7-E5EF9D999D24";
shapes = (
{
closed = 1;
nodes = (
(36,0,l),
(332,0,l),
(475,716,l),
(589,832,o),
(686,890,o),
(766,890,cs),
(811,890,o),
(840,877,o),
(851,850,c),
(863,823,o),
(862,774,o),
(848,703,cs),
(708,0,l),
(1004,0,l),
(1159,776,ls),
(1168,822,o),
(1173,864,o),
(1172,901,cs),
(1169,1049,o),
(1088,1123,o),
(929,1123,cs),
(793,1123,o),
(655,1054,o),
(515,916,c),
(551,1098,l),
(255,1098,l)
);
}
);
width = 1251;
}
);
unicode = 110;
},
{
glyphname = o;
layers = (
{
layerId = "5E5F26D6-8E6E-4FD0-9F5C-925EECC75CBD";
shapes = (
{
closed = 1;
nodes = (
(732,-25,o),
(947,180,o),
(1020,543,cs),
(1090,892,o),
(957,1106,o),
(673,1106,cs),
(383,1106,o),
(169,887,o),
(100,541,cs),
(30,195,o),
(160,-25,o),
(441,-25,cs)
);
},
{
closed = 1;
nodes = (
(335,111,o),
(264,183,o),
(255,325,c),
(255,384,o),
(262,456,o),
(280,541,cs),
(340,834,o),
(455,970,o),
(647,970,cs),
(783,970,o),
(856,900,o),
(867,760,c),
(866,702,o),
(859,630,o),
(842,547,cs),
(784,249,o),
(661,111,o),
(470,111,cs)
);
}
);
width = 1131;
},
{
layerId = "802D032B-EE86-4213-9785-3BFE9E181E39";
shapes = (
{
closed = 1;
nodes = (
(760,-25,o),
(987,186,o),
(1059,545,cs),
(1129,893,o),
(985,1110,o),
(689,1110,cs),
(388,1110,o),
(162,889,o),
(93,543,cs),
(23,197,o),
(164,-25,o),
(456,-25,cs)
);
},
{
closed = 1;
nodes = (
(369,123,o),
(303,186,o),
(289,310,cs),
(282,372,o),
(287,450,o),
(306,543,cs),
(363,822,o),
(480,962,o),
(660,962,cs),
(780,962,o),
(848,901,o),
(863,778,cs),
(870,717,o),
(865,640,o),
(847,548,cs),
(791,265,o),
(669,123,o),
(488,123,cs)
);
}
);
width = 1161;
},
{
layerId = "01EADDEA-E3EA-45FB-B4A5-8F079D2A3A41";
shapes = (
{
closed = 1;
nodes = (
(873,-25,o),
(1146,209,o),
(1214,553,cs),
(1284,897,o),
(1097,1127,o),
(753,1127,cs),
(408,1127,o),
(133,897,o),
(64,551,cs),
(-6,204,o),
(181,-25,o),
(517,-25,cs)
);
},
{
closed = 1;
nodes = (
(505,172,o),
(459,199,o),
(426,251,c),
(391,325,o),
(387,425,o),
(411,551,cs),
(455,773,o),
(579,930,o),
(713,930,cs),
(768,930,o),
(816,904,o),
(848,851,c),
(885,778,o),
(890,679,o),
(866,552,cs),
(820,328,o),
(700,172,o),
(560,172,cs)
);
}
);
width = 1281;
},
{
layerId = "ED340520-5A40-405B-AFF7-E5EF9D999D24";
shapes = (
{
closed = 1;
nodes = (
(845,-25,o),
(1106,203,o),
(1175,551,cs),
(1245,896,o),
(1069,1123,o),
(737,1123,cs),
(403,1123,o),
(140,895,o),
(71,549,cs),
(1,202,o),
(177,-25,o),
(502,-25,cs)
);
},
{
closed = 1;
nodes = (
(471,160,o),
(420,196,o),
(392,266,cs),
(364,337,o),
(362,431,o),
(385,549,cs),
(432,785,o),
(554,938,o),
(700,938,cs),
(771,938,o),
(824,903,o),
(852,833,cs),
(881,763,o),
(884,669,o),
(861,551,cs),
(813,312,o),
(692,160,o),
(542,160,cs)
);
}
);
width = 1251;
}
);
unicode = 111;
},
{
glyphname = p;
layers = (
{
layerId = "5E5F26D6-8E6E-4FD0-9F5C-925EECC75CBD";
shapes = (
{
closed = 1;
nodes = (
(144,-395,l),
(223,0,l),
(273,-16,o),
(332,-25,o),
(399,-25,cs),
(724,-25,o),
(952,188,o),
(1028,572,cs),
(1091,891,o),
(985,1106,o),
(760,1106,cs),
(617,1106,o),
(496,1027,o),
(396,871,c),
(439,1082,l),
(275,1082,l),
(-20,-395,l)
);
},
{
closed = 1;
nodes = (
(362,699,l),
(504,868,o),
(622,954,o),
(709,954,cs),
(771,954,o),
(817,919,o),
(843,855,c),
(870,783,o),
(872,686,o),
(848,562,cs),
(789,261,o),
(656,112,o),
(462,112,cs),
(413,112,o),
(342,120,o),
(250,140,c)
);
}
);
width = 1131;
},
{
layerId = "802D032B-EE86-4213-9785-3BFE9E181E39";
shapes = (
{
closed = 1;
nodes = (
(171,-395,l),
(250,0,l),
(309,-16,o),
(370,-25,o),
(434,-25,cs),
(759,-25,o),
(989,192,o),
(1065,574,cs),
(1128,893,o),
(1022,1110,o),
(795,1110,cs),
(657,1110,o),
(534,1034,o),
(426,882,c),
(467,1086,l),
(270,1086,l),
(-26,-395,l)
);
},
{
closed = 1;
nodes = (
(390,703,l),
(522,859,o),
(632,938,o),
(718,938,cs),
(781,938,o),
(826,903,o),
(849,835,cs),
(872,767,o),
(872,674,o),
(849,556,cs),
(791,267,o),
(666,123,o),
(479,123,cs),
(433,123,o),
(366,131,o),
(279,149,c)
);
}
);
width = 1161;
},
{
layerId = "01EADDEA-E3EA-45FB-B4A5-8F079D2A3A41";
shapes = (
{
closed = 1;
nodes = (
(280,-395,l),
(359,0,l),
(452,-17,o),
(523,-25,o),
(574,-25,cs),
(900,-25,o),
(1137,209,o),
(1212,581,cs),
(1277,900,o),
(1170,1127,o),
(936,1127,cs),
(816,1127,o),
(685,1061,o),
(545,927,c),
(579,1102,l),
(250,1102,l),
(-49,-395,l)
);
},
{
closed = 1;
nodes = (
(503,720,l),
(595,824,o),
(672,875,o),
(753,875,cs),
(822,875,o),
(863,838,o),
(873,756,cs),
(879,702,o),
(872,627,o),
(853,532,c),
(800,290,o),
(707,168,o),
(547,168,cs),
(513,168,o),
(463,174,o),
(396,185,c)
);
}
);
width = 1281;
},
{
layerId = "ED340520-5A40-405B-AFF7-E5EF9D999D24";
shapes = (
{
closed = 1;
nodes = (
(253,-395,l),
(332,0,l),
(416,-17,o),
(485,-25,o),
(539,-25,cs),
(865,-25,o),
(1100,205,o),
(1175,579,cs),
(1240,898,o),
(1133,1123,o),
(901,1123,cs),
(776,1123,o),
(647,1054,o),
(515,916,c),
(551,1098,l),
(255,1098,l),
(-43,-395,l)
);
},
{
closed = 1;
nodes = (
(475,716,l),
(577,833,o),
(662,891,o),
(744,891,cs),
(812,891,o),
(854,854,o),
(867,776,cs),
(877,718,o),
(872,639,o),
(852,538,cs),
(798,284,o),
(697,157,o),
(530,157,cs),
(493,157,o),
(439,163,o),
(367,176,c)
);
}
);
width = 1251;
}
);
unicode = 112;
},
{
glyphname = q;
layers = (
{
layerId = "5E5F26D6-8E6E-4FD0-9F5C-925EECC75CBD";
shapes = (
{
closed = 1;
nodes = (
(899,1082,l),
(887,1087,o),
(870,1095,o),
(968,1074,c),
(902,1095,o),
(831,1107,o),
(760,1109,c),
(417,1126,o),
(189,923,o),
(98,548,cs),
(18,206,o),
(122,-25,o),
(361,-25,cs),
(502,-25,o),
(622,53,o),
(724,210,c),
(604,-395,l),
(768,-395,l),
(1063,1082,l)
);
},
{
closed = 1;
nodes = (
(759,382,l),
(617,213,o),
(497,128,o),
(411,128,cs),
(348,128,o),
(303,161,o),
(277,226,cs),
(249,297,o),
(247,394,o),
(273,519,cs),
(332,818,o),
(462,969,o),
(660,969,cs),
(707,969,o),
(777,959,o),
(871,942,c)
);
}
);
width = 1131;
},
{
layerId = "802D032B-EE86-4213-9785-3BFE9E181E39";
shapes = (
{
closed = 1;
nodes = (
(903,1086,l),
(873,1094,o),
(843,1102,o),
(903,1086,c),
(843,1102,o),
(780,1110,o),
(718,1110,cs),
(389,1110,o),
(163,891,o),
(87,512,cs),
(22,191,o),
(128,-25,o),
(357,-25,cs),
(494,-25,o),
(617,51,o),
(726,203,c),
(607,-395,l),
(804,-395,l),
(1100,1086,l)
);
},
{
closed = 1;
nodes = (
(762,382,l),
(630,226,o),
(519,148,o),
(434,148,cs),
(370,148,o),
(326,182,o),
(303,250,cs),
(279,318,o),
(279,410,o),
(303,529,cs),
(361,817,o),
(484,962,o),
(674,962,cs),
(719,962,o),
(785,953,o),
(873,937,c)
);
}
);
width = 1161;
},
{
layerId = "01EADDEA-E3EA-45FB-B4A5-8F079D2A3A41";
shapes = (
{
closed = 1;
nodes = (
(918,1102,l),
(817,1122,o),
(735,1130,o),
(643,1135,c),
(608,1130,o),
(577,1123,o),
(549,1114,c),
(278,1046,o),
(59,763,o),
(43,367,cs),
(37,130,o),
(151,-25,o),
(342,-25,cs),
(462,-25,o),
(596,42,o),
(733,175,c),
(619,-395,l),
(948,-395,l),
(1247,1102,l)
);
},
{
closed = 1;
nodes = (
(774,382,l),
(682,278,o),
(607,227,o),
(526,227,cs),
(457,227,o),
(418,265,o),
(406,346,c),
(399,401,o),
(406,475,o),
(424,570,c),
(478,813,o),
(572,934,o),
(731,934,cs),
(766,934,o),
(816,929,o),
(881,917,c)
);
}
);
width = 1281;
},
{
layerId = "ED340520-5A40-405B-AFF7-E5EF9D999D24";
shapes = (
{
closed = 1;
nodes = (
(914,1098,l),
(831,1115,o),
(762,1123,o),
(708,1123,cs),
(667,1123,o),
(628,1120,o),
(591,1113,cs),
(306,1062,o),
(85,795,o),
(54,403,cs),
(33,145,o),
(145,-25,o),
(346,-25,cs),
(470,-25,o),
(601,44,o),
(731,182,c),
(616,-395,l),
(912,-395,l),
(1210,1098,l)
);
},
{
closed = 1;
nodes = (
(771,382,l),
(669,265,o),
(585,207,o),
(503,207,cs),
(435,207,o),
(395,244,o),
(380,322,cs),
(369,380,o),
(374,459,o),
(394,560,c),
(449,814,o),
(550,941,o),
(717,941,cs),
(754,941,o),
(808,935,o),
(879,922,c)
);
}
);
width = 1251;
}
);
unicode = 113;
},
{
glyphname = r;
layers = (
{
layerId = "5E5F26D6-8E6E-4FD0-9F5C-925EECC75CBD";
shapes = (
{
closed = 1;
nodes = (
(50,0,l),
(214,0,l),
(357,714,l),
(477,877,o),
(575,959,o),
(650,959,cs),
(670,959,o),
(696,953,o),
(727,944,c),
(757,1101,l),
(734,1104,o),
(714,1106,o),
(699,1106,cs),
(584,1106,o),
(480,1027,o),
(388,871,c),
(431,1082,l),
(267,1082,l)
);
}
);
width = 673;
},
{
layerId = "802D032B-EE86-4213-9785-3BFE9E181E39";
shapes = (
{
closed = 1;
nodes = (
(53,0,l),
(250,0,l),
(393,716,l),
(502,864,o),
(595,938,o),
(671,938,cs),
(692,938,o),
(719,932,o),
(751,921,c),
(787,1105,l),
(765,1108,o),
(746,1110,o),
(731,1110,cs),
(617,1110,o),
(516,1034,o),
(426,882,c),
(467,1086,l),
(270,1086,l)
);
}
);
width = 704;
},
{
layerId = "01EADDEA-E3EA-45FB-B4A5-8F079D2A3A41";
shapes = (
{
closed = 1;
nodes = (
(64,0,l),
(393,0,l),
(537,724,l),
(602,812,o),
(675,855,o),
(755,855,cs),
(781,855,o),
(812,847,o),
(847,830,c),
(906,1121,l),
(890,1125,o),
(874,1127,o),
(859,1127,cs),
(749,1127,o),
(659,1061,o),
(578,927,c),
(612,1102,l),
(283,1102,l)
);
}
);
width = 828;
},
{
layerId = "ED340520-5A40-405B-AFF7-E5EF9D999D24";
shapes = (
{
closed = 1;
nodes = (
(61,0,l),
(357,0,l),
(501,722,l),
(577,825,o),
(655,876,o),
(734,876,cs),
(759,876,o),
(789,868,o),
(823,853,c),
(876,1117,l),
(859,1121,o),
(842,1123,o),
(827,1123,cs),
(716,1123,o),
(623,1054,o),
(540,916,c),
(576,1098,l),
(280,1098,l)
);
}
);
width = 797;
}
);
unicode = 114;
},
{
glyphname = s;
layers = (
{
layerId = "5E5F26D6-8E6E-4FD0-9F5C-925EECC75CBD";
shapes = (
{
closed = 1;
nodes = (
(23,39,l),
(144,-3,o),
(253,-25,o),
(353,-25,cs),
(591,-25,o),
(776,85,o),
(825,280,cs),
(864,443,o),
(785,566,o),
(624,621,c),
(426,679,o),
(327,711,o),
(349,823,cs),
(368,921,o),
(444,970,o),
(578,970,cs),
(699,970,o),
(797,954,o),
(870,924,c),
(901,1076,l),
(801,1095,o),
(716,1106,o),
(644,1106,cs),
(383,1106,o),
(233,1013,o),
(186,829,c),
(150,675,o),
(216,557,o),
(353,516,c),
(541,452,l),
(638,421,o),
(679,365,o),
(663,291,cs),
(639,171,o),
(549,111,o),
(396,111,cs),
(279,111,o),
(165,143,o),
(57,208,c)
);
}
);
width = 1015;
},
{
layerId = "802D032B-EE86-4213-9785-3BFE9E181E39";
shapes = (
{
closed = 1;
nodes = (
(22,38,l),
(144,-4,o),
(259,-25,o),
(368,-25,cs),
(633,-25,o),
(827,99,o),
(867,304,cs),
(897,458,o),
(821,566,o),
(640,632,c),
(455,691,o),
(360,724,o),
(380,824,cs),
(398,916,o),
(474,962,o),
(609,962,cs),
(717,962,o),
(816,945,o),
(906,913,c),
(939,1078,l),
(832,1099,o),
(739,1110,o),
(659,1110,cs),
(381,1110,o),
(220,1008,o),
(181,805,cs),
(152,659,o),
(214,559,o),
(374,503,cs),
(538,445,ls),
(637,410,o),
(680,356,o),
(666,288,cs),
(644,178,o),
(556,123,o),
(404,123,cs),
(290,123,o),
(174,155,o),
(58,219,c)
);
}
);
width = 1046;
},
{
layerId = "01EADDEA-E3EA-45FB-B4A5-8F079D2A3A41";
shapes = (
{
closed = 1;
nodes = (
(17,35,l),
(144,-7,o),
(283,-25,o),
(427,-25,cs),
(801,-25,o),
(1032,154,o),
(1036,399,c),
(1029,517,o),
(966,566,o),
(703,675,c),
(570,738,o),
(492,775,o),
(504,827,c),
(518,896,o),
(594,930,o),
(733,930,cs),
(788,930,o),
(893,910,o),
(1049,870,c),
(1091,1086,l),
(956,1114,o),
(831,1127,o),
(718,1127,cs),
(374,1127,o),
(167,988,o),
(161,710,c),
(161,596,o),
(207,566,o),
(457,451,c),
(525,417,ls),
(633,365,o),
(685,321,o),
(677,277,cs),
(663,207,o),
(583,172,o),
(437,172,cs),
(335,172,o),
(211,203,o),
(62,263,c)
);
}
);
width = 1170;
},
{
layerId = "ED340520-5A40-405B-AFF7-E5EF9D999D24";
shapes = (
{
closed = 1;
nodes = (
(18,36,l),
(144,-6,o),
(277,-25,o),
(412,-25,cs),
(759,-25,o),
(981,140,o),
(994,375,c),
(996,502,o),
(930,566,o),
(687,664,c),
(541,726,o),
(459,762,o),
(473,826,c),
(488,901,o),
(564,938,o),
(702,938,cs),
(770,938,o),
(874,919,o),
(1013,881,c),
(1053,1084,l),
(925,1110,o),
(808,1123,o),
(703,1123,cs),
(376,1123,o),
(180,993,o),
(166,734,cs),
(159,612,o),
(209,564,o),
(436,464,cs),
(528,424,ls),
(634,376,o),
(684,330,o),
(674,280,cs),
(658,200,o),
(576,160,o),
(429,160,cs),
(324,160,o),
(202,191,o),
(61,252,c)
);
}
);
width = 1139;
}
);
unicode = 115;
},
{
glyphname = t;
layers = (
{
layerId = "5E5F26D6-8E6E-4FD0-9F5C-925EECC75CBD";
shapes = (
{
closed = 1;
nodes = (
(410,117,l),
(397,109,o),
(378,106,o),
(351,106,cs),
(304,106,o),
(276,119,o),
(267,148,cs),
(258,177,o),
(263,234,o),
(280,323,cs),
(404,946,l),
(654,946,l),
(682,1082,l),
(432,1082,l),
(480,1327,l),
(313,1313,l),
(268,1082,l),
(138,1082,l),
(111,946,l),
(240,946,l),
(108,288,ls),
(65,79,o),
(130,-25,o),
(299,-25,cs),
(328,-25,o),
(357,-19,o),
(385,-8,c)
);
}
);
width = 574;
},
{
layerId = "802D032B-EE86-4213-9785-3BFE9E181E39";
shapes = (
{
closed = 1;
nodes = (
(455,134,l),
(435,126,o),
(412,123,o),
(385,123,cs),
(339,123,o),
(311,136,o),
(302,164,cs),
(293,192,o),
(298,248,o),
(315,336,cs),
(435,938,l),
(675,938,l),
(705,1086,l),
(465,1086,l),
(514,1332,l),
(313,1313,l),
(268,1086,l),
(141,1086,l),
(111,938,l),
(238,938,l),
(110,300,ls),
(66,83,o),
(135,-25,o),
(314,-25,cs),
(348,-25,o),
(386,-18,o),
(427,-6,c)
);
}
);
width = 601;
},
{
layerId = "01EADDEA-E3EA-45FB-B4A5-8F079D2A3A41";
shapes = (
{
closed = 1;
nodes = (
(635,203,l),
(587,194,o),
(549,190,o),
(522,190,cs),
(479,190,o),
(452,203,o),
(443,227,cs),
(434,252,o),
(438,305,o),
(455,387,cs),
(559,905,l),
(759,905,l),
(798,1102,l),
(598,1102,l),
(649,1352,l),
(312,1313,l),
(269,1102,l),
(152,1102,l),
(112,905,l),
(230,905,l),
(118,347,ls),
(70,99,o),
(154,-25,o),
(373,-25,cs),
(429,-25,o),
(503,-15,o),
(595,3,c)
);
}
);
width = 709;
},
{
layerId = "ED340520-5A40-405B-AFF7-E5EF9D999D24";
shapes = (
{
closed = 1;
nodes = (
(590,186,l),
(549,177,o),
(515,173,o),
(488,173,cs),
(444,173,o),
(417,186,o),
(408,211,cs),
(399,237,o),
(403,291,o),
(420,374,cs),
(528,913,l),
(738,913,l),
(775,1098,l),
(565,1098,l),
(615,1347,l),
(312,1313,l),
(269,1098,l),
(149,1098,l),
(112,913,l),
(232,913,l),
(116,335,ls),
(69,95,o),
(149,-25,o),
(358,-25,cs),
(409,-25,o),
(474,-16,o),
(553,1,c)
);
}
);
width = 682;
}
);
unicode = 116;
},
{
glyphname = u;
layers = (
{
layerId = "5E5F26D6-8E6E-4FD0-9F5C-925EECC75CBD";
shapes = (
{
closed = 1;
nodes = (
(683,0,l),
(847,0,l),
(1063,1082,l),
(899,1082,l),
(759,382,l),
(621,210,o),
(492,124,o),
(371,124,cs),
(317,124,o),
(285,140,o),
(273,173,c),
(260,206,o),
(263,268,o),
(282,362,cs),
(427,1082,l),
(263,1082,l),
(107,301,ls),
(63,83,o),
(131,-25,o),
(313,-25,cs),
(454,-25,o),
(592,53,o),
(724,210,c)
);
}
);
width = 1131;
},
{
layerId = "802D032B-EE86-4213-9785-3BFE9E181E39";
shapes = (
{
closed = 1;
nodes = (
(686,0,l),
(883,0,l),
(1100,1086,l),
(903,1086,l),
(762,382,l),
(630,224,o),
(509,145,o),
(398,145,cs),
(346,145,o),
(315,160,o),
(303,192,cs),
(291,223,o),
(293,282,o),
(311,370,cs),
(455,1086,l),
(258,1086,l),
(102,306,ls),
(58,85,o),
(128,-25,o),
(314,-25,cs),
(454,-25,o),
(592,51,o),
(726,203,c)
);
}
);
width = 1161;
},
{
layerId = "01EADDEA-E3EA-45FB-B4A5-8F079D2A3A41";
shapes = (
{
closed = 1;
nodes = (
(699,0,l),
(1028,0,l),
(1248,1102,l),
(919,1102,l),
(775,382,l),
(666,280,o),
(576,229,o),
(507,229,cs),
(463,229,o),
(435,241,o),
(424,267,cs),
(414,292,o),
(414,338,o),
(427,403,cs),
(567,1102,l),
(238,1102,l),
(83,327,ls),
(37,93,o),
(115,-25,o),
(318,-25,cs),
(454,-25,o),
(592,42,o),
(734,175,c)
);
}
);
width = 1281;
},
{
layerId = "ED340520-5A40-405B-AFF7-E5EF9D999D24";
shapes = (
{
closed = 1;
nodes = (
(696,0,l),
(992,0,l),
(1211,1098,l),
(915,1098,l),
(772,382,l),
(657,266,o),
(559,208,o),
(480,208,cs),
(434,208,o),
(405,221,o),
(394,248,cs),
(383,275,o),
(384,324,o),
(398,395,cs),
(539,1098,l),
(243,1098,l),
(88,322,ls),
(42,91,o),
(118,-25,o),
(317,-25,cs),
(454,-25,o),
(592,44,o),
(732,182,c)
);
}
);
width = 1251;
}
);
unicode = 117;
},
{
glyphname = v;
layers = (
{
layerId = "5E5F26D6-8E6E-4FD0-9F5C-925EECC75CBD";
shapes = (
{
closed = 1;
nodes = (
(302,0,l),
(466,0,l),
(1097,1082,l),
(937,1082,l),
(433,213,l),
(297,1082,l),
(136,1082,l)
);
}
);
width = 1015;
},
{
layerId = "802D032B-EE86-4213-9785-3BFE9E181E39";
shapes = (
{
closed = 1;
nodes = (
(303,0,l),
(500,0,l),
(1128,1086,l),
(953,1086,l),
(466,241,l),
(334,1086,l),
(135,1086,l)
);
}
);
width = 1046;
},
{
layerId = "01EADDEA-E3EA-45FB-B4A5-8F079D2A3A41";
shapes = (
{
closed = 1;
nodes = (
(308,0,l),
(637,0,l),
(1251,1102,l),
(1016,1102,l),
(599,353,l),
(481,1102,l),
(131,1102,l)
);
}
);
width = 1170;
},
{
layerId = "ED340520-5A40-405B-AFF7-E5EF9D999D24";
shapes = (
{
closed = 1;
nodes = (
(307,0,l),
(603,0,l),
(1220,1098,l),
(1000,1098,l),
(566,325,l),
(444,1098,l),
(132,1098,l)
);
}
);
width = 1139;
}
);
unicode = 118;
},
{
glyphname = w;
layers = (
{
layerId = "5E5F26D6-8E6E-4FD0-9F5C-925EECC75CBD";
shapes = (
{
closed = 1;
nodes = (
(157,0,l),
(328,0,l),
(786,870,l),
(864,0,l),
(1034,0,l),
(1562,1082,l),
(1401,1082,l),
(996,245,l),
(927,1082,l),
(750,1082,l),
(314,248,l),
(281,1082,l),
(113,1082,l)
);
}
);
width = 1470;
},
{
layerId = "802D032B-EE86-4213-9785-3BFE9E181E39";
shapes = (
{
closed = 1;
nodes = (
(172,0,l),
(371,0,l),
(799,841,l),
(861,0,l),
(1059,0,l),
(1581,1086,l),
(1411,1086,l),
(1018,265,l),
(963,1086,l),
(766,1086,l),
(352,268,l),
(320,1086,l),
(127,1086,l)
);
}
);
width = 1501;
},
{
layerId = "01EADDEA-E3EA-45FB-B4A5-8F079D2A3A41";
shapes = (
{
closed = 1;
nodes = (
(231,0,l),
(543,0,l),
(850,724,l),
(848,0,l),
(1159,0,l),
(1658,1102,l),
(1450,1102,l),
(1107,345,l),
(1106,1102,l),
(830,1102,l),
(505,349,l),
(475,1102,l),
(183,1102,l)
);
}
);
width = 1624;
},
{
layerId = "ED340520-5A40-405B-AFF7-E5EF9D999D24";
shapes = (
{
closed = 1;
nodes = (
(216,0,l),
(500,0,l),
(837,753,l),
(851,0,l),
(1134,0,l),
(1639,1098,l),
(1440,1098,l),
(1085,325,l),
(1070,1098,l),
(814,1098,l),
(467,329,l),
(436,1098,l),
(169,1098,l)
);
}
);
width = 1593;
}
);
unicode = 119;
},
{
glyphname = x;
layers = (
{
layerId = "5E5F26D6-8E6E-4FD0-9F5C-925EECC75CBD";
shapes = (
{
closed = 1;
nodes = (
(-76,0,l),
(85,0,l),
(449,460,l),
(673,0,l),
(863,0,l),
(607,533,l),
(1052,1082,l),
(889,1082,l),
(547,655,l),
(343,1082,l),
(151,1082,l),
(391,582,l)
);
}
);
width = 1015;
},
{
layerId = "802D032B-EE86-4213-9785-3BFE9E181E39";
shapes = (
{
closed = 1;
nodes = (
(-73,0,l),
(109,0,l),
(458,436,l),
(665,0,l),
(892,0,l),
(640,539,l),
(1082,1086,l),
(900,1086,l),
(574,679,l),
(384,1086,l),
(156,1086,l),
(394,574,l)
);
}
);
width = 1046;
},
{
layerId = "01EADDEA-E3EA-45FB-B4A5-8F079D2A3A41";
shapes = (
{
closed = 1;
nodes = (
(-61,0,l),
(205,0,l),
(495,339,l),
(633,0,l),
(1007,0,l),
(772,564,l),
(1202,1102,l),
(943,1102,l),
(682,774,l),
(549,1102,l),
(176,1102,l),
(407,543,l)
);
}
);
width = 1170;
},
{
layerId = "ED340520-5A40-405B-AFF7-E5EF9D999D24";
shapes = (
{
closed = 1;
nodes = (
(-64,0,l),
(181,0,l),
(486,363,l),
(641,0,l),
(978,0,l),
(739,558,l),
(1172,1098,l),
(932,1098,l),
(655,750,l),
(508,1098,l),
(171,1098,l),
(404,551,l)
);
}
);
width = 1139;
}
);
unicode = 120;
},
{
glyphname = y;
layers = (
{
layerId = "5E5F26D6-8E6E-4FD0-9F5C-925EECC75CBD";
shapes = (
{
closed = 1;
nodes = (
(302,0,l),
(77,-395,l),
(250,-395,l),
(1097,1082,l),
(939,1082,l),
(432,208,l),
(299,1082,l),
(136,1082,l)
);
}
);
width = 1015;
},
{
layerId = "802D032B-EE86-4213-9785-3BFE9E181E39";
shapes = (
{
closed = 1;
nodes = (
(303,0,l),
(53,-395,l),
(258,-395,l),
(1128,1086,l),
(954,1086,l),
(463,253,l),
(335,1086,l),
(135,1086,l)
);
}
);
width = 1046;
},
{
layerId = "01EADDEA-E3EA-45FB-B4A5-8F079D2A3A41";
shapes = (
{
closed = 1;
nodes = (
(308,0,l),
(-44,-395,l),
(290,-395,l),
(1251,1102,l),
(1015,1102,l),
(587,433,l),
(480,1102,l),
(131,1102,l)
);
}
);
width = 1170;
},
{
layerId = "ED340520-5A40-405B-AFF7-E5EF9D999D24";
shapes = (
{
closed = 1;
nodes = (
(307,0,l),
(-20,-395,l),
(282,-395,l),
(1220,1098,l),
(1000,1098,l),
(556,388,l),
(444,1098,l),
(132,1098,l)
);
}
);
width = 1139;
}
);
unicode = 121;
},
{
glyphname = z;
layers = (
{
layerId = "5E5F26D6-8E6E-4FD0-9F5C-925EECC75CBD";
shapes = (
{
closed = 1;
nodes = (
(-36,0,l),
(861,0,l),
(887,132,l),
(204,132,l),
(1038,946,l),
(1065,1082,l),
(213,1082,l),
(185,946,l),
(824,946,l),
(-10,132,l)
);
}
);
width = 1053;
},
{
layerId = "802D032B-EE86-4213-9785-3BFE9E181E39";
shapes = (
{
closed = 1;
nodes = (
(-27,0,l),
(849,0,l),
(878,148,l),
(245,148,l),
(1024,938,l),
(1054,1086,l),
(221,1086,l),
(191,938,l),
(781,938,l),
(2,148,l)
);
}
);
width = 1046;
},
{
layerId = "01EADDEA-E3EA-45FB-B4A5-8F079D2A3A41";
shapes = (
{
closed = 1;
nodes = (
(8,0,l),
(801,0,l),
(843,213,l),
(410,213,l),
(969,905,l),
(1009,1102,l),
(254,1102,l),
(215,905,l),
(609,905,l),
(50,213,l)
);
}
);
width = 1017;
},
{
layerId = "ED340520-5A40-405B-AFF7-E5EF9D999D24";
shapes = (
{
closed = 1;
nodes = (
(-1,0,l),
(813,0,l),
(852,197,l),
(369,197,l),
(983,913,l),
(1020,1098,l),
(246,1098,l),
(209,913,l),
(652,913,l),
(38,197,l)
);
}
);
width = 1024;
}
);
unicode = 122;
},
{
glyphname = braceleft;
layers = (
{
layerId = "5E5F26D6-8E6E-4FD0-9F5C-925EECC75CBD";
shapes = (
{
closed = 1;
nodes = (
(45,708,l),
(18,576,l),
(78,576,ls),
(184,576,o),
(225,519,o),
(202,406,cs),
(192,359,o),
(179,311,o),
(160,265,cs),
(124,179,ls),
(103,127,o),
(87,78,o),
(75,27,cs),
(32,-156,o),
(154,-296,o),
(376,-296,c),
(404,-156,l),
(392,-156,o),
(379,-158,o),
(364,-160,c),
(267,-166,o),
(194,-107,o),
(211,-34,c),
(212,-19,o),
(224,13,o),
(244,63,c),
(283,171,ls),
(297,211,o),
(309,257,o),
(324,317,c),
(353,446,o),
(331,553,o),
(258,642,c),
(408,763,o),
(463,930,o),
(471,1113,cs),
(475,1220,l),
(474,1343,o),
(482,1359,o),
(541,1402,c),
(596,1440,o),
(643,1439,o),
(722,1439,c),
(751,1579,l),
(642,1579,o),
(548,1546,o),
(467,1488,cs),
(337,1393,o),
(307,1259,o),
(309,1104,cs),
(310,1018,l),
(307,811,o),
(250,708,o),
(105,708,cs)
);
}
);
width = 676;
},
{
layerId = "802D032B-EE86-4213-9785-3BFE9E181E39";
shapes = (
{
closed = 1;
nodes = (
(67,716,l),
(37,568,l),
(98,568,ls),
(200,568,o),
(240,514,o),
(219,408,cs),
(209,361,o),
(195,313,o),
(175,266,cs),
(138,179,ls),
(114,122,o),
(96,67,o),
(86,13,cs),
(49,-169,o),
(173,-296,o),
(407,-296,c),
(437,-148,l),
(419,-148,o),
(402,-148,o),
(384,-148,cs),
(296,-148,o),
(235,-94,o),
(251,-24,c),
(253,-8,o),
(264,23,o),
(283,71,c),
(320,173,ls),
(336,217,o),
(350,268,o),
(362,328,cs),
(387,454,o),
(359,558,o),
(278,642,c),
(441,759,o),
(499,921,o),
(507,1110,cs),
(511,1212,l),
(511,1331,o),
(520,1354,o),
(579,1395,cs),
(629,1429,o),
(677,1431,o),
(752,1431,c),
(782,1579,l),
(666,1579,o),
(568,1549,o),
(487,1494,cs),
(355,1404,o),
(319,1267,o),
(323,1104,cs),
(325,1017,l),
(325,820,o),
(271,716,o),
(128,716,cs)
);
}
);
width = 706;
},
{
layerId = "01EADDEA-E3EA-45FB-B4A5-8F079D2A3A41";
shapes = (
{
closed = 1;
nodes = (
(156,748,l),
(114,535,l),
(177,535,ls),
(263,535,o),
(301,494,o),
(286,415,cs),
(277,368,o),
(260,321,o),
(236,271,c),
(194,178,ls),
(159,103,o),
(132,22,o),
(129,-44,c),
(116,-222,o),
(248,-296,o),
(532,-296,c),
(569,-115,l),
(527,-115,o),
(493,-109,o),
(465,-100,c),
(411,-77,o),
(400,-42,o),
(411,15,c),
(416,35,o),
(424,64,o),
(438,103,cs),
(468,182,ls),
(491,242,o),
(513,313,o),
(515,373,c),
(523,487,o),
(470,578,o),
(358,642,c),
(573,744,o),
(643,884,o),
(652,1099,cs),
(654,1180,ls),
(658,1282,o),
(671,1335,o),
(730,1367,c),
(761,1385,o),
(813,1398,o),
(871,1398,c),
(907,1579,l),
(763,1579,o),
(649,1560,o),
(567,1518,cs),
(427,1448,o),
(367,1300,o),
(379,1105,cs),
(385,1012,l),
(398,856,o),
(356,748,o),
(219,748,cs)
);
}
);
width = 827;
},
{
layerId = "ED340520-5A40-405B-AFF7-E5EF9D999D24";
shapes = (
{
closed = 1;
nodes = (
(134,740,l),
(95,543,l),
(157,543,ls),
(247,543,o),
(286,499,o),
(269,413,cs),
(260,366,o),
(244,319,o),
(221,270,c),
(180,178,ls),
(148,108,o),
(123,33,o),
(118,-30,c),
(99,-209,o),
(229,-296,o),
(501,-296,c),
(536,-123,l),
(500,-123,o),
(470,-119,o),
(445,-112,cs),
(382,-95,o),
(359,-55,o),
(371,5,cs),
(375,24,o),
(384,54,o),
(399,95,cs),
(431,180,ls),
(452,236,o),
(472,302,o),
(477,362,c),
(489,479,o),
(442,573,o),
(338,642,c),
(540,748,o),
(607,893,o),
(616,1102,c),
(618,1188,ls),
(621,1294,o),
(633,1340,o),
(692,1374,cs),
(728,1396,o),
(779,1406,o),
(841,1406,c),
(876,1579,l),
(739,1579,o),
(629,1557,o),
(547,1512,cs),
(409,1437,o),
(355,1292,o),
(365,1105,cs),
(370,1013,ls),
(380,847,o),
(335,740,o),
(196,740,cs)
);
}
);
width = 797;
}
);
unicode = 123;
},
{
glyphname = bar;
layers = (
{
layerId = "5E5F26D6-8E6E-4FD0-9F5C-925EECC75CBD";
shapes = (
{
closed = 1;
nodes = (
(33,-296,l),
(170,-296,l),
(545,1579,l),
(408,1579,l)
);
}
);
width = 548;
},
{
layerId = "802D032B-EE86-4213-9785-3BFE9E181E39";
shapes = (
{
closed = 1;
nodes = (
(26,-296,l),
(184,-296,l),
(559,1579,l),
(401,1579,l)
);
}
);
width = 554;
},
{
layerId = "01EADDEA-E3EA-45FB-B4A5-8F079D2A3A41";
shapes = (
{
closed = 1;
nodes = (
(-2,-296,l),
(239,-296,l),
(614,1579,l),
(373,1579,l)
);
}
);
width = 579;
},
{
layerId = "ED340520-5A40-405B-AFF7-E5EF9D999D24";
shapes = (
{
closed = 1;
nodes = (
(5,-296,l),
(225,-296,l),
(600,1579,l),
(380,1579,l)
);
}
);
width = 573;
}
);
unicode = 124;
},
{
glyphname = braceright;
layers = (
{
layerId = "5E5F26D6-8E6E-4FD0-9F5C-925EECC75CBD";
shapes = (
{
closed = 1;
nodes = (
(664,576,l),
(691,708,l),
(629,708,ls),
(522,708,o),
(484,764,o),
(506,878,cs),
(515,924,o),
(527,971,o),
(547,1018,cs),
(583,1104,ls),
(604,1156,o),
(619,1205,o),
(632,1256,c),
(673,1445,o),
(542,1579,o),
(331,1579,c),
(303,1439,l),
(314,1439,o),
(328,1441,o),
(342,1443,c),
(437,1449,o),
(508,1390,o),
(496,1318,c),
(491,1303,o),
(483,1269,o),
(464,1220,cs),
(422,1112,ls),
(407,1072,o),
(396,1024,o),
(382,965,cs),
(353,837,o),
(374,728,o),
(449,642,c),
(298,518,o),
(238,348,o),
(234,170,cs),
(233,63,l),
(227,-63,o),
(224,-76,o),
(164,-119,cs),
(110,-158,o),
(61,-156,o),
(-15,-156,c),
(-44,-296,l),
(60,-296,o),
(152,-266,o),
(234,-208,cs),
(366,-114,o),
(400,16,o),
(398,179,cs),
(397,265,ls),
(394,469,o),
(461,576,o),
(602,576,cs)
);
}
);
width = 676;
},
{
layerId = "802D032B-EE86-4213-9785-3BFE9E181E39";
shapes = (
{
closed = 1;
nodes = (
(671,568,l),
(701,716,l),
(639,716,ls),
(536,716,o),
(498,769,o),
(519,876,cs),
(528,922,o),
(541,969,o),
(562,1017,cs),
(599,1104,ls),
(623,1161,o),
(640,1216,o),
(651,1270,cs),
(687,1457,o),
(556,1579,o),
(330,1579,c),
(300,1431,l),
(317,1431,o),
(335,1431,o),
(352,1431,cs),
(439,1431,o),
(498,1377,o),
(486,1308,c),
(481,1292,o),
(473,1259,o),
(455,1212,cs),
(416,1110,ls),
(399,1066,o),
(386,1014,o),
(374,955,cs),
(349,829,o),
(377,724,o),
(459,642,c),
(296,523,o),
(233,358,o),
(229,173,cs),
(227,71,l),
(222,-50,o),
(216,-71,o),
(157,-112,cs),
(107,-147,o),
(58,-148,o),
(-15,-148,c),
(-45,-296,l),
(69,-296,o),
(167,-267,o),
(249,-211,cs),
(380,-121,o),
(418,12,o),
(414,179,cs),
(412,266,ls),
(407,459,o),
(468,568,o),
(609,568,cs)
);
}
);
width = 706;
},
{
layerId = "01EADDEA-E3EA-45FB-B4A5-8F079D2A3A41";
shapes = (
{
closed = 1;
nodes = (
(700,535,l),
(742,748,l),
(680,748,ls),
(593,748,o),
(555,788,o),
(571,868,cs),
(580,915,o),
(597,962,o),
(621,1012,c),
(663,1105,ls),
(698,1180,o),
(725,1261,o),
(728,1327,c),
(742,1504,o),
(612,1579,o),
(325,1579,c),
(288,1398,l),
(330,1398,o),
(364,1392,o),
(392,1383,c),
(447,1360,o),
(458,1325,o),
(446,1268,cs),
(442,1248,o),
(433,1219,o),
(419,1180,cs),
(391,1101,l),
(368,1041,o),
(346,974,o),
(343,915,c),
(334,798,o),
(388,708,o),
(500,642,c),
(288,542,o),
(213,397,o),
(208,184,c),
(203,103,l),
(201,1,o),
(184,-52,o),
(128,-84,cs),
(96,-102,o),
(45,-115,o),
(-14,-115,c),
(-50,-296,l),
(106,-296,o),
(227,-272,o),
(310,-223,cs),
(436,-150,o),
(489,-4,o),
(478,178,cs),
(472,271,ls),
(460,420,o),
(495,535,o),
(638,535,cs)
);
}
);
width = 827;
},
{
layerId = "ED340520-5A40-405B-AFF7-E5EF9D999D24";
shapes = (
{
closed = 1;
nodes = (
(693,543,l),
(732,740,l),
(670,740,ls),
(579,740,o),
(541,783,o),
(558,870,cs),
(567,917,o),
(583,964,o),
(606,1013,c),
(647,1105,ls),
(679,1175,o),
(704,1250,o),
(709,1313,c),
(728,1492,o),
(598,1579,o),
(326,1579,c),
(291,1406,l),
(327,1406,o),
(357,1402,o),
(382,1395,cs),
(445,1378,o),
(468,1338,o),
(456,1278,cs),
(452,1259,o),
(443,1229,o),
(428,1188,cs),
(397,1103,ls),
(376,1047,o),
(356,984,o),
(351,925,c),
(338,806,o),
(385,712,o),
(490,642,c),
(290,537,o),
(218,387,o),
(213,181,c),
(209,95,l),
(206,-12,o),
(192,-57,o),
(135,-91,cs),
(99,-113,o),
(48,-123,o),
(-14,-123,c),
(-49,-296,l),
(97,-296,o),
(212,-271,o),
(295,-220,cs),
(422,-143,o),
(471,0,o),
(462,178,cs),
(457,270,ls),
(447,430,o),
(488,543,o),
(631,543,cs)
);
}
);
width = 797;
}
);
unicode = 125;
},
{
glyphname = asciitilde;
layers = (
{
layerId = "5E5F26D6-8E6E-4FD0-9F5C-925EECC75CBD";
shapes = (
{
closed = 1;
nodes = (
(262,444,l),
(262,441,l),
(287,569,o),
(337,633,o),
(412,633,cs),
(470,633,o),
(495,594,o),
(530,567,cs),
(636,484,ls),
(692,440,o),
(749,418,o),
(806,418,cs),
(982,418,o),
(1089,525,o),
(1132,740,c),
(973,740,l),
(941,615,o),
(901,551,o),
(824,551,cs),
(761,551,o),
(743,590,o),
(708,617,cs),
(601,700,ls),
(544,744,o),
(487,766,o),
(431,766,cs),
(254,766,o),
(146,658,o),
(103,444,c)
);
}
);
width = 1225;
},
{
layerId = "802D032B-EE86-4213-9785-3BFE9E181E39";
shapes = (
{
closed = 1;
nodes = (
(239,444,l),
(263,564,o),
(315,624,o),
(395,624,cs),
(454,624,o),
(486,589,o),
(525,558,cs),
(622,481,ls),
(679,435,o),
(739,412,o),
(802,412,cs),
(982,412,o),
(1093,521,o),
(1137,740,c),
(989,740,l),
(965,621,o),
(914,560,o),
(834,560,cs),
(772,560,o),
(744,595,o),
(705,626,cs),
(608,703,ls),
(550,749,o),
(490,772,o),
(428,772,cs),
(247,772,o),
(135,662,o),
(91,444,c)
);
}
);
width = 1218;
},
{
layerId = "01EADDEA-E3EA-45FB-B4A5-8F079D2A3A41";
shapes = (
{
closed = 1;
nodes = (
(146,444,l),
(148,456,l),
(166,544,o),
(226,588,o),
(326,588,cs),
(389,588,o),
(450,568,o),
(505,521,cs),
(566,468,ls),
(628,415,o),
(699,388,o),
(785,388,cs),
(983,388,o),
(1109,505,o),
(1156,740,c),
(1054,740,l),
(1062,644,o),
(965,596,o),
(875,596,cs),
(816,596,o),
(748,615,o),
(694,663,cs),
(635,716,l),
(574,768,o),
(502,797,o),
(416,797,cs),
(218,797,o),
(92,679,o),
(44,444,c)
);
}
);
width = 1189;
},
{
layerId = "ED340520-5A40-405B-AFF7-E5EF9D999D24";
shapes = (
{
closed = 1;
nodes = (
(169,444,l),
(171,453,l),
(190,549,o),
(248,597,o),
(343,597,cs),
(405,597,o),
(459,573,o),
(510,530,cs),
(580,471,ls),
(641,420,o),
(709,394,o),
(789,394,cs),
(983,394,o),
(1105,509,o),
(1151,740,c),
(1038,740,l),
(1038,638,o),
(952,587,o),
(865,587,cs),
(805,587,o),
(747,610,o),
(697,654,cs),
(628,713,ls),
(568,763,o),
(499,791,o),
(419,791,cs),
(225,791,o),
(103,675,o),
(56,444,c)
);
}
);
width = 1196;
}
);
unicode = 126;
},
{
glyphname = exclamdown;
layers = (
{
layerId = "5E5F26D6-8E6E-4FD0-9F5C-925EECC75CBD";
shapes = (
{
closed = 1;
nodes = (
(545,1082,l),
(381,1082,l),
(344,903,l),
(508,903,l)
);
},
{
closed = 1;
nodes = (
(452,695,l),
(320,695,l),
(144,-103,l),
(85,-399,l),
(249,-399,l),
(308,-103,l)
);
}
);
width = 711;
},
{
layerId = "802D032B-EE86-4213-9785-3BFE9E181E39";
shapes = (
{
closed = 1;
nodes = (
(555,1086,l),
(358,1086,l),
(318,888,l),
(515,888,l)
);
},
{
closed = 1;
nodes = (
(452,691,l),
(304,691,l),
(121,-99,l),
(62,-395,l),
(259,-395,l),
(318,-99,l)
);
}
);
width = 704;
},
{
layerId = "01EADDEA-E3EA-45FB-B4A5-8F079D2A3A41";
shapes = (
{
closed = 1;
nodes = (
(596,1102,l),
(267,1102,l),
(213,827,l),
(542,827,l)
);
},
{
closed = 1;
nodes = (
(453,675,l),
(239,675,l),
(30,-82,l),
(-29,-378,l),
(300,-378,l),
(359,-82,l)
);
}
);
width = 675;
},
{
layerId = "ED340520-5A40-405B-AFF7-E5EF9D999D24";
shapes = (
{
closed = 1;
nodes = (
(586,1098,l),
(290,1098,l),
(239,842,l),
(535,842,l)
);
},
{
closed = 1;
nodes = (
(453,679,l),
(255,679,l),
(53,-86,l),
(-6,-382,l),
(290,-382,l),
(349,-86,l)
);
}
);
width = 682;
}
);
unicode = 161;
},
{
glyphname = cent;
layers = (
{
layerId = "5E5F26D6-8E6E-4FD0-9F5C-925EECC75CBD";
shapes = (
{
closed = 1;
nodes = (
(530,0,l),
(612,0,l),
(646,171,l),
(739,169,o),
(843,189,o),
(960,232,c),
(985,364,l),
(869,314,o),
(764,291,o),
(670,293,c),
(844,1159,l),
(914,1152,o),
(1009,1128,o),
(1131,1088,c),
(1160,1237,l),
(1056,1265,o),
(959,1281,o),
(868,1285,c),
(907,1480,l),
(825,1480,l),
(785,1284,l),
(507,1242,o),
(312,1057,o),
(236,779,c),
(158,456,o),
(298,202,o),
(563,172,c)
);
},
{
closed = 1;
nodes = (
(589,302,l),
(431,354,o),
(376,493,o),
(421,720,cs),
(477,1001,o),
(590,1143,o),
(759,1148,c)
);
}
);
width = 1168;
},
{
layerId = "802D032B-EE86-4213-9785-3BFE9E181E39";
shapes = (
{
closed = 1;
nodes = (
(530,0,l),
(629,0,l),
(663,173,l),
(753,173,o),
(851,192,o),
(959,231,c),
(988,380,l),
(880,335,o),
(781,313,o),
(691,313,c),
(859,1153,l),
(929,1146,o),
(1019,1123,o),
(1129,1083,c),
(1162,1249,l),
(1066,1275,o),
(975,1291,o),
(887,1295,c),
(924,1480,l),
(825,1480,l),
(788,1295,l),
(486,1255,o),
(281,1048,o),
(219,738,cs),
(158,431,o),
(299,199,o),
(564,173,c)
);
},
{
closed = 1;
nodes = (
(594,324,l),
(443,376,o),
(390,512,o),
(434,732,cs),
(486,992,o),
(594,1129,o),
(758,1144,c)
);
}
);
width = 1161;
},
{
layerId = "01EADDEA-E3EA-45FB-B4A5-8F079D2A3A41";
shapes = (
{
closed = 1;
nodes = (
(531,0,l),
(696,0,l),
(731,182,l),
(808,190,o),
(883,205,o),
(955,227,c),
(999,445,l),
(924,419,o),
(849,401,o),
(774,394,c),
(920,1128,l),
(990,1123,o),
(1058,1103,o),
(1122,1064,c),
(1169,1297,l),
(1106,1316,o),
(1038,1330,o),
(962,1335,c),
(991,1480,l),
(826,1480,l),
(799,1338,l),
(402,1307,o),
(156,1013,o),
(152,574,c),
(159,332,o),
(303,187,o),
(567,177,c)
);
},
{
closed = 1;
nodes = (
(614,413,l),
(490,465,o),
(447,587,o),
(486,779,cs),
(521,957,o),
(611,1073,o),
(755,1127,c)
);
}
);
width = 1132;
},
{
layerId = "ED340520-5A40-405B-AFF7-E5EF9D999D24";
shapes = (
{
closed = 1;
nodes = (
(531,0,l),
(679,0,l),
(714,180,l),
(794,186,o),
(875,202,o),
(956,228,c),
(996,429,l),
(913,398,o),
(832,379,o),
(753,374,c),
(905,1134,l),
(975,1129,o),
(1048,1108,o),
(1124,1069,c),
(1167,1285,l),
(1096,1306,o),
(1022,1320,o),
(943,1325,c),
(974,1480,l),
(826,1480,l),
(796,1327,l),
(423,1294,o),
(187,1022,o),
(169,615,cs),
(159,357,o),
(302,190,o),
(566,176,c)
);
},
{
closed = 1;
nodes = (
(609,391,l),
(478,443,o),
(433,568,o),
(473,767,cs),
(512,966,o),
(607,1087,o),
(756,1131,c)
);
}
);
width = 1139;
}
);
unicode = 162;
},
{
glyphname = sterling;
layers = (
{
layerId = "5E5F26D6-8E6E-4FD0-9F5C-925EECC75CBD";
shapes = (
{
closed = 1;
nodes = (
(30,0,l),
(852,0,l),
(882,153,l),
(280,153,l),
(499,318,o),
(496,462,o),
(553,722,c),
(776,722,l),
(802,858,l),
(579,858,l),
(637,1146,ls),
(667,1303,o),
(743,1381,o),
(866,1381,cs),
(944,1381,o),
(1020,1363,o),
(1097,1330,c),
(1129,1485,l),
(1056,1506,o),
(988,1517,o),
(922,1517,cs),
(681,1517,o),
(515,1362,o),
(461,1088,cs),
(415,858,l),
(231,858,l),
(204,722,l),
(389,722,l),
(339,480,ls),
(305,311,o),
(212,201,o),
(60,153,c)
);
}
);
width = 1168;
},
{
layerId = "802D032B-EE86-4213-9785-3BFE9E181E39";
shapes = (
{
closed = 1;
nodes = (
(20,0,l),
(865,0,l),
(899,173,l),
(288,173,l),
(497,323,o),
(512,446,o),
(570,716,c),
(786,716,l),
(815,864,l),
(599,864,l),
(654,1139,ls),
(684,1292,o),
(760,1369,o),
(884,1369,cs),
(961,1369,o),
(1037,1352,o),
(1113,1320,c),
(1147,1487,l),
(1069,1507,o),
(996,1517,o),
(926,1517,cs),
(670,1517,o),
(501,1361,o),
(445,1079,cs),
(402,864,l),
(223,864,l),
(194,716,l),
(373,716,l),
(327,489,ls),
(293,323,o),
(202,217,o),
(54,173,c)
);
}
);
width = 1161;
},
{
layerId = "01EADDEA-E3EA-45FB-B4A5-8F079D2A3A41";
shapes = (
{
closed = 1;
nodes = (
(-20,0,l),
(916,0,l),
(966,254,l),
(321,254,l),
(489,344,o),
(575,381,o),
(639,691,c),
(827,691,l),
(867,888,l),
(679,888,l),
(723,1111,ls),
(752,1249,o),
(828,1320,o),
(956,1320,cs),
(1030,1320,o),
(1104,1307,o),
(1176,1281,c),
(1219,1496,l),
(1120,1510,o),
(1028,1517,o),
(943,1517,cs),
(625,1517,o),
(444,1358,o),
(381,1043,cs),
(350,888,l),
(192,888,l),
(153,691,l),
(310,691,l),
(278,525,ls),
(246,371,o),
(163,281,o),
(30,254,c)
);
}
);
width = 1132;
},
{
layerId = "ED340520-5A40-405B-AFF7-E5EF9D999D24";
shapes = (
{
closed = 1;
nodes = (
(-10,0,l),
(903,0,l),
(949,234,l),
(313,234,l),
(491,339,o),
(559,397,o),
(622,697,c),
(817,697,l),
(854,882,l),
(659,882,l),
(706,1118,ls),
(735,1260,o),
(811,1332,o),
(938,1332,cs),
(1013,1332,o),
(1087,1318,o),
(1160,1291,c),
(1201,1494,l),
(1107,1509,o),
(1020,1517,o),
(939,1517,cs),
(636,1517,o),
(458,1359,o),
(397,1052,cs),
(363,882,l),
(200,882,l),
(163,697,l),
(326,697,l),
(290,516,ls),
(258,359,o),
(173,265,o),
(36,234,c)
);
}
);
width = 1139;
}
);
unicode = 163;
},
{
glyphname = currency;
layers = (
{
layerId = "5E5F26D6-8E6E-4FD0-9F5C-925EECC75CBD";
shapes = (
{
closed = 1;
nodes = (
(376,475,l),
(427,434,o),
(483,415,o),
(553,415,cs),
(621,415,o),
(690,434,o),
(756,475,c),
(870,333,l),
(960,408,l),
(848,550,l),
(895,607,o),
(925,663,o),
(942,723,c),
(958,793,o),
(951,861,o),
(922,930,c),
(1092,1072,l),
(1032,1148,l),
(863,1006,l),
(813,1046,o),
(753,1065,o),
(684,1065,cs),
(613,1065,o),
(546,1046,o),
(483,1006,c),
(369,1148,l),
(278,1072,l),
(392,930,l),
(339,867,o),
(306,803,o),
(293,740,cs),
(280,675,o),
(288,612,o),
(315,550,c),
(145,408,l),
(206,333,l)
);
},
{
closed = 1;
nodes = (
(438,505,o),
(358,609,o),
(384,740,c),
(406,869,o),
(533,975,o),
(666,975,cs),
(800,975,o),
(879,871,o),
(855,741,c),
(824,603,o),
(701,505,o),
(568,505,cs)
);
}
);
width = 1168;
},
{
layerId = "802D032B-EE86-4213-9785-3BFE9E181E39";
shapes = (
{
closed = 1;
nodes = (
(353,449,l),
(408,406,o),
(470,385,o),
(544,385,cs),
(616,385,o),
(689,406,o),
(761,449,c),
(886,293,l),
(990,380,l),
(867,536,l),
(922,602,o),
(956,670,o),
(970,740,cs),
(984,809,o),
(976,877,o),
(947,944,c),
(1134,1100,l),
(1065,1188,l),
(878,1032,l),
(823,1074,o),
(759,1095,o),
(686,1095,cs),
(612,1095,o),
(540,1074,o),
(470,1032,c),
(345,1188,l),
(240,1100,l),
(365,944,l),
(309,877,o),
(274,809,o),
(260,740,cs),
(246,670,o),
(254,602,o),
(283,536,c),
(96,380,l),
(166,293,l)
);
},
{
closed = 1;
nodes = (
(437,508,o),
(357,612,o),
(383,740,cs),
(408,868,o),
(531,972,o),
(662,972,cs),
(793,972,o),
(872,868,o),
(848,741,c),
(820,608,o),
(697,508,o),
(566,508,cs)
);
}
);
width = 1161;
},
{
layerId = "01EADDEA-E3EA-45FB-B4A5-8F079D2A3A41";
shapes = (
{
closed = 1;
nodes = (
(261,345,l),
(331,293,o),
(419,266,o),
(507,266,cs),
(595,266,o),
(686,293,o),
(782,345,c),
(951,133,l),
(1111,267,l),
(942,480,l),
(1029,582,o),
(1080,697,o),
(1083,808,c),
(1087,874,o),
(1075,940,o),
(1047,1001,c),
(1302,1213,l),
(1196,1347,l),
(939,1135,l),
(864,1187,o),
(783,1214,o),
(695,1214,cs),
(607,1214,o),
(515,1187,o),
(418,1135,c),
(249,1347,l),
(88,1213,l),
(258,1001,l),
(189,918,o),
(145,832,o),
(127,740,cs),
(109,650,o),
(118,563,o),
(154,480,c),
(-101,267,l),
(6,133,l)
);
},
{
closed = 1;
nodes = (
(434,521,o),
(354,623,o),
(380,739,c),
(415,864,o),
(522,959,o),
(647,959,cs),
(765,959,o),
(844,855,o),
(819,740,c),
(803,629,o),
(680,521,o),
(558,521,cs)
);
}
);
width = 1132;
},
{
layerId = "ED340520-5A40-405B-AFF7-E5EF9D999D24";
shapes = (
{
closed = 1;
nodes = (
(284,371,l),
(350,321,o),
(432,296,o),
(516,296,cs),
(600,296,o),
(687,321,o),
(777,371,c),
(935,173,l),
(1081,295,l),
(923,494,l),
(1002,587,o),
(1049,690,o),
(1055,791,c),
(1061,858,o),
(1050,924,o),
(1022,987,c),
(1260,1185,l),
(1163,1307,l),
(924,1109,l),
(854,1159,o),
(777,1184,o),
(693,1184,cs),
(608,1184,o),
(521,1159,o),
(431,1109,c),
(273,1307,l),
(126,1185,l),
(285,987,l),
(219,908,o),
(177,826,o),
(160,740,cs),
(143,655,o),
(152,573,o),
(186,494,c),
(-52,295,l),
(46,173,l)
);
},
{
closed = 1;
nodes = (
(435,518,o),
(355,620,o),
(381,739,c),
(413,865,o),
(524,962,o),
(651,962,cs),
(772,962,o),
(851,858,o),
(826,740,c),
(807,624,o),
(684,518,o),
(560,518,cs)
);
}
);
width = 1139;
}
);
unicode = 164;
},
{
glyphname = yen;
layers = (
{
layerId = "5E5F26D6-8E6E-4FD0-9F5C-925EECC75CBD";
shapes = (
{
closed = 1;
nodes = (
(366,0,l),
(530,0,l),
(601,359,l),
(913,359,l),
(934,462,l),
(622,462,l),
(657,637,l),
(969,637,l),
(989,738,l),
(676,738,l),
(1254,1480,l),
(1093,1480,l),
(642,902,l),
(641,902,o),
(641,902,o),
(640,902,c),
(421,1480,l),
(231,1480,l),
(512,738,l),
(200,738,l),
(181,637,l),
(493,637,l),
(458,462,l),
(145,462,l),
(124,359,l),
(437,359,l)
);
}
);
width = 1168;
},
{
layerId = "802D032B-EE86-4213-9785-3BFE9E181E39";
shapes = (
{
closed = 1;
nodes = (
(352,0,l),
(549,0,l),
(617,345,l),
(913,345,l),
(936,459,l),
(640,459,l),
(674,627,l),
(970,627,l),
(992,740,l),
(696,740,l),
(1271,1480,l),
(1094,1480,l),
(660,922,l),
(659,922,o),
(659,922,o),
(658,922,c),
(447,1480,l),
(219,1480,l),
(499,740,l),
(203,740,l),
(181,627,l),
(477,627,l),
(443,459,l),
(147,459,l),
(124,345,l),
(420,345,l)
);
}
);
width = 1161;
},
{
layerId = "01EADDEA-E3EA-45FB-B4A5-8F079D2A3A41";
shapes = (
{
closed = 1;
nodes = (
(296,0,l),
(625,0,l),
(682,288,l),
(913,288,l),
(944,447,l),
(713,447,l),
(742,588,l),
(973,588,l),
(1005,748,l),
(775,748,l),
(1339,1480,l),
(1099,1480,l),
(731,1001,l),
(731,1001,o),
(731,1001,o),
(731,1001,c),
(552,1480,l),
(171,1480,l),
(446,748,l),
(215,748,l),
(182,588,l),
(413,588,l),
(384,447,l),
(154,447,l),
(123,288,l),
(353,288,l)
);
}
);
width = 1132;
},
{
layerId = "ED340520-5A40-405B-AFF7-E5EF9D999D24";
shapes = (
{
closed = 1;
nodes = (
(310,0,l),
(606,0,l),
(666,302,l),
(913,302,l),
(942,450,l),
(695,450,l),
(725,598,l),
(972,598,l),
(1002,746,l),
(755,746,l),
(1322,1480,l),
(1098,1480,l),
(713,981,l),
(713,981,o),
(713,981,o),
(713,981,c),
(526,1480,l),
(183,1480,l),
(459,746,l),
(212,746,l),
(182,598,l),
(429,598,l),
(399,450,l),
(152,450,l),
(123,302,l),
(370,302,l)
);
}
);
width = 1139;
}
);
unicode = 165;
},
{
glyphname = brokenbar;
layers = (
{
layerId = "5E5F26D6-8E6E-4FD0-9F5C-925EECC75CBD";
shapes = (
{
closed = 1;
nodes = (
(40,-296,l),
(164,-296,l),
(312,444,l),
(188,444,l)
);
},
{
closed = 1;
nodes = (
(267,839,l),
(391,839,l),
(539,1579,l),
(415,1579,l)
);
}
);
width = 548;
},
{
layerId = "802D032B-EE86-4213-9785-3BFE9E181E39";
shapes = (
{
closed = 1;
nodes = (
(31,-296,l),
(179,-296,l),
(327,444,l),
(179,444,l)
);
},
{
closed = 1;
nodes = (
(258,839,l),
(406,839,l),
(554,1579,l),
(406,1579,l)
);
}
);
width = 554;
},
{
layerId = "01EADDEA-E3EA-45FB-B4A5-8F079D2A3A41";
shapes = (
{
closed = 1;
nodes = (
(-4,-296,l),
(240,-296,l),
(388,444,l),
(144,444,l)
);
},
{
closed = 1;
nodes = (
(223,839,l),
(467,839,l),
(615,1579,l),
(371,1579,l)
);
}
);
width = 579;
},
{
layerId = "ED340520-5A40-405B-AFF7-E5EF9D999D24";
shapes = (
{
closed = 1;
nodes = (
(5,-296,l),
(225,-296,l),
(373,444,l),
(153,444,l)
);
},
{
closed = 1;
nodes = (
(232,839,l),
(452,839,l),
(600,1579,l),
(380,1579,l)
);
}
);
width = 573;
}
);
unicode = 166;
},
{
glyphname = section;
layers = (
{
layerId = "5E5F26D6-8E6E-4FD0-9F5C-925EECC75CBD";
shapes = (
{
closed = 1;
nodes = (
(-26,-254,l),
(-44,-249,l),
(116,-305,o),
(249,-334,o),
(357,-334,cs),
(645,-334,o),
(876,-195,o),
(917,5,cs),
(940,120,o),
(900,208,o),
(800,270,c),
(924,382,o),
(998,485,o),
(1016,578,c),
(1047,742,o),
(978,823,o),
(711,937,c),
(501,1024,o),
(398,1072,o),
(432,1194,c),
(440,1225,o),
(456,1255,o),
(479,1280,c),
(549,1343,o),
(665,1381,o),
(785,1381,cs),
(880,1381,o),
(995,1361,o),
(1126,1323,c),
(1155,1468,l),
(1029,1500,o),
(919,1517,o),
(823,1517,cs),
(537,1517,o),
(315,1371,o),
(271,1152,cs),
(251,1056,o),
(282,979,o),
(365,917,c),
(244,818,o),
(175,719,o),
(156,620,cs),
(130,484,o),
(208,369,o),
(376,295,c),
(550,216,l),
(756,119,o),
(776,94,o),
(758,-4,c),
(736,-115,o),
(581,-197,o),
(405,-197,cs),
(292,-197,o),
(158,-160,o),
(7,-87,c)
);
},
{
closed = 1;
nodes = (
(520,419,ls),
(370,485,o),
(305,562,o),
(324,655,cs),
(337,724,o),
(377,792,o),
(445,855,c),
(657,764,l),
(818,691,o),
(866,639,o),
(845,540,cs),
(831,469,o),
(791,400,o),
(723,330,c)
);
}
);
width = 1168;
},
{
layerId = "802D032B-EE86-4213-9785-3BFE9E181E39";
shapes = (
{
closed = 1;
nodes = (
(-24,-260,l),
(122,-309,o),
(246,-334,o),
(348,-334,cs),
(646,-334,o),
(868,-201,o),
(910,9,cs),
(933,124,o),
(896,213,o),
(800,277,c),
(920,387,o),
(991,490,o),
(1010,585,cs),
(1042,752,o),
(974,837,o),
(718,951,c),
(530,1031,o),
(432,1076,o),
(453,1184,cs),
(458,1211,o),
(470,1237,o),
(488,1259,cs),
(545,1329,o),
(653,1369,o),
(780,1369,cs),
(876,1369,o),
(988,1349,o),
(1114,1310,c),
(1146,1470,l),
(1022,1501,o),
(911,1517,o),
(811,1517,cs),
(531,1517,o),
(312,1371,o),
(268,1152,cs),
(248,1054,o),
(279,974,o),
(361,912,c),
(243,813,o),
(175,713,o),
(155,613,cs),
(127,470,o),
(201,359,o),
(377,277,cs),
(539,201,l),
(717,115,o),
(744,84,o),
(728,-5,c),
(706,-112,o),
(569,-185,o),
(400,-185,cs),
(290,-185,o),
(160,-150,o),
(12,-80,c)
);
},
{
closed = 1;
nodes = (
(521,431,ls),
(380,496,o),
(319,571,o),
(337,661,cs),
(349,724,o),
(386,786,o),
(448,846,c),
(651,753,l),
(804,681,o),
(847,631,o),
(827,535,cs),
(814,471,o),
(777,407,o),
(715,341,c)
);
}
);
width = 1161;
},
{
layerId = "01EADDEA-E3EA-45FB-B4A5-8F079D2A3A41";
shapes = (
{
closed = 1;
nodes = (
(-16,-284,l),
(56,-304,l),
(147,-324,o),
(233,-334,o),
(311,-334,cs),
(651,-334,o),
(835,-224,o),
(883,26,cs),
(906,141,o),
(879,234,o),
(800,305,c),
(903,408,o),
(964,510,o),
(985,612,cs),
(1022,792,o),
(958,894,o),
(745,1006,c),
(647,1059,o),
(567,1093,o),
(536,1145,c),
(530,1154,o),
(525,1164,o),
(523,1175,c),
(528,1273,o),
(606,1320,o),
(759,1320,cs),
(859,1320,o),
(960,1300,o),
(1066,1259,c),
(1110,1479,l),
(995,1505,o),
(879,1518,o),
(764,1518,cs),
(507,1518,o),
(300,1371,o),
(256,1153,cs),
(235,1046,o),
(267,955,o),
(345,891,c),
(238,792,o),
(174,689,o),
(152,585,cs),
(116,415,o),
(174,319,o),
(382,204,cs),
(495,141,l),
(561,100,o),
(616,44,o),
(607,-9,c),
(587,-100,o),
(521,-136,o),
(379,-136,cs),
(282,-136,o),
(167,-109,o),
(31,-52,c)
);
},
{
closed = 1;
nodes = (
(524,480,l),
(420,540,o),
(375,608,o),
(390,684,cs),
(398,723,o),
(421,763,o),
(460,809,c),
(626,710,l),
(747,641,o),
(772,600,o),
(755,516,cs),
(747,478,o),
(722,435,o),
(683,386,c)
);
}
);
width = 1132;
},
{
layerId = "ED340520-5A40-405B-AFF7-E5EF9D999D24";
shapes = (
{
closed = 1;
nodes = (
(-18,-278,l),
(36,-293,l),
(141,-320,o),
(236,-334,o),
(320,-334,cs),
(650,-334,o),
(843,-218,o),
(890,22,cs),
(913,137,o),
(883,229,o),
(800,298,c),
(907,403,o),
(971,505,o),
(991,605,cs),
(1027,782,o),
(962,880,o),
(738,992,c),
(618,1052,o),
(533,1089,o),
(515,1155,c),
(512,1168,o),
(511,1182,o),
(514,1196,cs),
(532,1287,o),
(618,1332,o),
(764,1332,cs),
(863,1332,o),
(967,1312,o),
(1078,1272,c),
(1119,1477,l),
(1002,1504,o),
(887,1518,o),
(776,1518,cs),
(513,1518,o),
(303,1371,o),
(259,1153,cs),
(238,1048,o),
(270,960,o),
(349,896,c),
(239,797,o),
(174,695,o),
(153,592,cs),
(119,429,o),
(181,329,o),
(381,222,cs),
(506,156,l),
(600,104,o),
(648,54,o),
(637,-8,c),
(617,-103,o),
(533,-148,o),
(384,-148,cs),
(284,-148,o),
(165,-119,o),
(26,-59,c)
);
},
{
closed = 1;
nodes = (
(523,468,ls),
(410,529,o),
(361,599,o),
(377,678,cs),
(386,723,o),
(412,769,o),
(457,818,c),
(632,721,l),
(761,651,o),
(791,608,o),
(773,521,cs),
(764,476,o),
(736,428,o),
(691,375,c)
);
}
);
width = 1139;
}
);
unicode = 167;
},
{
glyphname = dieresis;
layers = (
{
layerId = "5E5F26D6-8E6E-4FD0-9F5C-925EECC75CBD";
shapes = (
{
closed = 1;
nodes = (
(228,1283,l),
(385,1283,l),
(415,1440,l),
(259,1440,l)
);
},
{
closed = 1;
nodes = (
(615,1283,l),
(771,1283,l),
(802,1440,l),
(646,1440,l)
);
}
);
width = 711;
},
{
layerId = "802D032B-EE86-4213-9785-3BFE9E181E39";
shapes = (
{
closed = 1;
nodes = (
(212,1283,l),
(385,1283,l),
(419,1456,l),
(246,1456,l)
);
},
{
closed = 1;
nodes = (
(607,1283,l),
(780,1283,l),
(814,1456,l),
(641,1456,l)
);
}
);
width = 704;
},
{
layerId = "01EADDEA-E3EA-45FB-B4A5-8F079D2A3A41";
shapes = (
{
closed = 1;
nodes = (
(148,1283,l),
(386,1283,l),
(434,1521,l),
(195,1521,l)
);
},
{
closed = 1;
nodes = (
(575,1283,l),
(815,1283,l),
(862,1521,l),
(622,1521,l)
);
}
);
width = 675;
},
{
layerId = "ED340520-5A40-405B-AFF7-E5EF9D999D24";
shapes = (
{
closed = 1;
nodes = (
(164,1283,l),
(386,1283,l),
(430,1505,l),
(208,1505,l)
);
},
{
closed = 1;
nodes = (
(583,1283,l),
(806,1283,l),
(850,1505,l),
(627,1505,l)
);
}
);
width = 682;
}
);
unicode = 168;
},
{
glyphname = copyright;
layers = (
{
layerId = "5E5F26D6-8E6E-4FD0-9F5C-925EECC75CBD";
shapes = (
{
closed = 1;
nodes = (
(859,0,o),
(1050,70,o),
(1224,215,cs),
(1386,351,o),
(1490,510,o),
(1542,703,c),
(1592,922,o),
(1557,1109,o),
(1434,1263,cs),
(1317,1407,o),
(1158,1480,o),
(954,1480,cs),
(750,1480,o),
(561,1407,o),
(388,1263,cs),
(223,1127,o),
(121,967,o),
(71,779,c),
(20,561,o),
(55,374,o),
(178,218,cs),
(293,72,o),
(449,0,o),
(650,0,cs)
);
},
{
closed = 1;
nodes = (
(498,100,o),
(361,163,o),
(263,289,cs),
(164,415,o),
(131,565,o),
(166,740,cs),
(200,915,o),
(294,1067,o),
(445,1192,cs),
(594,1317,o),
(757,1381,o),
(934,1381,cs),
(1109,1381,o),
(1248,1317,o),
(1349,1192,cs),
(1450,1068,o),
(1482,916,o),
(1448,741,cs),
(1413,562,o),
(1317,411,o),
(1167,287,cs),
(1014,162,o),
(850,100,o),
(669,100,cs)
);
},
{
closed = 1;
nodes = (
(1013,481,l),
(930,438,o),
(856,419,o),
(790,419,cs),
(606,419,o),
(519,536,o),
(558,738,cs),
(597,933,o),
(738,1066,o),
(906,1066,cs),
(973,1066,o),
(1044,1048,o),
(1119,1014,c),
(1143,1129,l),
(1054,1150,o),
(975,1156,o),
(920,1156,cs),
(681,1156,o),
(487,997,o),
(430,750,cs),
(373,501,o),
(504,317,o),
(746,317,cs),
(813,317,o),
(895,332,o),
(990,365,c)
);
}
);
width = 1538;
},
{
layerId = "802D032B-EE86-4213-9785-3BFE9E181E39";
shapes = (
{
closed = 1;
nodes = (
(854,0,o),
(1045,71,o),
(1219,215,cs),
(1392,359,o),
(1500,534,o),
(1542,742,cs),
(1582,945,o),
(1545,1119,o),
(1429,1263,cs),
(1313,1407,o),
(1153,1480,o),
(949,1480,cs),
(745,1480,o),
(556,1407,o),
(383,1263,cs),
(209,1119,o),
(102,944,o),
(61,740,cs),
(21,538,o),
(58,364,o),
(173,218,cs),
(288,72,o),
(445,0,o),
(645,0,cs)
);
},
{
closed = 1;
nodes = (
(496,106,o),
(361,168,o),
(263,293,cs),
(165,418,o),
(133,567,o),
(167,740,cs),
(201,914,o),
(294,1064,o),
(443,1188,cs),
(591,1312,o),
(753,1375,o),
(928,1375,cs),
(1102,1375,o),
(1239,1312,o),
(1339,1188,cs),
(1439,1064,o),
(1471,915,o),
(1437,741,cs),
(1402,564,o),
(1308,414,o),
(1159,291,cs),
(1008,167,o),
(845,106,o),
(666,106,cs)
);
},
{
closed = 1;
nodes = (
(1020,482,l),
(940,442,o),
(865,423,o),
(793,423,cs),
(610,423,o),
(521,543,o),
(560,739,cs),
(598,929,o),
(735,1063,o),
(904,1063,cs),
(974,1063,o),
(1047,1045,o),
(1125,1010,c),
(1149,1128,l),
(1060,1150,o),
(978,1157,o),
(915,1157,cs),
(665,1157,o),
(469,990,o),
(418,735,cs),
(369,492,o),
(503,317,o),
(745,317,cs),
(816,317,o),
(900,332,o),
(996,364,c)
);
}
);
width = 1531;
},
{
layerId = "01EADDEA-E3EA-45FB-B4A5-8F079D2A3A41";
shapes = (
{
closed = 1;
nodes = (
(834,0,o),
(1026,74,o),
(1200,215,cs),
(1415,392,o),
(1540,630,o),
(1543,899,c),
(1541,1036,o),
(1496,1158,o),
(1410,1263,c),
(1296,1408,o),
(1133,1480,o),
(930,1480,cs),
(726,1480,o),
(537,1408,o),
(364,1263,cs),
(152,1086,o),
(26,852,o),
(22,583,c),
(26,446,o),
(70,325,o),
(154,218,cs),
(269,73,o),
(429,0,o),
(626,0,cs)
);
},
{
closed = 1;
nodes = (
(489,129,o),
(360,188,o),
(263,309,cs),
(168,429,o),
(140,576,o),
(171,740,cs),
(205,909,o),
(293,1052,o),
(436,1172,cs),
(580,1292,o),
(737,1351,o),
(905,1351,cs),
(1073,1351,o),
(1203,1293,o),
(1300,1172,cs),
(1396,1049,o),
(1427,910,o),
(1394,741,cs),
(1359,571,o),
(1271,426,o),
(1127,307,cs),
(984,188,o),
(825,129,o),
(653,129,cs)
);
},
{
closed = 1;
nodes = (
(1047,487,l),
(981,457,o),
(901,440,o),
(806,440,cs),
(626,440,o),
(529,570,o),
(567,743,cs),
(603,912,o),
(723,1052,o),
(896,1052,cs),
(978,1052,o),
(1060,1034,o),
(1148,995,c),
(1173,1125,l),
(1085,1149,o),
(989,1162,o),
(895,1162,cs),
(601,1162,o),
(396,962,o),
(369,676,c),
(353,455,o),
(500,318,o),
(740,318,cs),
(828,318,o),
(919,332,o),
(1020,359,c)
);
}
);
width = 1502;
},
{
layerId = "ED340520-5A40-405B-AFF7-E5EF9D999D24";
shapes = (
{
closed = 1;
nodes = (
(839,0,o),
(1031,73,o),
(1205,215,cs),
(1409,384,o),
(1530,606,o),
(1543,860,cs),
(1551,1013,o),
(1508,1148,o),
(1415,1263,cs),
(1300,1408,o),
(1138,1480,o),
(935,1480,cs),
(731,1480,o),
(542,1408,o),
(369,1263,cs),
(166,1094,o),
(45,875,o),
(32,622,cs),
(25,469,o),
(67,335,o),
(159,218,cs),
(274,73,o),
(433,0,o),
(631,0,cs)
);
},
{
closed = 1;
nodes = (
(491,123,o),
(360,183,o),
(263,305,cs),
(167,426,o),
(138,574,o),
(170,740,cs),
(204,910,o),
(293,1055,o),
(438,1176,cs),
(583,1297,o),
(741,1357,o),
(911,1357,cs),
(1080,1357,o),
(1212,1298,o),
(1310,1176,cs),
(1407,1053,o),
(1438,911,o),
(1405,741,cs),
(1370,569,o),
(1280,423,o),
(1135,303,cs),
(990,183,o),
(830,123,o),
(656,123,cs)
);
},
{
closed = 1;
nodes = (
(1040,486,l),
(971,453,o),
(892,436,o),
(803,436,cs),
(622,436,o),
(527,563,o),
(565,742,cs),
(602,916,o),
(726,1055,o),
(898,1055,cs),
(977,1055,o),
(1057,1037,o),
(1142,999,c),
(1167,1126,l),
(1079,1149,o),
(986,1161,o),
(900,1161,cs),
(617,1161,o),
(414,969,o),
(381,691,cs),
(357,464,o),
(501,318,o),
(741,318,cs),
(825,318,o),
(914,332,o),
(1014,360,c)
);
}
);
width = 1509;
}
);
unicode = 169;
},
{
glyphname = ordfeminine;
layers = (
{
layerId = "5E5F26D6-8E6E-4FD0-9F5C-925EECC75CBD";
shapes = (
{
closed = 1;
nodes = (
(591,920,l),
(591,854,o),
(623,822,o),
(687,822,cs),
(718,822,o),
(749,828,o),
(782,842,c),
(787,911,l),
(777,909,o),
(769,909,o),
(763,909,cs),
(722,909,o),
(707,942,o),
(721,1011,c),
(720,1007,o),
(720,1004,o),
(719,1000,c),
(780,1311,ls),
(807,1449,o),
(747,1518,o),
(598,1518,cs),
(524,1518,o),
(442,1501,o),
(353,1467,c),
(333,1366,l),
(414,1405,o),
(489,1425,o),
(556,1425,cs),
(634,1425,o),
(666,1386,o),
(652,1310,c),
(636,1232,l),
(588,1232,ls),
(366,1232,o),
(237,1160,o),
(203,1016,cs),
(176,903,o),
(239,822,o),
(357,822,cs),
(426,822,o),
(504,855,o),
(589,920,c)
);
},
{
closed = 1;
nodes = (
(588,988,l),
(524,943,o),
(466,922,o),
(418,922,cs),
(347,922,o),
(319,956,o),
(333,1026,cs),
(350,1112,o),
(434,1156,o),
(585,1156,cs),
(620,1156,l)
);
}
);
width = 787;
},
{
layerId = "802D032B-EE86-4213-9785-3BFE9E181E39";
shapes = (
{
closed = 1;
nodes = (
(571,915,l),
(575,853,o),
(611,822,o),
(679,822,cs),
(710,822,o),
(743,828,o),
(779,841,c),
(789,924,l),
(779,922,o),
(771,922,o),
(765,922,cs),
(727,922,o),
(714,952,o),
(726,1013,c),
(726,1013,o),
(726,1013,o),
(726,1013,c),
(785,1311,ls),
(812,1449,o),
(746,1518,o),
(585,1518,cs),
(508,1518,o),
(425,1501,o),
(337,1469,c),
(315,1358,l),
(395,1397,o),
(470,1417,o),
(539,1417,cs),
(617,1417,o),
(650,1380,o),
(636,1307,cs),
(622,1237,l),
(574,1237,ls),
(346,1237,o),
(216,1161,o),
(186,1009,cs),
(164,900,o),
(230,822,o),
(345,822,cs),
(413,822,o),
(487,853,o),
(566,915,c)
);
},
{
closed = 1;
nodes = (
(574,996,l),
(515,953,o),
(463,932,o),
(417,932,cs),
(351,932,o),
(325,964,o),
(338,1029,cs),
(354,1109,o),
(430,1150,o),
(566,1150,cs),
(604,1150,l)
);
}
);
width = 780;
},
{
layerId = "01EADDEA-E3EA-45FB-B4A5-8F079D2A3A41";
shapes = (
{
closed = 1;
nodes = (
(490,895,l),
(511,848,o),
(564,823,o),
(647,823,cs),
(679,823,o),
(719,827,o),
(766,837,c),
(796,977,l),
(787,975,o),
(779,974,o),
(772,974,cs),
(748,974,o),
(741,991,o),
(746,1022,c),
(749,1037,o),
(751,1050,o),
(754,1065,cs),
(804,1310,ls),
(832,1448,o),
(742,1517,o),
(534,1517,cs),
(445,1517,o),
(358,1502,o),
(274,1476,c),
(244,1325,l),
(320,1365,o),
(395,1385,o),
(472,1385,cs),
(550,1385,o),
(585,1357,o),
(572,1296,c),
(565,1257,l),
(517,1257,ls),
(267,1257,o),
(131,1165,o),
(119,981,c),
(117,887,o),
(193,823,o),
(297,823,cs),
(361,823,o),
(419,846,o),
(474,895,c)
);
},
{
closed = 1;
nodes = (
(518,1027,l),
(480,992,o),
(451,972,o),
(412,972,cs),
(367,972,o),
(349,996,o),
(358,1042,cs),
(370,1098,o),
(414,1126,o),
(490,1126,cs),
(539,1126,l)
);
}
);
width = 751;
},
{
layerId = "ED340520-5A40-405B-AFF7-E5EF9D999D24";
shapes = (
{
closed = 1;
nodes = (
(510,900,l),
(527,849,o),
(576,823,o),
(655,823,cs),
(687,823,o),
(725,827,o),
(769,838,c),
(794,964,l),
(785,962,o),
(777,961,o),
(770,961,cs),
(743,961,o),
(734,981,o),
(741,1020,cs),
(743,1031,o),
(745,1041,o),
(747,1052,cs),
(799,1310,ls),
(827,1448,o),
(743,1517,o),
(547,1517,cs),
(461,1517,o),
(375,1502,o),
(290,1474,c),
(262,1333,l),
(339,1373,o),
(414,1393,o),
(489,1393,cs),
(567,1393,o),
(601,1363,o),
(588,1299,cs),
(579,1252,l),
(531,1252,ls),
(287,1252,o),
(152,1164,o),
(136,988,c),
(129,890,o),
(202,823,o),
(309,823,cs),
(374,823,o),
(436,848,o),
(497,900,c)
);
},
{
closed = 1;
nodes = (
(532,1019,l),
(489,982,o),
(454,962,o),
(413,962,cs),
(363,962,o),
(343,988,o),
(353,1039,cs),
(366,1101,o),
(418,1132,o),
(509,1132,cs),
(555,1132,l)
);
}
);
width = 758;
}
);
unicode = 170;
},
{
glyphname = guillemotleft;
layers = (
{
layerId = "5E5F26D6-8E6E-4FD0-9F5C-925EECC75CBD";
shapes = (
{
closed = 1;
nodes = (
(1065,921,l),
(993,985,l),
(517,541,l),
(815,97,l),
(913,161,l),
(682,541,l)
);
},
{
closed = 1;
nodes = (
(691,922,l),
(619,985,l),
(142,541,l),
(441,97,l),
(538,161,l),
(307,541,l)
);
}
);
width = 1168;
},
{
layerId = "802D032B-EE86-4213-9785-3BFE9E181E39";
shapes = (
{
closed = 1;
nodes = (
(1084,913,l),
(1001,987,l),
(517,543,l),
(823,99,l),
(936,173,l),
(714,543,l)
);
},
{
closed = 1;
nodes = (
(689,913,l),
(606,987,l),
(122,543,l),
(428,99,l),
(541,173,l),
(319,543,l)
);
}
);
width = 1161;
},
{
layerId = "01EADDEA-E3EA-45FB-B4A5-8F079D2A3A41";
shapes = (
{
closed = 1;
nodes = (
(1161,880,l),
(1032,995,l),
(518,551,l),
(854,107,l),
(1029,222,l),
(843,551,l)
);
},
{
closed = 1;
nodes = (
(682,876,l),
(554,995,l),
(42,551,l),
(376,107,l),
(552,222,l),
(367,551,l)
);
}
);
width = 1132;
},
{
layerId = "ED340520-5A40-405B-AFF7-E5EF9D999D24";
shapes = (
{
closed = 1;
nodes = (
(1142,888,l),
(1024,993,l),
(518,549,l),
(846,105,l),
(1006,210,l),
(811,549,l)
);
},
{
closed = 1;
nodes = (
(684,885,l),
(567,993,l),
(62,549,l),
(389,105,l),
(549,210,l),
(355,549,l)
);
}
);
width = 1139;
}
);
unicode = 171;
},
{
glyphname = logicalnot;
layers = (
{
layerId = "5E5F26D6-8E6E-4FD0-9F5C-925EECC75CBD";
shapes = (
{
closed = 1;
nodes = (
(131,748,l),
(978,748,l),
(889,296,l),
(1029,296,l),
(1147,888,l),
(160,888,l)
);
}
);
width = 1225;
},
{
layerId = "802D032B-EE86-4213-9785-3BFE9E181E39";
shapes = (
{
closed = 1;
nodes = (
(132,740,l),
(971,740,l),
(883,296,l),
(1031,296,l),
(1149,888,l),
(162,888,l)
);
}
);
width = 1218;
},
{
layerId = "01EADDEA-E3EA-45FB-B4A5-8F079D2A3A41";
shapes = (
{
closed = 1;
nodes = (
(136,708,l),
(942,708,l),
(859,296,l),
(1040,296,l),
(1158,888,l),
(171,888,l)
);
}
);
width = 1189;
},
{
layerId = "ED340520-5A40-405B-AFF7-E5EF9D999D24";
shapes = (
{
closed = 1;
nodes = (
(135,716,l),
(949,716,l),
(865,296,l),
(1038,296,l),
(1156,888,l),
(169,888,l)
);
}
);
width = 1196;
}
);
unicode = 172;
},
{
glyphname = softhyphen;
layers = (
{
layerId = "5E5F26D6-8E6E-4FD0-9F5C-925EECC75CBD";
shapes = (
{
closed = 1;
nodes = (
(97,510,l),
(593,510,l),
(621,645,l),
(124,645,l)
);
}
);
width = 711;
},
{
layerId = "802D032B-EE86-4213-9785-3BFE9E181E39";
shapes = (
{
closed = 1;
nodes = (
(90,518,l),
(596,518,l),
(626,666,l),
(120,666,l)
);
}
);
width = 704;
},
{
layerId = "01EADDEA-E3EA-45FB-B4A5-8F079D2A3A41";
shapes = (
{
closed = 1;
nodes = (
(63,551,l),
(607,551,l),
(646,749,l),
(103,749,l)
);
}
);
width = 675;
},
{
layerId = "ED340520-5A40-405B-AFF7-E5EF9D999D24";
shapes = (
{
closed = 1;
nodes = (
(70,543,l),
(604,543,l),
(641,728,l),
(107,728,l)
);
}
);
width = 682;
}
);
unicode = 173;
},
